<?xml version="1.0" encoding="UTF-8"?>
<svg id="svg" xmlns="http://www.w3.org/2000/svg" xmlns:xlink="http://www.w3.org/1999/xlink" viewBox="0 0 402.33 355.84">
  <defs>
    <style>
      .cls-1 {
        fill: url(#linear-gradient);
      }

      .cls-1, .cls-2, .cls-3 {
        stroke-width: 0px;
      }

      .cls-2 {
        fill: #fafbfa;
        fill-rule: evenodd;
      }

      .cls-3 {
        fill: #2e2e30;
      }
    </style>
    <linearGradient id="linear-gradient" x1="202.15" y1="-14.27" x2="202.15" y2="385.73" gradientUnits="userSpaceOnUse">
      <stop offset="0" stop-color="#00ff0a"/>
      <stop offset="1" stop-color="#000"/>
    </linearGradient>
  </defs>
  <rect class="cls-3" width="402.33" height="354.04"/>
  <path id="svgg" class="cls-1" d="m320.97,207.75c-2.25,3.28-2.95,3.43-11.95,2.57-20.03-1.93-34.65,4.13-39.73,16.47-6.76,16.42,2.73,34.17,21.53,40.28,8,2.6,15.37,3.32,26.02,2.55,7.2-.52,7.49-.48,8.69,1.33l.57.85,4.99-11.02c2.75-6.06,4.95-11.07,4.89-11.13-.06-.06-1.04.18-2.18.54l-2.08.64-1.04,1.42c-4.35,5.92-9.39,9.29-15.63,10.45-15.79,2.92-31.92-8.25-33.06-22.87-.51-6.64,1.66-13.41,5.56-17.31,8.93-8.93,28.65-6.89,35.43,3.66.54.84,1.08,1.68,1.2,1.86.25.4,3.46-.79,3.46-1.29,0-.28-5.65-20.01-5.77-20.15-.03-.04-.44.48-.9,1.15m-207.81,1.66c-.4.31-1.3.83-1.99,1.16l-1.26.61h-46.69v2.9l1.07.23c2.46.53,3.99,1.58,4.75,3.27.54,1.21.7,41.74.17,43.84-.63,2.51-2.24,3.9-4.75,4.08l-1.24.09v3.31h24.56c18.11-.01,24.68.05,25.03.23.26.13,1.01.71,1.67,1.28l1.21,1.04.19-.51c.11-.28,2.28-5.78,4.83-12.22,2.55-6.44,4.59-11.75,4.53-11.81-.12-.12-2.76-.65-3.29-.66-.21,0-.89.81-1.71,2.04-6.31,9.48-14.86,13.97-26.59,13.99-5.49,0-7.89-.59-9.06-2.23l-.49-.69-.06-13.06-.06-13.06h.48c12.42.08,16.1,1.71,18.79,8.37.4.99.75,1.83.77,1.86.16.19,3.57-1.19,3.54-1.44-.26-1.92-4.6-21.17-4.77-21.16-.53.02-3.38,1.59-3.41,1.88-.25,2.06-.82,2.94-2.37,3.65-.99.46-10.45.8-12.33.45l-.73-.14.07-3.29c.12-5.44,1.11-6.1,8.78-5.84,10.26.34,18.78,4.58,22.24,11.06.77,1.44.48,1.37,3.21.79,1.28-.27,1.91,2.7-4.32-20.38-.02-.09-.37.09-.78.39m41.87.65c-.35.04-1.53.18-2.62.3-14.43,1.64-23.84,9.48-26.39,21.98-.64,3.13-.52,10.43.22,13.15,2.98,11.07,14.41,20.03,28.77,22.56,4.39.77,6.37.84,23.87.84h17.19v-2.9l-1.42-.43c-3.77-1.15-3.65-.53-3.57-17.38.07-15.6-.06-14.4,1.63-15.55.64-.43,1.14-.61,2.78-.98.56-.13.58-.17.58-1.6v-1.46h-25.18v1.46c0,1.43.01,1.47.58,1.59,3.44.76,4.79,2.02,5.3,4.94.36,2.07.18,21.02-.21,22.08-2.04,5.58-15.65,4.96-24.76-1.14-13.31-8.91-15.37-28.42-3.86-36.63,10.11-7.21,27.09-4.36,33.12,5.56.43.71.84,1.28.9,1.28.16,0,2.75-.41,3.33-.53.43-.09.42-.2-.86-5.92-.72-3.21-1.37-6.13-1.46-6.5-.21-.96-5.05-3.66-6.71-3.75-5.66-.3-8.85-.53-11.24-.8-2.51-.29-8.2-.4-9.97-.2m-147.85,2.67v1.55l1,.14c2.42.34,4.25,1.71,5.01,3.79.46,1.24.72,36.59.31,41.17-.38,4.15-1.27,5.27-4.85,6.08l-1.46.33v3.1l22.19.06c24.85.06,22.51-.09,24.56,1.58,1.12.91.34,2.35,5.68-10.56,2.53-6.11,4.74-11.47,4.93-11.91l.33-.8-1.32-.59c-2.24-1-2.16-1.01-2.81.1-4.88,8.28-11.67,13.4-19.87,14.98-7.44,1.43-11.53,1.06-12.52-1.12-.46-1.02-.63-40.18-.18-42.28.52-2.4,2.1-3.75,4.69-4l1.28-.12.06-1.52.06-1.52H7.18v1.55m323.82,0v1.54l1.38.11c3.56.28,3.36.08,15.31,16l9.13,12.17-.08,9.23c-.1,12.49-.38,13.26-4.91,13.71l-1.42.14-.06,1.63-.06,1.63h27.09v-3.3l-1.44-.1c-4.35-.31-4.85-1.81-4.85-14.56v-8.42s8.31-11.4,8.31-11.4c4.57-6.27,8.69-11.85,9.15-12.4,1.93-2.29,5.03-4.12,7.31-4.33l1.26-.11v-3.09h-22.46v3.15h1.21c4.46.02,4.1,2.11-1.74,9.97-1.8,2.42-4.19,5.65-5.3,7.18-1.12,1.53-2.11,2.75-2.2,2.73-.43-.12-9.9-13.22-10.65-14.73-1.78-3.58-.97-5.14,2.68-5.14h1.1v-3.15h-28.75v1.54m-93.6,8.41c-3.29.72-6.09,1.35-6.23,1.4-.16.06,1.18,3.44,3.72,9.43,2.18,5.14,3.97,9.41,3.97,9.5,0,.09-.76-.22-1.7-.69-3.32-1.67-7.67-2.86-11.26-3.08-1.07-.07-1.94-.15-1.94-.2s1.47-3.35,3.26-7.35c1.79-4,3.21-7.31,3.16-7.37-.09-.09-10.02,1.99-10.09,2.11-.01.03-1.57,3.49-3.46,7.71-9.35,20.89-12.07,26.86-12.86,28.21-1.76,3.02-4.14,4.74-6.57,4.74h-.94v3.36h23.52l-.06-1.63-.06-1.63-1.39-.14c-1.48-.15-2.08-.38-2.88-1.1-1.89-1.71-1.52-3.48,2.75-13.25l3.03-6.93,1.87.06c5.17.17,10.18,1.8,14.71,4.8,8.61,5.7,10.98,14.72,4.33,16.5l-.91.24v3.06h25.81v-3.36h-.68c-1.55-.03-3.32-1.07-4.29-2.53-.3-.45-4.48-10.34-9.3-21.97-7.15-17.26-8.83-21.15-9.15-21.18-.22-.02-3.09.56-6.38,1.27m9.19,63.73c-9.17,1.34-14.59,10.19-10.87,17.75,6.05,12.31,29.8,8.19,29.8-5.17,0-8.43-8.54-14.1-18.92-12.58m58.91-.02c-3.02.46-7.03,2.64-7.03,3.84,0,.04-.1.61-.22,1.26-.66,3.56,1.41,5.21,9,7.18,8.26,2.14,9.71,3.07,9.42,6.02-.39,4.07-8.3,6.02-13.64,3.37-1.93-.96-4.44-3.4-5.29-5.14-.71-1.46-1.04-1.57-.64-.21.16.55.68,2.41,1.15,4.14.47,1.73.9,3.3.96,3.49.09.31.18.31,1,.02.86-.31,1.01-.3,3.3.28,10.4,2.62,20.36-3.64,16.93-10.64-1.28-2.61-2.84-3.41-10.12-5.21-7.98-1.97-9.19-2.87-6.93-5.13,3.1-3.1,11.82-.87,14.16,3.62.52,1.01.44.18-.32-3.25-.9-4.08-.77-3.77-1.39-3.35-.62.43-1.2.42-4.27-.09-2.58-.43-4.24-.48-6.09-.21m-202.31.21c-.23.1-4.95.19-10.49.21-9.23.03-10,.06-9.18.35,1.89.67,1.83.32,1.9,11.14.07,11.32-.03,11.96-2.05,12.36-2.13.43.11.53,10.01.47,5.86-.04,10.78.01,10.93.11.43.27.53.08,2.25-4.28.88-2.25,1.65-4.21,1.71-4.36.26-.66-.38-.16-.96.74-2.95,4.6-9.9,7.31-14.98,5.84-2.1-.61-2.05-.43-2.05-7.71v-6.27h.47c5.99.08,7.94.81,9.23,3.48.78,1.61.75.83-.15-3.19-.9-4.03-1.13-4.57-1.48-3.39-.41,1.37-2.91,1.95-6.7,1.54l-1.37-.15v-1.74c0-2.72.69-3.26,4.15-3.26,4.42,0,8.8,1.78,10.4,4.22,1,1.54,1.02,1.29.12-2.07-.46-1.7-.88-3.35-.95-3.67-.13-.62-.17-.64-.81-.37m35.92,2.36c-.42,1.42-.91,3.02-1.07,3.57-.38,1.25-.11,1.28.6.08,1.53-2.61,4.69-4.11,8.68-4.12h1.1s0,10.08,0,10.08c0,11.77-.07,12.17-2.3,12.17-.24,0-.43.1-.43.21,0,.13,1.85.21,5.14.21s5.14-.08,5.14-.21c0-.11-.18-.21-.41-.21-2.19,0-2.21-.08-2.27-11.91l-.06-10.34h1c4.48,0,7.1,1.4,9.45,5.02.3.46.06-.63-.78-3.55-.96-3.33-1.01-3.46-1.49-3.36-.82.17-20.61.12-21.09-.06-.41-.15-.49.02-1.21,2.41m46.35-2.36c-.23.1-4.95.19-10.49.21-9.23.03-10,.06-9.18.35,1.89.67,1.83.32,1.9,11.14.07,11.32-.03,11.96-2.05,12.36-2.13.43.11.53,10.02.47,5.86-.04,10.78.01,10.93.11.43.27.53.08,2.25-4.28.88-2.25,1.66-4.21,1.71-4.36.26-.66-.38-.16-.96.74-2.95,4.6-9.9,7.31-14.98,5.84-2.1-.61-2.05-.43-2.05-7.71v-6.27h.47c6,.08,7.94.81,9.23,3.48.78,1.61.74.83-.15-3.19-.9-4.03-1.13-4.57-1.48-3.39-.41,1.37-2.91,1.95-6.7,1.54l-1.37-.15v-1.74c0-2.72.69-3.26,4.15-3.26,4.41,0,8.8,1.78,10.4,4.22,1,1.54,1.02,1.29.12-2.07-.46-1.7-.88-3.35-.95-3.67-.13-.62-.17-.64-.81-.37m-74.94.54c1.9.7,2.62,1.39,6.26,5.96,1.97,2.48,3.59,4.62,3.6,4.76.08.95-9.91,12.31-11.16,12.68-1.63.49-.9.62,3.53.62,4.09,0,5.37-.17,3.8-.52-1.48-.33-1.62-1.47-.44-3.48.92-1.56,5.67-7.56,5.89-7.43.27.17,5.76,7.25,6.25,8.07.89,1.47.26,2.94-1.26,2.94-.33,0-.6.1-.6.21,0,.14,2.06.21,5.77.21,5.31,0,6.73-.14,5.2-.51-1.31-.32-2.24-1.31-7.29-7.77l-5.18-6.63,3.13-3.72c3.24-3.85,4.11-4.62,5.98-5.29l1.11-.39-4.41-.02c-4.33-.01-4.39,0-3.67.35,1.38.69,1.2,1.32-1.3,4.45-1.19,1.49-2.22,2.72-2.28,2.73-.18.02-3.71-4.5-4.08-5.23-.45-.86-.08-1.65.94-2.02.62-.22-.14-.26-4.93-.27-5.15,0-5.59.03-4.85.3m82.15-.04c2.12.77,2.16.99,2.09,12.4-.07,10.81,0,10.39-1.81,11.03-1.55.55-.96.64,4.27.64,4.75,0,6.17-.16,4.54-.52-1.77-.39-2.13-1.54-2.13-6.81v-4.36l2.54-.76,2.54-.76.48.57c4.18,4.98,5.41,6.54,5.98,7.62,1.2,2.25,1.08,4.6-.23,4.6-.21,0-.39.1-.39.21,0,.13,1.68.21,4.62.21,4.6,0,5.26-.1,3.89-.6-.96-.35-1.87-1.62-3.73-5.21-1.81-3.51-2.58-4.67-4.63-7.01l-1.57-1.8,1.47-.71c5.65-2.71,6.51-7.65,1.52-8.71-1.97-.42-20.59-.45-19.45-.03m28.51.23c1.93.88,1.85.39,1.85,11.8s.09,10.78-1.85,11.4c-1.7.55-1.12.63,4.26.63,3.36,0,5.25-.08,5.25-.21,0-.11-.23-.21-.51-.21-.73,0-1.75-.95-2-1.85-.38-1.36-.29-19.45.1-20.27.32-.68,1.27-1.39,1.85-1.39.18,0,.38-.09.45-.21.09-.14-1.69-.21-5.18-.2h-5.31s1.09.51,1.09.51m48.3-.23c2.12.77,2.16.99,2.09,12.4-.07,10.81,0,10.39-1.81,11.03-1.55.55-.96.64,4.27.64,4.75,0,6.17-.16,4.54-.52-1.77-.39-2.13-1.54-2.13-6.81v-4.36l2.54-.76,2.54-.76.48.57c4.18,4.98,5.41,6.54,5.98,7.62,1.2,2.25,1.08,4.6-.23,4.6-.21,0-.39.1-.39.21,0,.13,1.68.21,4.62.21,4.6,0,5.26-.1,3.89-.6-.96-.35-1.87-1.62-3.73-5.21-1.81-3.51-2.58-4.67-4.63-7.01l-1.57-1.8,1.47-.71c5.65-2.71,6.51-7.65,1.52-8.71-1.97-.42-20.59-.45-19.45-.03m-17.92,1.51c7.93,2.07,11.57,13.06,6.03,18.18-6.86,6.34-17.35,1.12-18.01-8.95-.41-6.25,5.61-10.89,11.99-9.23m-43.02.26c1.38.47,2.08,1.45,1.94,2.7-.22,2.02-2.73,3.74-7.86,5.39-3.32,1.07-2.99,1.41-2.99-3.11,0-5.4-.1-5.3,4.93-5.33,2.26-.02,3.18.06,3.98.34m76.81,0c1.38.47,2.08,1.45,1.94,2.7-.22,2.02-2.73,3.74-7.86,5.39-3.32,1.07-2.99,1.41-2.99-3.11,0-5.4-.1-5.3,4.93-5.33,2.26-.02,3.18.06,3.98.34M194.51,1.97C119.89,4.79,54.71,54.87,32.55,126.4c-1.87,6.03-3.33,11.88-4.05,16.21l-.1.58h2.6c2.85,0,2.71.07,2.96-1.41.06-.32.19-.87.31-1.23.11-.36.25-.85.29-1.08,3.03-15.71,13.27-39.21,24.32-55.77C113.24,2.21,224.94-17.35,303.58,40.85c2.9,2.14,2.9,2.17.44,1.51-8.74-2.34-11.14-3.03-14.26-4.07q-6.3-2.1-22.46,3.89c-9.02,3.35-12.47,4.48-16.42,5.41l-3.41.8v2.95c.02,6.07,1.29,9.23,4.58,11.38l1.25.82-1.63,6.5c-.9,3.58-2.67,10.23-3.94,14.79-1.27,4.56-2.57,9.4-2.9,10.76l-.6,2.47-2.32.71c-1.27.39-4.17,1.23-6.44,1.86-2.27.63-4.72,1.41-5.46,1.72-2.62,1.11-4.57,1.76-7.28,2.42l-2.76.67-.2.76c-1.39,5.27-2.59,13.63-2.86,19.86l-.13,3.15.87.54.87.54-.76.58c-.42.32-.79.55-.82.51-.21-.24-1.25-4.49-1.69-6.89-.76-4.14-.78-4.22-1.03-4.14-.27.09-.39.71-.96,5.18-.29,2.29-.59,3.75-.93,4.57-.28.66-.6,1.83-.72,2.6-.24,1.57-1.3,3.75-2.41,4.98-1.29,1.43-2.02,2.63-1.81,3.01.12.21.11.56-.02.9-.12.3-.21.79-.21,1.07v.51h6.2l.24-.63c.29-.77.97-1.05,2.57-1.05h1.22l.68-1.38c1.2-2.44,3.48-4.32,6.43-5.32l1.49-.51.13-1.59c.07-.88.23-1.92.34-2.32.54-1.89.25-2.49-1.94-3.96-.95-.64-1-.71-.99-1.66,0-1.77,1.44-12.62,1.79-13.54.05-.14,1.11-.57,2.35-.95,1.24-.38,2.98-1.02,3.87-1.42.89-.4,3.48-1.25,5.77-1.89,12.19-3.41,12.37-3.5,13.31-7.44.34-1.41,1.88-7.2,3.43-12.87,4.08-14.93,5.97-22.65,6.3-25.84.07-.69.17-1.46.23-1.71.08-.4-.03-.46-1.08-.6-3.43-.43-5.31-1.93-5.32-4.25,0-.62.07-.69.89-.91,2.1-.56,6.6-2.1,13.27-4.55,8.43-3.1,14.9-5.3,15.59-5.3.27,0,1.77.42,3.33.94,2.73.91,4.7,1.46,16.86,4.73,12.18,3.27,20.13,5.71,22.83,7.01,1.89.91,1.74.57,3.51,7.81.76,3.1,1.9,7.5,2.54,9.77,1.32,4.67,1.83,7.25,1.69,8.4-.05.43-.07.79-.04.79s4.28-1.66,9.44-3.68c19.17-7.52,22.57-7.52,22.57.05,0,2.29,2.34,49.69,2.82,57.05.06.92.16,2.58.23,3.67.07,1.1.17,2.25.23,2.57l.11.58h3c2.21,0,3.03-.07,3.1-.26.17-.47.16-.87-1.62-35.52-.75-14.54-1.35-27.67-1.33-29.17.04-3.92-.84-6.24-3.18-8.34-4.35-3.92-10.81-3.59-22.99,1.15l-3.78,1.47-.66-.81c-.36-.45-1.63-2.03-2.82-3.51l-2.15-2.7-.57-2.44c-2.53-10.9-3.33-11.8-13.38-15.06l-4.35-1.41-2.1-1.8c-27.24-23.34-60.3-37.85-95.23-41.77-9.8-1.1-17.73-1.4-27.51-1.03m94.52,49.62c0,.82-6.57,44.95-6.81,45.74-.55,1.82-.44,2.92.4,3.83l.72.78.23-.59c.56-1.47,1.5-7.79,2.95-19.87.59-4.9,1.73-13.12,2.53-18.26,1.83-11.72,1.82-10.89.15-11.71-.09-.04-.16,0-.16.08m-26.5,8.07c-.82.65-1.1,1.28-1.59,3.72-.24,1.18-2.41,9.73-4.82,18.99-2.41,9.27-4.44,17.41-4.51,18.11-.07.69-.64,2.93-1.27,4.96-2.51,8.05-4.72,17.28-4.24,17.75.22.22,1.41-.72,1.52-1.2.07-.29.68-2.6,1.36-5.14.69-2.54,3.14-12.22,5.44-21.51,5.25-21.12,7.2-28.55,8.71-33.19.47-1.42.49-1.68.25-2.27l-.27-.67-.58.46m9.55,4.62c-.74.3-.56.59.71,1.15,1.49.66,1.55.65,1.55-.09,0-1.26-.81-1.64-2.26-1.06m48.22,1.42c0,.68.34,1.09.88,1.09.26,0,.38-.16.38-.53,0-.29.1-.52.21-.52s.21-.14.21-.31c0-.38-.56-.42-.69-.05-.08.21-.18.21-.54,0-.41-.24-.45-.22-.45.33m-12.38,3.91c0,.57.5,1.17.96,1.17.17,0,.3-.2.3-.45s.17-.57.37-.72c.35-.26.35-.28-.02-.42-.24-.1-.46-.04-.57.14-.14.23-.23.24-.44.03-.4-.4-.6-.31-.6.25m5.88,1.18c0,.67.39,1.25.85,1.25.3,0,.41-.14.41-.52,0-.29.09-.53.21-.53s.21-.14.21-.31c0-.38-.55-.42-.69-.05-.08.21-.18.21-.54,0-.4-.24-.45-.22-.45.17m-19.52.93v.73h2.1v-1.47h-2.1v.74m-14.27,1.09c0,.71.33,1.12.91,1.12.32,0,.38-.11.3-.53-.07-.35,0-.52.19-.52.16,0,.29-.09.29-.2,0-.35-.43-.47-.74-.21-.24.2-.37.2-.62,0-.27-.22-.32-.17-.32.35m42.18-.13c0,.67.39,1.25.85,1.25.3,0,.41-.14.41-.53,0-.33.12-.52.32-.52.17,0,.32-.09.32-.2,0-.37-.4-.45-.86-.18-.36.22-.48.22-.55,0-.15-.42-.48-.3-.48.17m2.73.76c0,.7.33,1.12.88,1.12.26,0,.38-.16.38-.51,0-.28.12-.55.26-.6.21-.07.21-.15,0-.36-.21-.22-.31-.22-.58,0-.26.21-.39.22-.64,0-.27-.22-.32-.17-.32.35m-31.27.91v.84h2.73v-1.68h-2.73v.84m23.79-.53c-.09.24-.21.26-.53.08-.53-.29-.64-.16-.47.53.18.72.79,1.07,1.14.65.14-.17.2-.39.13-.5-.07-.11.02-.25.19-.32.41-.16.4-.47,0-.63-.18-.07-.37.01-.44.18m11.12,0c-.09.23-.22.25-.5.1-.56-.3-.62-.26-.62.31,0,.52.76,1.24,1.08,1.04.1-.06.18-.3.18-.52s.14-.47.32-.54c.4-.16.4-.42,0-.57-.18-.07-.37.01-.44.18m-9.52,1.03c0,.89.95,1.54,1.18.8.06-.2.21-.54.32-.76.28-.51.05-.71-.45-.39-.25.16-.45.17-.53.04-.23-.38-.52-.21-.52.3m39.64.33c-.53.09-1.62.45-2.41.8-.8.35-1.9.7-2.46.78l-1.01.15.12,1.92c.4,6.36,1.4,43.86,1.19,44.33-.42.93-.94.98-7.37.73-3.29-.13-6.22-.19-6.51-.12-2.54.55-41.79.07-43.38-.53-.74-.28-.75-.24-.39,1.51.18.85.32,1.9.32,2.34v.79l15.79-.04c8.68-.02,17.02-.11,18.52-.19,5.33-.29,20.38-.64,22.06-.51l1.7.13.27,1.51c.87,4.92,1.64,6.65,3.97,8.98,2.05,2.05,2.52,2.6,3.17,3.64.25.41.53.74.62.74s.27.24.4.52c.23.51.31.52,2.27.52h2.03l-.15-4.35c-1.03-30.88-2.44-61.87-2.85-62.42-.24-.32-.43-.77-.43-1.01,0-.47-3.24-.6-5.48-.22m-33.77.99c0,.71.46,1.21.94,1.03.17-.07.32-.31.32-.55s.1-.43.21-.43.21-.14.21-.32c0-.37-.45-.41-.79-.07-.18.18-.32.18-.57-.03-.28-.23-.32-.18-.32.36m-14.9,1.34c0,.63.09.74.89,1.07q1.18.49.99-.4c-.17-.75-.49-1.11-.97-1.12-.13,0-.39-.06-.58-.13-.26-.1-.33.02-.33.58m40.62.5c-1.21.71-1.42,1.28-1.5,4.03-.04,1.31-.17,2.74-.29,3.18-.12.44-.83,7.12-1.58,14.84-.75,7.72-1.56,15.92-1.79,18.22-.23,2.29-.42,4.21-.42,4.25s1.79.08,3.99.08h3.99v-1.17c0-4.8-.89-33.48-1.05-33.96-.11-.33-.21-2.72-.21-5.3s-.07-4.68-.16-4.67c-.09.01-.53.24-.98.51m-34.96.53c0,.67.39,1.25.85,1.25.3,0,.41-.14.41-.52,0-.33.12-.53.31-.53.17,0,.32-.1.32-.22,0-.32-.69-.53-.79-.24-.1.3-.68.33-.68.04,0-.11-.1-.21-.21-.21s-.21.19-.21.43m-9.02.93v.74h2.1v-1.47h-2.1v.73m4.27.21c-.09.24-.21.26-.54.09-.55-.29-.68-.13-.44.59.23.7,1.21.87,1.21.21,0-.21.13-.46.29-.55.16-.1.22-.28.14-.41-.2-.33-.53-.29-.67.08m15.87,1.65c0,.56.7,1.3,1.04,1.09.12-.08.22-.29.22-.47s.17-.45.37-.6c.35-.26.35-.28-.02-.42-.24-.09-.46-.04-.57.14-.14.23-.23.24-.44.03-.39-.39-.6-.31-.6.23m-59.18.87v.73h2.1v-1.47h-2.1v.74m76.08.4c-3.54,1.19-10.68,3.93-16.61,6.38-1.94.8-4.83,1.91-6.42,2.47l-2.88,1.01v10.02l2.05-1.1c1.12-.61,3.37-1.87,4.98-2.81,1.62-.94,7.45-4.11,12.96-7.04l10.02-5.34v-2.36c0-2.85.38-2.73-4.09-1.23m-169.89,1.29c-.16.87-.21,1.99-.12,3.01.14,1.59.13,1.65-.6,2.85-.4.67-1.02,2.14-1.37,3.26-.35,1.12-.81,2.27-1.02,2.54-.21.28-.54.96-.73,1.51-.38,1.12-1.33,2.69-3.14,5.13-1.92,2.6-1.88,3.47.16,4.08.67.2,1.36.5,1.54.68.36.36.39.33-2.01,1.19-3.87,1.37-4.23,2.72-1.22,4.63,1.77,1.12,1.84,1.19,1.76,1.93-.15,1.48-3.29,1.63-6.46.3-4.21-1.76-5.16-.73-2.3,2.48,3.07,3.44,2.72,3.92-2.95,3.97-3.28.03-3.99.14-3.99.62,0,.6,1.98,2.79,3.36,3.73.52.35,1.23.9,1.57,1.21,1.35,1.21,4.56,2.68,7.09,3.24,1.09.24.75,1.79-.48,2.19-1.59.51-6.33.43-7.72-.15-.99-.41-2.56-.62-2.56-.35,0,.06.19.46.42.89s.42.9.42,1.04c0,.49,3.81,4.03,4.6,4.28.42.13,1.15.46,1.63.74.48.27,1.43.63,2.1.79,2.27.55,4.51,2.25,3.71,2.83-.83.6-.21.65,8.01.65s9.07-.07,7.77-.67c-.59-.27-.37-.8.33-.8.21,0,.43-.09.5-.19.06-.1.62-.14,1.23-.08,1.3.12,1.45,0,2.01-1.64.35-1.03.44-1.12.98-1.08,1.26.1,1.94,2.02,1.03,2.93-.81.81,5.79,1.1,8.51.38.17-.05.62-.13.99-.2.37-.06.91-.21,1.21-.32.29-.11.54-.14.54-.06s.11.03.25-.11c.14-.14.45-.25.68-.25.24,0,.7-.18,1.03-.4l.6-.4-1.48-.34c-.82-.18-1.94-.34-2.49-.34-2.3,0-4.46-.39-5.15-.91-.37-.28-1.18-.66-1.8-.84-2.33-.68-6.95-5.45-6.96-7.18,0-.59.74-.9,2.55-1.05.82-.07,1.87-.25,2.35-.4,6.71-2.17,8.87-3.8,6.56-4.96-.48-.24-1.01-.56-1.19-.72-.18-.15-.88-.43-1.57-.61-.69-.18-1.49-.51-1.78-.74-.29-.23-1.05-.79-1.69-1.24-2.87-2.02-5.87-5.92-8.16-10.62-1.03-2.11-.95-2.2,1.83-2.2,3.18,0,3.81-.65,2.24-2.31-.38-.4-.96-1.08-1.29-1.51-.32-.42-.98-1.27-1.46-1.89-.48-.61-1.09-1.68-1.35-2.38-.26-.69-.68-1.59-.95-1.99-.26-.4-.59-1.21-.73-1.78-.32-1.34-.47-1.61-1.58-2.98-1.06-1.3-1.01-1.15-.59-1.98.48-.93.25-1.48-.85-2.02-1.07-.52-1.09-.58-.61-2.55.31-1.3.31-1.5,0-2.57-.54-1.85-.87-1.92-1.18-.27m100.32-.43v.73h2.1v-1.47h-2.1v.73m38.4-.16c0,.71.46,1.21.94,1.03.18-.07.32-.31.32-.55s.1-.43.21-.43.21-.14.21-.32c0-.37-.45-.41-.79-.07-.18.18-.32.18-.57-.03-.28-.23-.32-.18-.32.36m-20.15.79v.74h2.73v-1.47h-2.73v.73m22.67-.3c0,.67.39,1.25.85,1.25.28,0,.41-.14.41-.45,0-.25.17-.57.37-.72.35-.26.35-.28-.02-.42-.24-.09-.46-.04-.57.14-.14.23-.23.24-.44.03-.38-.38-.6-.32-.6.17m11.75,0c0,.67.39,1.25.85,1.25.28,0,.41-.14.41-.45,0-.25.17-.57.37-.72.35-.26.35-.28-.02-.42-.24-.09-.46-.04-.57.14-.15.24-.26.24-.61.03-.38-.23-.43-.21-.43.17m-46.8.78c0,.35.14.75.31.89.44.37,1.02.1.89-.42-.07-.27,0-.42.19-.42.16,0,.29-.09.29-.2,0-.35-.43-.48-.74-.21-.24.2-.37.2-.62,0-.27-.22-.32-.17-.32.37m-17.3,1.15c-.59.84-.42,1.1.98,1.47,1.52.41,1.55.4,1.24-.5-.5-1.42-1.57-1.9-2.21-.98m29.68,1v.84h2.73v-1.68h-2.73v.84m-26.02-.36c0,.95,1.52,2.27,2.02,1.76.07-.07-.29-1.63-.4-1.75-.31-.31-1.62-.32-1.62-.01m3.27.9c.18.76.13.7,1.16,1.16l.87.39-.14-.79c-.18-.99-.28-1.09-1.24-1.24-.77-.13-.78-.12-.63.48m9,1.92c.19.77.63,1.19,1.07,1.02.23-.09.32-.28.25-.55-.07-.27,0-.42.19-.42.16,0,.29-.14.29-.32,0-.38-.76-.42-.9-.05-.08.21-.15.21-.37,0-.45-.43-.67-.3-.52.31m-9.75.79v.73h2.1v-1.47h-2.1v.74m22.88,1.89v.74h2.73v-1.47h-2.73v.73m7.03,6.8c-17.11,6.66-18.83,7.36-19.08,7.76-.58.94-2.24,11.98-2.29,15.24-.06,4.27,1.29,4.31,8.46.27,1.56-.88,4.41-2.49,6.34-3.58,6.61-3.73,8.42-4.18,17.13-4.22l5.95-.03.28-.82c.15-.45.38-.88.49-.95.2-.12.62-20.61.43-20.56-.05.01-8.02,3.11-17.71,6.88m34.63-3.57c-10.03,5.15-16.3,9.09-15.59,9.8.12.12,16.9-8.81,19.28-10.26,1.15-.7,2.06-2.04,1.38-2.03-.14,0-2.42,1.12-5.08,2.48m-42.5-.81v1.05h1.03c.95,0,1.06-.06,1.46-.73l.43-.73-.78-.13c-.43-.07-.99-.21-1.26-.32-.8-.32-.88-.24-.88.85m47.95.84c-1.61.32-3.28,1.09-6.04,2.77-1.53.93-5.51,3.23-8.86,5.11l-6.09,3.42-.06,1.28-.06,1.28.59-.14c1.01-.24,2.38-.89,3.39-1.64.54-.39,2.46-1.54,4.28-2.54,1.82-1,3.25-1.91,3.19-2.02-.17-.28.59-1.19.9-1.08.59.2,3.37-1.06,7.78-3.52,3.98-2.22,4.45-3.62.98-2.93m-58.87,1.2c0,.71.46,1.21.94,1.03.18-.07.32-.31.32-.55s.09-.43.21-.43.21-.14.21-.31c0-.37-.45-.42-.79-.07-.18.18-.32.18-.57-.03-.28-.23-.32-.18-.32.36m29.8,8.1v3.01l-3.52.14c-8.09.31-10.56,1.15-20.75,6.99l-.86.5.31-1.94c.3-1.92.51-2.46.97-2.48.16,0,22.82-8.77,23.79-9.2.03-.01.05,1.33.05,2.99m-68.64,2.55c-4.57,1.53-9.12,2.99-10.13,3.26-1,.26-1.83.56-1.83.65,0,.29,2.35,1.05,5.56,1.8,6.17,1.44,6.34,1.54,7.02,3.82.51,1.69,1.07,2.29,2.55,2.67,1.32.34,1.18.5,1.46-1.5.13-.91,1.02-4.3,1.99-7.53.97-3.23,1.74-5.89,1.71-5.91-.02-.02-3.78,1.21-8.35,2.74m-153.92-1.91c-.34.8-.44,1.33-.96,4.85-.13.92-.47,2.45-.74,3.38-.27.94-.55,2.35-.63,3.15-.08.9-.35,1.92-.72,2.7-.32.69-.74,1.83-.94,2.52-.19.69-.58,1.6-.85,2.02-.27.42-.63,1.09-.8,1.49-.4.97-1.77,2.85-2.27,3.12-.92.49-.33,2.09.77,2.09,2.07,0-.74,4.22-3.96,5.95-.68.36-1.53.82-1.89,1.03-.36.2-.92.37-1.23.37s-.83.23-1.15.51l-.59.51.42.47c.23.26.71.59,1.06.74.35.15.77.42.92.6.36.43,1.44.71,3.37.86,3.3.26,4.55.73,3.25,1.23-.17.07-.32.22-.32.34,0,.27,29.51.31,29.67.04.38-.62-.92-1.42-2.64-1.62-.74-.09-1.33-.31-1.84-.71-.41-.32-1.17-.8-1.69-1.06-.52-.26-1.14-.65-1.38-.87s-.76-.56-1.16-.76c-2.71-1.37-6.7-5.33-6.7-6.66v-.89l2.26-.36c4.34-.7,4.7-1.03,2.94-2.67-2.56-2.38-3.81-3.7-4.48-4.72-.39-.6-.8-1.14-.91-1.21-.11-.07-.31-.47-.45-.91-.14-.43-.48-1.09-.76-1.47-.28-.38-.66-1.13-.84-1.68-.18-.54-.55-1.29-.83-1.66-.27-.37-.72-1.5-1-2.52-.28-1.02-.71-2.32-.97-2.89-.26-.57-.55-1.7-.64-2.52-.1-.81-.36-1.95-.58-2.53l-.41-1.05-.35.82m184.79,2.44c0,.35-.25,2.59-.55,4.98-1.04,8.3-.81,11.64.87,12.34,1.23.51,4.42.5,4.31-.02-.22-.99-.05-7.39.27-10.3.19-1.74.41-4.17.48-5.4l.14-2.24h-5.52v.63m-4.5,1.94c-.1.6-.56,5.54-2.22,23.98-.23,2.54-.47,5.51-.54,6.61-.07,1.1-.14,2.23-.15,2.52-.03.5.03.53,1.28.59,1.24.06,1.31.04,1.34-.42.03-.62.1-1.15.26-2.06.22-1.27.53-4.13.98-9.13.24-2.65.62-6.48.85-8.5.56-4.88,1.02-10.63,1.03-12.64v-1.63s-1.35,0-1.35,0h-1.36l-.11.68m51.79,1.43c-.49.14-.78.44-1.1,1.1-1.01,2.07-1.05,2.06,9.74,2.26,4.85.09,10.47.26,12.49.38,2.02.12,3.79.22,3.93.22.54,0,.34-2.7-.21-2.81-2.3-.44-4.72-.6-11.7-.76-7.81-.18-11.19-.32-12.07-.51-.23-.05-.72,0-1.08.11m-92.62.8c-.38.11-.56.34-.67.87-.34,1.7-1.45,12.3-1.32,12.63.11.29,1.7.85,1.94.68.17-.11,1.13-9.02,1.24-11.49.14-3.18.19-3.08-1.19-2.7m2.52,1.33c0,.72-.44,5.3-.65,6.83-.51,3.76-1.98,18.76-1.85,18.84.17.11,1.06-1.27,2.36-3.7,1.13-2.1,1.18-2.41,1.8-9.85.24-2.83.64-6.38.89-7.9.53-3.17.44-3.67-.77-4.18-.89-.37-1.79-.39-1.79-.04m35.64,1.14c-1.15,1.19-4.65,8.03-4.3,8.39.55.55,2.18-.49,1.71-1.11-.46-.61-.38-.86.34-1.12,1.52-.53,1.86-.28,1.41,1.03-.21.6-.19.73.15.98.71.52.88.33,1.02-1.13.08-.78.24-2.27.36-3.31.12-1.04.19-2.48.15-3.21l-.07-1.32-.77.8m-30.39,0c0,.11.27.76.6,1.44,1.1,2.29,1.57,4.04,1.91,7.07.21,1.91,1.69,5.83,2.19,5.82.61,0,2.44-1.08,2.93-1.73,2.13-2.79-.53-11.26-3.85-12.29-1.06-.33-3.78-.56-3.78-.31m-1.52,2.11c-.06.9-.23,2.78-.38,4.2-.15,1.41-.2,2.63-.13,2.71.19.19,1.19-.76,1.42-1.36.1-.26.45-.64.78-.82.68-.39.65-1-.17-3.52-.22-.69-.47-1.61-.55-2.05-.27-1.54-.86-1.04-.99.84m49.71,13.98c-.67,3.59-1.26,6.72-1.31,6.95-.08.32.04.27.49-.24,1.15-1.29,2.04-1.42,12.36-1.77,9.47-.32,14.49-.2,16.08.39,2.66.98,5.74,3.25,7.83,5.78.46.55.99,1.19,1.17,1.42.4.48,6.9.65,6.9.18,0-.15.4-.19,1.21-.11,3.25.33,4.35.37,4.15.16-.12-.12-.56-.26-.98-.3-1.24-.14-3.62-1.82-2.58-1.82.49,0,.82-.9.53-1.44-.24-.44-.22-.45,1.97-.45,2.06,0,2.78-.21,1.8-.52-.4-.13-1.27-1.06-1.27-1.37,0-.08.45-.32,1-.53.55-.21,1.54-.64,2.2-.98,2.04-1.02,11.29-1.56,15.99-.93,1.38.18,3.02.33,3.65.33h1.13l-.08-2.05c-.1-2.59-.7-4-1.86-4.39-1.04-.36-8.98-.33-15.64.04-3.99.23-10.22.31-23.23.31h-17.77s-.52-1.73-.52-1.73c-.29-.95-.59-2.09-.67-2.54-.13-.7-.21-.79-.59-.67-2.08.61-7.89.57-10.16-.08l-.59-.17-1.21,6.53m-50.29-5.01v.73h2.1v-1.47h-2.1v.74m12.03-.1c-.26.11-.69.68-1,1.33-.83,1.76-3.4,3.75-4.37,3.37-.61-.24-1.08,1.8-.64,2.78.27.6.4,1.59.48,3.85l.12,3.04,2.73.14c3.61.18,7.5.36,11.23.51l3.04.12.51-1.23c.28-.67,1.43-2.99,2.57-5.16,1.14-2.16,2.07-4.03,2.07-4.15,0-.14-2.67-.21-7.76-.21-5.76,0-7.76-.06-7.76-.24,0-.14.16-1.09.36-2.11.43-2.24.08-2.71-1.55-2.05m36.58.86c-.83.97-.77.74-2.03,7.81-.95,5.37-.95,5.09-.05,4.52.93-.59,1.46-1.84,1.84-4.34.18-1.19.51-3,.74-4.03.53-2.4.77-4.83.47-4.83-.12,0-.56.39-.97.87m-19.86.61c0,1.11.41,1.25,1.49.51,1.51-1.05,1.49-1.35-.12-1.35h-1.37v.85m-29.38.92c0,.57.49,1.17.96,1.17.18,0,.3-.21.3-.52,0-.29.09-.53.21-.53s.21-.14.21-.32c0-.38-.56-.42-.69-.05-.08.21-.18.21-.54,0-.41-.24-.45-.22-.45.25m2.34,1.24c-1.38,1.79-6.55,10.84-6.68,11.68-.03.17-.15.34-.27.38-.12.04-.22.19-.22.33s-.18.63-.4,1.08l-.4.82.94.06c.89.06,1.72-.44,1.75-1.05,0-.08.46-.93,1.01-1.89.55-.96,1.28-2.26,1.62-2.89.33-.64,1.49-2.61,2.56-4.4,2.07-3.44,2.16-3.69,1.59-4.65-.47-.8-.5-.79-1.5.5m28.65.01c-.37,1.18-2.17,4.95-3.21,6.74-.67,1.15-1.79,3.58-2.85,6.19-.12.29-.3.69-.4.89-.28.55-.25.58.65.58,1.05,0,1.08-.05,4.52-7.43,3.43-7.35,3.3-6.97,2.52-7.6-.83-.66-.81-.67-1.22.62m-140.47,1.84c-.92.98-1.66,3.38-2.15,7-.32,2.31-.88,4.72-1.09,4.72-.1,0-.18.19-.18.42,0,.4.14.42,3.78.42,3.83,0,4.1-.05,3.37-.68-.22-.19-.6-1-.84-1.81-.24-.8-.57-1.57-.73-1.7-.39-.32-.7-1.78-.86-4.05-.07-1.01-.29-2.51-.48-3.32l-.35-1.49-.46.49m126.65,3.37c.31.31.32,1.07.04,2.08-.21.75-.22.75-1.11.62-1.37-.21-1.89-.93-1.51-2.11.23-.74,2.02-1.14,2.58-.58m-12.63.94c-.43.44-1.15,1.56-1.59,2.48-1.02,2.15-1.48,3.18-1.48,3.34,0,.32,4.36.12,4.49-.21.31-.8.11-5.01-.26-5.72l-.37-.7-.78.8m41.12,5.3c-.26.41.1.65,1,.65,1.02,0,2.46.31,2.64.56.07.09.58.39,1.13.65s1.06.61,1.12.79c.08.2.4.31.85.31h.73l-.55-.68c-1.63-2.05-1.86-2.15-5.19-2.39-1.05-.08-1.65-.04-1.74.11m-177.65,1.41c.35.91-.41,1.52-.96.77-.19-.26-.2-.49-.04-.84.29-.64.74-.61,1,.07m163.04.63c-.12.31-.27.65-.34.76-.07.11,0,.16.16.11.16-.05.35-.4.42-.76.17-.81.04-.87-.24-.11m-30.41.27c-.12.22-.22.46-.22.52s2.71.12,6.02.12,5.98-.04,5.93-.09c-.08-.08-5.97-.36-7.1-.34-.28,0-1.26-.13-2.18-.3-2.11-.4-2.19-.4-2.45.09M8.49,252.04l-.05,8.23-.79.2c-.43.11-1.64.31-2.68.44-1.04.13-2.1.28-2.36.34l-.47.1v12.58h48l2.75,2.53c1.79,1.65,3.17,3.13,3.95,4.25,17.57,25.15,43.23,46.48,71.11,59.12,79.24,35.92,172.1,9.74,220.56-62.19l2.5-3.71h31.4v-13.43h-6.03l-.13-1.1c-.07-.61-.13-2.68-.13-4.62v-3.51h-4.86l.09,5.09c.13,7.4.79,8.69,4.72,9.1l1.31.14v3.51h-27.07v-3.51l1.12-.11c4.39-.45,4.99-1.5,5.12-9.02l.09-5.19h-10.56s-10.57,0-10.57,0l-4.62,10.19c-2.54,5.6-4.68,10.23-4.76,10.28-.08.05-.44-.34-.81-.88-1.02-1.48-1.51-1.61-5.19-1.35-7.81.54-11,.64-14.47.42-15.74-.99-27.47-6.83-34.04-16.95l-1.12-1.72h-13.16l.18.47c.66,1.73,4.12,10.06,4.44,10.68.82,1.61,3.22,3.12,4.96,3.12.47,0,.49.06.49,1.78v1.78h-26.02v-3.32l1.04-.34c5.01-1.66,4.75-7.75-.56-12.97l-1.23-1.21-11.11.05-11.11.05-1.41,3.15c-3.58,8.02-2.95,11.02,2.35,11.02h.62v3.58l-29.96-.08c-32.74-.08-31.37-.03-37.17-1.33-9.79-2.19-18.82-7.88-23.33-14.73l-1.15-1.74-2.31.06-2.31.06-3.96,9.97c-4.63,11.64-3.93,10.27-4.87,9.53-.42-.33-1.13-.88-1.58-1.22l-.81-.61-24.71-.02-24.72-.02-.06-1.7-.06-1.7,1.31-.14c4.09-.43,5.01-2.11,5.16-9.43l.1-4.78-3.12.06-3.12.06-3.49,8.39c-1.92,4.62-3.8,9.13-4.17,10.03l-.67,1.64-.66-.54c-.36-.3-1.09-.8-1.61-1.11l-.94-.58-22.35-.11-22.35-.11v-3.32l1.3-.26c4.45-.91,5.1-2.17,5.1-10v-4.15s-2.41,0-2.41,0h-2.41l-.06-3.73c-.03-2.05-.08-.02-.11,4.5m29.98-4.45c0,.12.14.45.3.74.17.29.3.43.3.32s-.14-.45-.3-.74c-.16-.29-.3-.43-.3-.32m-5.63,2.57l-.05,1.1h-4.83v3.93c0,7.52.74,8.02,10.18,6.85,7.27-.9,11.94-3.12,16.83-8.02,3.08-3.09,3.8-2.76-6.19-2.76h-8.57l-.25-.69c-.14-.38-.39-.88-.56-1.1-.28-.37,1.73,4.26,2.51,5.77.18.34.32.71.32.82,0,.34-4.28,1.11-7.6,1.38l-1.62.13-.06-4.26c-.03-2.34-.08-3.76-.11-3.16m51.16,4.51c0,6.72.92,7.41,9.86,7.39,10-.02,18.21-3.53,23.3-9.96l.66-.84h-33.82v3.41m62.11-2.37c5.33,6.37,13.1,9.91,21.84,9.95,7.4.04,9.01-1.54,9.02-8.84v-2.15s-15.86,0-15.86,0h-15.86l.87,1.04m45.13,4.64c0,6.65.2,7.3,2.51,8.22,1,.4,2.53.76,2.53.6,0-.09.58-.22,1.29-.3,2.66-.28,4.56-1.7,6.27-4.69.84-1.46,4.38-9,4.39-9.35,0-.09-3.82-.16-8.49-.16h-8.5v5.68m95.72-5.02c8.01,11.25,26.57,14.67,37.16,6.86,1.53-1.13,5.32-4.99,6.43-6.54l.7-.98h-44.76l.47.66m-182.1,36.4c.96,3.6,1.06,4.51.36,3.44-1.97-2.99-5.8-4.65-10.84-4.68-3.53-.02-4.09.46-4.09,3.58v1.31s3.04,0,3.04,0c3.72,0,4.52-.24,5.02-1.48.18-.45.4-.82.49-.82.21,0,1.99,8.21,1.81,8.38-.14.14-.23.01-1.14-1.6-1.08-1.92-2.92-2.58-7.18-2.58h-2.05s0,5.88,0,5.88q0,8.07,5.14,8.06c5.18-.02,9.17-2.04,11.75-5.95.82-1.25,1.15-1.54,1.15-1.02,0,.25-3.23,8.6-3.49,9.01-.07.11-.25.08-.43-.07-.24-.2-2.79-.24-11-.2-10.04.05-12.12-.05-10.08-.5.63-.14,1.25-.7,1.73-1.58.37-.67.54-17.57.2-19.46-.23-1.3-1.09-2.36-1.89-2.36-.22,0-.46-.09-.53-.2-.08-.13,3.66-.22,10.05-.26,7.79-.05,10.24-.12,10.44-.33.46-.46.52-.32,1.53,3.43m45.32-3.11c8.24.05,9.97,0,11.44-.4.25-.07,2.29,6.1,2.32,7,.02.43-.43.06-.91-.76-1.37-2.34-4.01-3.62-8.26-4.01l-1.52-.14v9.72c0,11.56.09,12.1,2.03,12.47,1.79.34.29.51-4.44.51s-6.23-.17-4.44-.51c1.95-.37,2.03-.82,2.03-12.36v-9.83l-1.52.13c-4.52.38-7.18,1.78-8.37,4.39-.22.49-.81.77-.81.39,0-.09.29-1.1.64-2.26.35-1.15.82-2.74,1.06-3.52.41-1.36.44-1.41.89-1.15.35.2,2.79.28,9.89.33m36.94,3.11c.96,3.6,1.06,4.51.36,3.44-1.97-2.99-5.8-4.65-10.84-4.68-3.54-.02-4.09.46-4.09,3.58v1.31s3.04,0,3.04,0c3.72,0,4.52-.24,5.02-1.48.18-.45.4-.82.49-.82.21,0,1.99,8.21,1.81,8.38-.14.14-.23.01-1.14-1.6-1.08-1.92-2.92-2.58-7.18-2.58h-2.05s0,5.88,0,5.88q0,8.07,5.14,8.06c5.18-.02,9.17-2.04,11.75-5.95.83-1.25,1.15-1.54,1.15-1.02,0,.25-3.23,8.6-3.49,9.01-.07.11-.25.08-.43-.07-.24-.2-2.79-.24-11-.2-10.04.05-12.12-.05-10.09-.5.63-.14,1.25-.7,1.73-1.58.37-.67.54-17.57.2-19.46-.23-1.3-1.09-2.36-1.89-2.36-.22,0-.46-.09-.53-.2-.08-.13,3.66-.22,10.05-.26,7.79-.05,10.24-.12,10.44-.33.46-.46.52-.32,1.53,3.43m66.89-3.4c13.23,2.55,15.89,17.4,4.13,23.07-10.74,5.18-23.12.09-23.63-9.73-.47-9.08,8.78-15.41,19.5-13.34m58.44.15l2.57.45.75-.44c.41-.24.75-.4.75-.34,0,.08.61,2.85,1.46,6.65.23,1.04-.17,1.05-.72.03-2.3-4.27-11.19-6.24-13.95-3.1-1.89,2.16-.92,2.84,6.88,4.78,7.66,1.91,9.65,3.04,10.65,6.03,2.27,6.83-7.62,12.64-17.16,10.08-1.69-.45-2.44-.49-4.04-.21-.37.07-1.92-4.71-2.75-8.46-.23-1.02.24-.65.92.74,2.29,4.66,7.62,7.18,13.01,6.15,4.14-.79,6.21-2.67,5.82-5.29-.32-2.13-1.9-2.98-9.03-4.84-7.26-1.89-9.55-3.39-9.55-6.25,0-4.97,5.98-7.45,14.4-5.98m-191.42.39c-.07.12-.33.21-.57.21-1.96,0-1.6,1.4,1.29,5.02l1.67,2.1,2.22-2.77c2.56-3.2,2.88-4.35,1.23-4.35-.27,0-.48-.09-.48-.21,0-.13,1.57-.21,4.3-.21,4.01,0,5.38.19,3.5.49-1.63.26-9.06,7.59-9.06,8.94,0,.29,9.42,12.31,10.35,13.2.4.38,1.09.82,1.53.98,1.83.63,1.1.74-4.83.74s-6.64-.1-4.84-.59c2.18-.58,1.81-1.7-2.34-7.02l-3.07-3.93-2.68,3.39c-4.12,5.2-4.73,6.76-2.91,7.47,1.47.58.91.68-3.59.68s-5.25-.15-3.44-.78c1.16-.4,1.86-1.14,6.84-7.15l4.39-5.31-3.48-4.39c-3.98-5.02-5.34-6.3-6.69-6.3-.17,0-.37-.09-.44-.21-.08-.14,1.82-.21,5.56-.21s5.65.07,5.56.21m91.62.13c4.41,1.31,3.5,5.86-1.73,8.58-.84.44-1.57.83-1.62.87-.04.04.55.75,1.32,1.58,1.78,1.92,3.25,4.16,5.05,7.69,1.51,2.95,2.69,4.53,3.56,4.75,1.5.38.23.54-4.09.54s-5.33-.13-3.99-.6c2-.7.69-4.01-3.56-9.06-3.2-3.8-2.67-3.55-5.56-2.67l-2.31.7v4.51c0,5.2.12,5.64,1.73,6.39,1.46.68,1.12.74-4.25.74-4.78,0-6.04-.14-4.77-.55,2.38-.77,2.26-.12,2.26-11.41s-.14-11.96-2.13-11.96c-.27,0-.5-.09-.5-.21,0-.39,19.23-.27,20.58.13m18.04-.17c0,.09-.39.3-.87.47-1.83.64-1.75.16-1.75,11.39,0,9.07.03,9.96.37,10.58.37.67,1.31,1.32,1.93,1.32.18,0,.32.1.32.21,0,.13-1.89.21-5.25.21-5.18,0-6.04-.12-4.42-.6,1.15-.34,1.84-1.24,2.01-2.6.33-2.68.02-18.48-.38-19.21-.4-.73-1.47-1.51-2.09-1.51-.2,0-.37-.1-.37-.21,0-.13,1.89-.21,5.25-.21,2.88,0,5.25.07,5.25.16m58.77.17c4.41,1.31,3.5,5.86-1.73,8.58-.85.44-1.57.83-1.62.87-.04.04.55.75,1.32,1.58,1.78,1.92,3.25,4.16,5.05,7.69,1.51,2.95,2.69,4.53,3.56,4.75,1.5.38.23.54-4.09.54s-5.33-.13-3.99-.6c2-.7.69-4.01-3.56-9.06-3.2-3.8-2.67-3.55-5.56-2.67l-2.31.7v4.51c0,5.2.12,5.64,1.73,6.39,1.46.68,1.11.74-4.25.74-4.79,0-6.04-.14-4.77-.55,2.38-.77,2.26-.12,2.26-11.41s-.14-11.96-2.13-11.96c-.27,0-.5-.09-.5-.21,0-.39,19.23-.27,20.58.13m-42.49,1.35c-4.26.71-7.95,5.53-7.37,9.63,1.17,8.33,7.59,13.08,14.5,10.71,11.6-3.97,5.14-22.4-7.13-20.34m-45.14.17c-2.03.38-2.2.81-2.2,5.52v3.54l.58-.14c8.47-1.99,13.02-6.42,8.73-8.49-1.02-.49-5.36-.76-7.1-.43m76.81,0c-2.03.38-2.2.81-2.2,5.52v3.54l.58-.14c8.47-1.99,13.02-6.42,8.73-8.49-1.02-.49-5.36-.76-7.1-.43m40.35-163.1c.26.05.64.05.84,0,.2-.05-.01-.09-.47-.09-.46,0-.63.04-.37.1m-85.94.42c.32.05.79.05,1.05,0,.26-.05,0-.09-.58-.09-.58,0-.79.04-.47.09m-47.27,10.24c.39.4.76.73.82.73s-.22-.33-.61-.73c-.39-.4-.76-.74-.82-.74s.21.33.61.74m33.78,3.2l-.72.79.79-.72c.73-.67.88-.85.72-.85-.04,0-.39.35-.79.79m22.52,1.88c.2.05.53.05.73,0,.2-.05.04-.1-.37-.1s-.57.04-.37.1m41.02,1.34c.26.27.52.43.58.37s-.15-.28-.47-.49l-.58-.37.47.49m-18.57.61c0,.4.04.57.1.37.05-.2.05-.53,0-.73s-.1-.04-.1.37m-38.18.37c-.24.43-1.62,3.11-3.08,5.95l-2.65,5.17.89.25c.49.14,1,.29,1.13.35.14.06.33-.28.46-.81.13-.5.74-1.75,1.36-2.79.94-1.56,3.95-7.02,4.28-7.76.05-.12-.1,0-.33.27-.35.39-.6.47-1.36.42l-.94-.06.4-.82c.52-1.06.4-1.19-.16-.17m36.64-.63c-.02.09-.04.48-.05.87-.01.39-.15.76-.31.81-.23.08-.23,0-.04-.36.14-.25.21-.5.16-.55-.05-.05-1.77,3.55-3.82,8-2.06,4.45-3.7,8.12-3.65,8.16.14.12,3.84.55,4.71.54,1.45,0,1.38.2,2.1-5.98.19-1.62.33-3.88.32-5.04-.02-1.39.1-2.52.33-3.36.33-1.19.57-3.25.37-3.25-.05,0-.1.07-.12.16m-185.13.2c.26.05.68.05.94,0,.26-.05.05-.09-.47-.09s-.73.04-.47.09m137.47,0c.38.05.94.05,1.26,0,.31-.05,0-.09-.69-.09-.69,0-.95.04-.57.09m-105.99.57c.41.55.56.57.36.06-.07-.18-.26-.38-.43-.45-.23-.09-.21,0,.07.38m71.65-.23c-.18.22-.12.33.29.52,1.3.59.44.67-7.78.67-6.57,0-8.28-.05-8.18-.26.07-.15,0-.08-.15.13-.75,1.1-3.83,4.45-4.42,4.81-.37.23-.99.68-1.37,1.01-.38.33-.8.6-.94.6s-.91.33-1.72.73c-1.52.75-5.62,1.56-9.58,1.9-1.64.14-2.07.44-2.07,1.45,0,.49,2.81,2.57,4.01,2.96.62.2,1.42.51,1.76.69.35.18,1.24.45,1.98.61,2.21.47,2.36.91,1.17,3.39-.4.84-.73,1.63-.73,1.75s-.25.78-.56,1.47c-.65,1.46-.55,1.63.98,1.63.67,0,1.18-.15,1.72-.52,1.16-.79,2.71-.6,2.1.26-.15.21-.42.66-.6,1-.34.63-6.47,6.13-7.23,6.49-.22.1-.41.28-.41.4s-.6.88-1.33,1.7c-.73.82-1.78,2.09-2.33,2.81l-1,1.32-1.87-.14c-2.49-.19-3.58.75-2.26,1.93,1.45,1.3,2.14,2.81,2.16,4.72.02,2.11.05,2.1-2.02.75-3.38-2.2-5.18-4.4-7.64-9.33-2.34-4.7-2.14-5.18,2.33-5.71,2.36-.28,3.63-.65,4.71-1.38.4-.27.82-.5.91-.5.38,0,1.99-1.27,2.55-2,.9-1.17.47-1.48-1.93-1.4-3.48.12-7.01-1.02-9.85-3.18-.48-.37-1.5-1.13-2.27-1.7-1.55-1.14-1.79-1.47-1.79-2.42,0-.49.1-.64.39-.64.84,0,2.85-.87,3.62-1.57.45-.4.91-.74,1.02-.74s.44-.36.73-.79c.29-.43.86-1.25,1.26-1.81,1.6-2.22.88-2.96-2.66-2.76-2.64.15-3.76-.18-4.64-1.4l-.41-.56.76-.66c1.04-.91,2.3-2.67,2.12-2.96-.08-.13-.6-.44-1.15-.7-.55-.26-1.48-.98-2.07-1.6-.59-.63-1.02-.98-.95-.79.07.19.25.4.42.47,1.01.39.01.55-3.46.55s-3.77-.03-3.84-.37c-.04-.2-.25.31-.45,1.14-.21.86-.56,1.67-.8,1.89-.23.21-.64.81-.91,1.34-.48.95-1.73,2.24-2.62,2.72-1.43.77-.02,2.97,2.21,3.44,1.79.37,2.54,1.05,2.32,2.1-.08.36-.2,1.74-.28,3.06-.18,2.97-.19,3-1.58,2.84l-1.08-.12-.69,1.11c-1.64,2.66-5.85,6.76-7.49,7.3-.94.31-1.58,1.13-1.58,2.02,0,.78,1.84,1.83,4.35,2.48,1.65.43,2.19.84,2.04,1.54-.34,1.56-.96,3.38-1.23,3.6-.17.14-.56.7-.88,1.23-.89,1.54-2.09,2.88-3.54,3.94-1.82,1.34-1.44,2.6.79,2.6,2.41,0,2.4,1.89-.03,4.48-1.39,1.48-2.33,1.33-3.54-.57-.3-.48-.76-1.1-1.02-1.39-.26-.29-.68-1.28-.93-2.2-.25-.92-.65-2.05-.88-2.51-.73-1.44-.96-6.76-.35-7.91.18-.33.3-.31,1.43.25,1.88.93,2.89,1.1,4.35.71,1.99-.52,2.01-.84.12-1.68-2.13-.94-4.78-3.24-5.92-5.12-.29-.48-.83-1.25-1.21-1.72-1.54-1.91-.93-2.85,1.86-2.85,3.89.01,5.1-1.43,3.02-3.63-.27-.29-.7-1.06-.94-1.72-.26-.71-.72-1.44-1.14-1.81l-.7-.61,1.07-.53c.59-.29,1.59-.59,2.21-.65,1.53-.17,4.92-1.31,5.38-1.82.44-.48-.87-1.24-2.15-1.25-.76,0-3.82-1.54-5.41-2.71-.58-.43-1.47-1.02-1.99-1.32-3.54-2.06-3.34-3.97.47-4.38,2.48-.27,3.95-.93,4.46-2l.36-.75.4.65c.63,1.04,3.89.66,3.72-.43-.06-.39-.47-.4-15.02-.39-14.2,0-15.92-.06-14.64-.55.17-.07.31-.26.31-.43s-.41.19-.91.81c-.5.62-1.16,1.25-1.47,1.42-1.39.74.3,4.08,2.7,5.34.35.18.75.41.9.51,1.12.76-5.26,8.08-9.48,10.87-.68.45-1.48.98-1.78,1.18-.3.2-.97.42-1.5.5-2.4.35-2.57.89-.74,2.31,1.49,1.16,1.72,1.22,4.79,1.31,3.19.09,3.47.22,2.79,1.27-.19.3-.59,1.06-.87,1.68-.28.62-.82,1.49-1.2,1.92-.38.44-1.29,1.51-2.03,2.39-.74.88-1.42,1.59-1.5,1.59s-.74.58-1.46,1.29c-1.27,1.25-1.34,1.29-2.48,1.32-.8.02-1.56.21-2.38.61-.66.32-1.63.63-2.16.71-2.02.28-2.16,1.67-.23,2.19.47.13,1.27.47,1.76.76l.91.53.68-.66c.84-.81.99-.82,1.43-.03.58,1.02,1.54,1.47,3.13,1.47,1.32,0,1.4.03,1.62.58.5,1.28.37,2.41-.37,3.26-1.86,2.11.17,3.25,2.85,1.6l.66-.41.36.95c.47,1.24.3,2.56-.65,4.85-.4.96-.72,1.9-.72,2.08,0,.29,4.48.33,45.66.33,30.39,0,45.61-.07,45.53-.21-.07-.12-.26-.21-.43-.21s-.3-.11-.3-.25-.06-.19-.13-.11-.43-.1-.81-.38c-.37-.28-.74-.52-.82-.52s-1.31-.71-2.74-1.57c-1.43-.87-2.65-1.57-2.71-1.57-1.21,0-6.91-4.03-7.28-5.15-.86-2.61,4.23-8.55,14.04-16.38,1.49-1.18,2.68-2.38,3.1-3.09.1-.16.57-.5,1.05-.74.48-.24,1.71-1.22,2.74-2.18,1.02-.95,3.93-3.54,6.47-5.76,2.54-2.21,5.6-4.93,6.81-6.04,4.04-3.7,3.43-3.66,18.78-1.17,3.46.56,6.72,1.08,7.24,1.16l.94.13.36-1.22c.2-.67.73-1.71,1.19-2.3,1.23-1.6,1.35-1.91,1.41-3.62.07-1.86.23-2.67.64-3.37l.31-.53-.43.5c-.24.27-.43.63-.43.79,0,.49-6.23.42-6.36-.08-.05-.2-.11.16-.12.8-.04,1.98.06,1.96-4.51,1.13-2.18-.39-4.19-.68-4.46-.63-.28.05-.46.02-.4-.07.12-.2-4.47-.81-7.45-.99-2.48-.15-4.62.13-5.89.77-.44.22-.85.41-.9.41-.25,0-2.21-2.17-2.1-2.33.18-.29-.04-.22-.3.1m5.99-.14c-.31.31-.1.49.54.46.64-.03.65-.04.1-.12-.32-.05-.53-.18-.46-.28.14-.23.02-.26-.18-.06m94.51-.04c0,.06.37.29.81.52.54.27.85.59.91.94.06.33.02.48-.11.39-.13-.08-.16,0-.08.23.08.2.05.31-.05.25-.17-.11-.53.49-.38.64.16.16,2.57-.73,2.55-.94-.01-.13-.04-.33-.05-.44-.02-.12-.4-.21-.85-.21-.52,0-.86-.11-.93-.3-.11-.29-1.82-1.29-1.82-1.07m2.5.29c.11.21.37.52.58.68.26.21.23.1-.11-.39-.52-.74-.8-.92-.47-.3m-185.27.19c.4.64,1.24.48,1.24-.24,0-.12-.13-.03-.29.2-.29.4-.3.4-.76-.01l-.47-.42.29.47m130.47,6.23l-3.3,6.6,1.3.11c9.27.81,18.49,1.95,19.78,2.44.32.12.59.19.61.16.02-.03.4-.96.85-2.05.82-2.02,3.29-7.16,4.63-9.65.4-.75.79-1.72.86-2.15l.12-.78-2.6-.04c-1.43-.02-6.35,0-10.94.02-5.06.04-8.34-.02-8.34-.14,0-.34.51-.87.95-.97.34-.08.32-.1-.11-.12-.49-.02-.78.48-3.82,6.57m99.73-6.49c0,.14,1.29.78,1.38.68.04-.04-.25-.24-.65-.43-.4-.19-.73-.31-.73-.25m-135.99.32l-.94.15.88.03c.48.02.94-.06,1.01-.18.07-.12.1-.2.06-.18-.03.02-.49.1-1.01.18m41.97.11c.75.16,1.6.28,1.89.27.29,0-.09-.13-.84-.29s-1.6-.28-1.89-.27c-.29,0,.09.13.84.29m129.09,2.08c1.89,3.83,3.12,9.14,3.13,13.47,0,2.18.12,2.5.75,1.99l.44-.36-.36-8.6c-.2-4.73-.37-8.43-.39-8.23-.06.68-3.95.54-4.27-.16-.13-.29-.3-.52-.37-.52s.4,1.08,1.06,2.4m-174.57-2.05c.2.05.53.05.73,0,.2-.05.04-.1-.37-.1s-.57.04-.37.1m68.56.29c-.2.36-.39.43-1.16.37l-.92-.07-.62,1.26c-7.5,15.31-6.75,13.54-5.7,13.54,1.43,0,1.85-.29,2.51-1.73.33-.72,1.76-3.82,3.18-6.88,1.41-3.06,2.7-5.87,2.86-6.24.32-.76.22-.93-.15-.24m72.94-.08c1.15.28.75.52-.74.45l-1.58-.07.7.48c.39.26.81.41.93.34.13-.08.17-.04.09.08-.08.13.18.33.65.48,1.14.36,1.16.42.8,1.99-.38,1.65-.33,1.78.42,1.19.3-.24.88-.54,1.28-.67.88-.29.88-.3-.44-1.71-.58-.61-1.08-1.35-1.11-1.62-.08-.69-.43-1.07-.97-1.04-.42.02-.43.03-.03.12m38.96.38c-.01.35.12,3.04.29,5.98.54,9.49.43,10.66-1.05,11.42-1.21.62-1.65,1.7-2.31,5.68-1.73,10.46-2.85,13.11-7.55,17.91-4.83,4.93-5.52,5.16-15.43,5.16-10.88,0-13.07-.82-16.27-6.02-1.85-3.01-3.14-3.44-3.59-1.2-.84,4.14-1.98,6.96-3.44,8.5-.66.69-1.82,2.11-2.58,3.15-.77,1.04-1.52,2.04-1.68,2.22-.16.18-.35.44-.44.58-.11.18,7.46.24,30.79.24h30.94l.12-.89c.07-.49.18-1.42.25-2.07l.13-1.18-1.23-.46c-.67-.25-2.89-1.03-4.93-1.72-2.75-.93-3.73-1.35-3.8-1.64-.07-.26-.38-.42-1.02-.52-.51-.08-1.23-.19-1.61-.26l-.69-.12,1.04-1.01c3.24-3.16,5.51-8.82,7.13-17.77l.61-3.41.88-.88c1.78-1.78,2.56-4.25,2.57-8.14,0-4.4-.59-14.33-.82-13.69-.17.46-6.09.36-6.21-.11-.05-.2-.1-.08-.12.26m-341.58-.05c-.63,1.9-2.31,13.18-2.94,19.7l-.13,1.38,3.42,1.31c2.77,1.06,11.28,4,11.57,4,.34,0,2.28-4.93,2.01-5.1-.04-.03-1.36-.46-2.91-.96-6.35-2.05-8.18-2.79-8.18-3.3,0-1.4,1.37-10.43,2.23-14.64.28-1.38.46-2.55.4-2.61-.06-.06-.11,0-.11.14,0,.17-.77.24-2.64.24-1.7,0-2.59-.07-2.51-.21.07-.12.07-.21,0-.21s-.16.12-.21.26m213.27-.11c.38.05.99.05,1.36,0,.38-.05.07-.08-.68-.08s-1.06.04-.68.08m77.72-.11c0,.08.36.73.82,1.44.75,1.16,2.1,4.26,2.1,4.81,0,.35.38.26,1.38-.32,2.17-1.27,6.33,2,5.51,4.33-.36,1.02-.11.98,2.82-.49,2.79-1.4,3.96-1.83,5.03-1.83.53,0,.58-.06.58-.84s-.02-.84-.58-.71c-1.8.41-2.43.64-4.17,1.53l-1.92.99-.87-.61c-.78-.54-.86-.67-.74-1.22.23-1.04-.87-2.31-2.89-3.35l-1.21-.62.5-.99c.27-.55.55-1.28.62-1.62.07-.35.07-.51.01-.37-.08.19-.98.26-3.44.26s-3.35-.07-3.43-.26c-.06-.15-.11-.2-.12-.11m8.01.1c.2.05.53.05.73,0,.2-.05.04-.1-.37-.1s-.57.04-.37.1m-62.91.59c-.63,3.05-2.03,22.31-1.73,23.82.29,1.48,1.6,5.57,1.73,5.41.03-.03.16-1.61.3-3.52.14-1.9.76-8.35,1.39-14.31.63-5.97,1.14-11.04,1.14-11.26,0-.63-2.71-.76-2.83-.13m8.23,1.63c-.06.26-.49,1.45-.95,2.64-.57,1.45-.76,2.19-.6,2.24.14.04.62.13,1.08.19,1.06.15,1.79.68,2.28,1.67.39.78.4.78,1.36.64,2.06-.3,4.59-2.27,4.1-3.2-.16-.31-.29-.75-.29-.98,0-.32-.3-.54-1.21-.89-.66-.26-2.15-.99-3.3-1.62-2.4-1.32-2.34-1.31-2.48-.68m77.6,1.28c-7.16,3.36-9.68,23.95-3.61,29.44,5.83,5.27,12,.18,13.5-11.13.61-4.61.03-11-1.15-12.69-.21-.3-.83-1.42-1.38-2.49-1.78-3.46-4.33-4.55-7.36-3.13m-299.76,1.13c-.12.78-.32,2.88-.45,4.67-.22,3.14-.4,4.3-.87,5.49-.12.31-.49,1.87-.81,3.46-.66,3.23-1.62,6.3-2.5,8.04-.32.64-.71,1.53-.86,1.99-.41,1.27-1.8,3.44-3.03,4.72l-1.1,1.15.29.97c.32,1.08,1.84,2.76,3.1,3.45,2.25,1.21-2.56,5.84-6.64,6.39-2.19.29-2.5.54-1.89,1.5.24.38.68,1.14.97,1.67.29.54.81,1.4,1.16,1.92.35.52.64,1.05.64,1.18s.1.23.22.23.72.52,1.33,1.15l1.11,1.15h12.74c13.83,0,13.15.06,12.86-1.11-.12-.49-.55-.62-3.49-1.09-.4-.07-1.11-.19-1.57-.27-.46-.09-1.43-.07-2.15.03-1.09.15-1.4.13-1.85-.16l-.54-.35.85-.62c1.15-.83,1.05-1.27-.75-3.47-1.08-1.31-.73-1.5,2.97-1.59,3.86-.1,5.37-.75,3.49-1.5-.44-.18-1.03-.59-1.31-.91-.28-.32-1.16-1.13-1.96-1.8-1.4-1.16-3.47-3.56-3.47-4.02,0-.12-.28-.82-.63-1.55-1.19-2.52-.94-3.13,1.52-3.61.79-.15,1.49-.46,2.03-.9.46-.37,1.07-.84,1.37-1.04,1.02-.72.46-2.07-1.22-2.91-2.17-1.09-2.26-2.21-.25-3.1,1.56-.68,1.83-1.39.73-1.88-.92-.41-3.09-2.48-3.56-3.39-.22-.43-.62-1.05-.9-1.38-.28-.33-.67-1.08-.89-1.65-.46-1.27-.99-1.9-2.06-2.45-.44-.23-.76-.52-.71-.66.51-1.37.64-2.52.39-3.35-.15-.49-.53-1.83-.86-2.98-.96-3.42-1.11-3.57-1.45-1.42m254.33,1.13c0,.17-.6.56-1.37.9-2.26.98-5.48,5.29-6.77,9.05-3.84,11.21-1.51,23.4,5.19,27.17.72.4,1.44.86,1.61,1.01.56.52,4.37.25,5.75-.41,7.31-3.45,10.85-16.83,7.32-27.68-1.72-5.28-4.1-8.55-7.03-9.65-1.49-.56-4.69-.83-4.69-.4m-115.54,3.03c-.81.55-1.35,1.13-2.07,2.23l-.4.61,1.03-.14c.7-.09,1.4-.03,2.18.2.63.19,6.39,1.23,12.79,2.32,6.41,1.09,16.42,2.8,22.25,3.79,27.58,4.7,25.04,4.31,25.43,3.92,1.01-1.04,4.17-4.73,4.17-4.87,0-.22.32-.17-16.37-2.2-8.14-.99-17.49-2.23-20.78-2.75-14.35-2.27-16.72-2.63-20.64-3.13-5.45-.69-6.56-.69-7.6.02m-4.66,1.4c-.79.72-2.39,2.04-3.55,2.92-2.03,1.55-3.85,3.68-3.85,4.51,0,.24-.12.24-.68-.05l-.68-.35-1.02,1.13c-2.4,2.66-3.11,3.54-2.84,3.54.82,0,1.79-.5,2.66-1.38.54-.54,2.16-1.93,3.6-3.09,4.8-3.85,7.45-6.49,7.96-7.95.3-.88,0-.74-1.6.72m-88.87.41c.4.4.31.54-.49.8-.88.29-1.36.16-1.36-.38,0-.7,1.28-.99,1.85-.42m91.75,3.24v1.12h1.21c1.49,0,4.26.41,8.24,1.22,1.67.34,3.75.73,4.62.87,2.96.47,33.89,6.31,36.62,6.92,7.78,1.73,9.44,1.66,10.38-.46l.4-.9-2.71-.25c-1.49-.13-4.76-.63-7.28-1.09-4.66-.86-17.6-3.03-36.48-6.1-5.77-.94-11.51-1.88-12.75-2.08l-2.26-.38v1.12m146.9-.94c-1.88.3-3.45,1.12-3.53,1.84-.07.64-.07.64-1.38.64h-1.32l-.36,1.29c-.2.71-.31,1.33-.26,1.38.14.15,2.26-1.28,2.85-1.91.36-.39,1.15-.75,2.62-1.21,2.45-.75,2.48-.77,2.39-1.57-.07-.6-.09-.6-1.01-.46m-66.8.17c-.16.43-.56,2.47-.56,2.84,0,.17.18.3.39.3,1.39,0,4.77,2.46,6.87,5l1.1,1.34-.66,1c-.36.55-1.04,1.24-1.5,1.54l-.84.54-1.27-1.32c-1.08-1.12-4.39-3.29-4.62-3.02-.16.19-.29,1.99-.16,2.18.08.12,1.28.96,2.66,1.87,1.38.91,3.2,2.31,4.05,3.09,2.04,1.89,2.4,1.74,1.28-.5-.41-.83-.47-1.38-.26-2.47.15-.72.18-.74,1.41-.95.55-.09,1.12-.43,1.78-1.04,1.45-1.35,6.21-3.47,7.77-3.47.42,0,.65-2.39.25-2.61-.07-.04-2.01.81-4.32,1.87l-4.2,1.94-.63-.48c-.35-.26-.89-.54-1.21-.62-.84-.21-.82-1.42.06-2.52.79-.99.73-1.05-.65-.64-1.43.43-1.35.44-1.86-.39-.52-.84-1.62-1.58-2.35-1.58-.67,0-1.87-.9-2.18-1.63-.18-.42-.28-.49-.36-.26m38.35.76c.9.35.15,1.12-1.1,1.13h-.49s.45-.63.45-.63c.47-.66.59-.71,1.14-.5m-111.85,3.14c.26.62,1.93,6.06,3.15,10.27,1.86,6.41,1.88,6.44,6.07,7.75,6.53,2.04,15.59,4.78,19.84,5.99,2.47.71,5.15,1.56,5.95,1.91.8.34,1.49.62,1.53.62.1,0,13.79-15.43,14.61-16.46.32-.41.35-.56.14-.63-.59-.2-27.72-5.2-34.28-6.32-9.56-1.63-15.27-2.78-16.77-3.37-.34-.13-.38-.09-.24.24m159.38.94c.74,1.65.12,2.26-1.64,1.65q-.67-.23-.27-.68c.22-.25.56-.75.75-1.13.45-.9.7-.86,1.15.16m-20.3,1.89c-3.49,1.24-5.07,2.38-5.45,3.94-.26,1.09-.35,1.11,2.28-.48,1.81-1.09,3.54-1.79,4.42-1.79.32,0,.38-.18.38-1.05,0-1.19-.02-1.2-1.64-.62m-28.29,4.24c.7,1.1.09,2.76-1.89,5.09-1.49,1.76-1.51,1.72-1.53-2.39v-3.02s.56.1.56.1c.32.05.86.03,1.21-.05,1.08-.26,1.35-.22,1.66.27m-22.64,2.14c-.66.2-.85.37-.9.8-.07.6-.44.79-2.41,1.29-1.49.38-2.41,1.05-3.54,2.61q-2.14,2.95-4.42,1.33c-1.79-1.27-2.41-1.63-3.79-2.21l-.8-.33-.44.99c-.8,1.81-.74,4.22.21,7.82l.8,3.04,1.09.06,1.09.06v-.96c0-.53.05-.96.1-.96.38,0,3.27,1.25,4.89,2.11,2.32,1.24,2.05,1.22,2.55.23,1.07-2.1,4.49-4.21,8.04-4.95,1.1-.23.61-2.78-.52-2.7-1,.07-4.57,1.6-5.42,2.33-.93.8-1.42.76-2.75-.19l-.64-.46.15.5c.08.28.33.86.55,1.3l.4.79-.53,1.04-.53,1.04-1.01-.38c-.56-.21-1.43-.67-1.94-1.02-1.44-.99-2.62-1.53-3.66-1.67-.74-.1-.97-.23-1.04-.57-.05-.24-.19-1.06-.32-1.81-.13-.75-.37-1.81-.53-2.36-.45-1.54.73-1.29,3.62.78,2.38,1.7,3.21,1.59,5.45-.74,2.6-2.71,4.85-4,7.52-4.31l1.15-.13v-2.67l-.79.02c-.43.01-1.16.14-1.63.28m49.95.61c-1.66.77-3.21,2.34-3.67,3.7-.57,1.68.16,1.55,2.52-.44,1.04-.88,2.5-1.45,3.71-1.45,1.05,0,.79-1.41-.38-2.01-.77-.4-.94-.38-2.17.19m-265.72.6c.07.26.13.69.13.95,0,.57.44.61.91.09.51-.56.44-.76-.41-1.16l-.76-.36.13.48m164.49,2.97l2.24.45-1.79,1.99c-2.11,2.35-1.91,2.24-2.81,1.59-.4-.29-1.17-.76-1.71-1.06-1.66-.89-1.67-2.26,0-2.99,1.25-.55,1.34-.55,4.08,0m102.01,3.1c-.49.24-1.32.91-1.84,1.49-1.54,1.71-1.3,1.81,1.4.57,1.12-.52,2.31-.9,3.01-.97,1.22-.13,1.36-.3.83-1.06-.44-.63-2.14-.65-3.4-.02m-136.02,4.43l-2.32,3,1.32.24c.72.13,2.35.64,3.61,1.12,8.23,3.15,19.05,7.15,20.98,7.76.81.25,1.61.52,1.78.59.17.07.36.14.42.16.06.02.38.15.71.29.33.14.63.22.66.19s.64-.86,1.36-1.84c.72-.98,1.41-1.88,1.54-2,.83-.74,2.86-3.04,2.86-3.23,0-.13-.21-.23-.47-.23-.83,0-2.12-.39-29.78-8.93-.25-.08-.97.7-2.67,2.89m-8.63,3.76c-2.13.17-7.64.58-19.73,1.45-3.17.23-7.52.65-9.65.94-2.14.29-4.31.55-4.83.58-1.37.08-1.57,1.4-.27,1.79.88.27,4.99,2.51,7.24,3.95.79.51,1.43.86,1.43.79s.12-.03.26.08c.14.12,1.11.66,2.15,1.2,1.04.54,1.98,1.07,2.09,1.17.11.11,5.55.19,12.53.19h12.33l.24-.47c.13-.26.6-.85,1.03-1.31.44-.46.85-1.05.93-1.31.15-.48.22-.47,1.34.29.41.28-.88,2.39-1.46,2.39-.21,0-.43.09-.5.21-.09.14,4.54.21,13.71.21h13.84l.86-.88c.99-1.02,1.03-.97-1.28-1.73-7.95-2.64-16.04-5.53-18.11-6.47-6.81-3.1-8.68-3.51-14.17-3.06m79.4,2.54c.19,2.18,1.18,6.47,1.72,7.52.17.33.24.61.16.61s-.04.11.1.25c.14.14.25.47.25.74v.48h6.97l-.65-.74c-.81-.92-1-1.64-.64-2.37.16-.31.32-.63.36-.72.04-.09-.15-.16-.43-.16-1.9,0-3.65-2.25-3.36-4.32.1-.72-1.6-1.91-3.54-2.49l-1.08-.32.14,1.52m15.4-1.29c-1.94.46-3.49,1.73-4.03,3.3-.43,1.26-.43,2.56,0,2.56.23,0,.32-.24.32-.95,0-.64.09-.94.27-.94.15,0,.6-.25,1-.55,1.39-1.05,3.07-1.64,5.92-2.08.73-.11.79-.17.79-.85v-.72l-1.73.02c-.95.01-2.09.1-2.52.21m-189.87,4.71c0,.54-.62.82-.99.45-.57-.57,0-1.61.58-1.08.23.21.41.49.41.63m3.1.85c.06.91-.19,1.48-.56,1.26-.25-.15-.32-1.34-.1-1.89.23-.59.6-.22.66.64m191.6-.3c-.44.09-1,.3-1.26.46-.26.16-1.1.5-1.87.75-1.53.5-2.48,1.27-2.48,2.02,0,.26-.07.65-.14.85-.12.3.05.26.89-.23,2.28-1.34,3.98-2.05,5.67-2.4l1.77-.36-.58-.53c-.75-.69-1.04-.77-2-.56m-142.56,1.38c.48.43,1.11.98,1.39,1.21.75.62,2.68,1.78,2.96,1.78.13,0,.18.06.1.14-.44.44-2.92.23-4.6-.39-.96-.35-2.02-.69-2.37-.75-1.19-.21-1.44-.53-.93-1.18.35-.44,2.06-1.54,2.48-1.59.04,0,.47.35.96.78m29.29-.06c-.35.2-.64.23-.89.09-.57-.31-.45-.39.52-.39.87,0,.88.01.37.3m7.55.93c.71.2.69.83-.06,1.52-1.01.94-1.34.9-1.61-.18-.33-1.31.21-1.75,1.67-1.34m-23.35,16.54c.37.05,1.03.05,1.47,0,.44-.05.13-.08-.68-.08-.81,0-1.17.04-.79.08m142.29,0c.37.05,1.03.05,1.47,0,.44-.05.13-.08-.68-.08-.81,0-1.16.04-.79.08m11.86.83c.2.05.53.05.74,0s.04-.1-.37-.1-.57.04-.37.1m-305.95.56c-.06.16-.07.89-.03,1.63l.07,1.34.04-1.52.04-1.52,13.59-.06,13.59-.06-13.6-.05c-11.28-.04-13.61,0-13.7.23m56.03,0c-.28.72.01,2.96.39,3,.26.02.28,0,.05-.07-.24-.08-.32-.43-.32-1.55v-1.45l22.82-.05,22.82-.05-22.83-.05c-19.05-.04-22.85,0-22.94.23m282.22-.13l14.42.06.07,1.62.07,1.62.04-1.73.04-1.73-14.53.05-14.53.05,14.42.06m29.17,1.57l.04,1.73.07-1.62.07-1.62,11.27-.06,11.27-.06-11.38-.05-11.39-.05.04,1.73m-37.5,3.93c.45.46.87.84.92.84s-.26-.38-.71-.84c-.45-.46-.87-.84-.92-.84s.26.38.71.84m-176.23.36c.49.04,1.25.04,1.68,0,.43-.04.03-.08-.9-.08-.92,0-1.28.04-.78.08m141.65,0c.49.04,1.29.04,1.78,0,.49-.04.09-.08-.89-.08s-1.38.04-.89.08m86.82.95l-.62.68.68-.62c.64-.57.78-.75.62-.75-.04,0-.34.31-.68.68M13.58,239.72c0,10.33.03,14.56.06,9.39.03-5.17.03-13.62,0-18.78-.03-5.16-.06-.94-.06,9.39m273.86-17.16l-.62.68.68-.62c.64-.57.78-.75.62-.75-.04,0-.34.31-.68.68m32.65.22s.31.34.68.68l.68.62-.62-.68c-.57-.63-.75-.78-.75-.62m-208.19,1.88c.87.93,1.06,1.09,1.06.94,0-.03-.45-.48-1-1l-1-.93.94,1m-27.01,2.19c.2.05.53.05.73,0,.2-.05.04-.1-.37-.1s-.57.04-.37.1m9.13,0c.26.05.64.05.84,0,.2-.05-.01-.09-.47-.09-.46,0-.63.05-.36.1m76.74,1.82c-.22.56,0,2.93.29,2.99.15.03.17,0,.05-.05-.12-.06-.22-.76-.22-1.56v-1.45l12.65-.06,12.64-.06-12.65-.05c-10.49-.04-12.67,0-12.76.23m-86.18,4.69c.38.05.99.05,1.36,0,.38-.05.07-.08-.68-.08s-1.06.04-.68.08m55.94,2.79c0,.75.04,1.06.08.68.05-.38.05-.99,0-1.36-.05-.38-.08-.07-.08.68m141.45,2.1c0,.98.04,1.38.08.89.04-.49.04-1.29,0-1.78-.04-.49-.08-.09-.08.89m-156.56.52c0,1.04.04,1.49.08,1s.04-1.34,0-1.89c-.04-.55-.08-.15-.08.89m231.29,12.28c0,4.79.03,6.75.06,4.36.03-2.4.03-6.32,0-8.71-.03-2.4-.06-.43-.06,4.35m-134.77-6.77c.32.05.79.05,1.05,0,.26-.05,0-.09-.58-.09-.58,0-.79.04-.47.09m87.3,18.89c.32.05.84.05,1.15,0,.32-.05.06-.09-.58-.09s-.89.04-.58.09m-112.89,4.15c0,.92.04,1.27.08.78.04-.49.04-1.25,0-1.68s-.08-.03-.08.9m70.93,0c0,.92.04,1.27.08.78.04-.49.04-1.25,0-1.68-.04-.43-.08-.03-.08.9m-172.21,24.81c.26.05.64.05.84,0,.2-.05-.01-.09-.48-.09-.46,0-.63.05-.36.1m82.27,0c.26.05.64.05.84,0,.2-.05-.01-.09-.48-.09-.46,0-.63.05-.36.1m-107.35-108.5c.2.05.53.05.74,0,.2-.05.04-.1-.37-.1s-.57.04-.37.1m209.44,7.41c0,.4.04.57.1.37.05-.2.05-.53,0-.73-.05-.2-.1-.04-.1.37m98.43,3.46c0,.46.04.63.09.37.05-.26.05-.64,0-.84-.05-.2-.09.01-.09.47m-184.77.47c-.41.43-.86,1-.99,1.26l-.24.47h-24.55l-.78-.49c-.82-.51-1.52-.82-1.52-.67,0,.25,4.59,2.49,5.79,2.83,1.11.31,1.57.57,2.16,1.22.82.9,1.46,1.28,3.27,1.96,1.46.54,7.63,3.99,13.96,7.79,5.51,3.31,8.44,4.9,11.14,6.05,1.07.46,2.51,1.27,3.19,1.8,1.15.91,2.9,1.76,3.62,1.76.27,0,.31-.47.26-3.2l-.06-3.2.67-1.26c.37-.69,1.78-2.54,3.15-4.1,6.86-7.86,9.3-10.7,9.3-10.84,0-.08-.11-.04-.25.1-.33.33-27.97.37-27.76.04.07-.12.3-.21.5-.21.38,0,1.07-.62,1.07-.96,0-.1-.15.02-.33.28-.18.26-.51.47-.73.47s-.61.28-.87.63c-.48.65-1.23.85-1.23.34,0-.16.14-.41.31-.55.17-.14.31-.36.31-.49s.35-.59.78-1.02c.43-.44.73-.8.67-.8s-.44.35-.86.79m88.94-.13c-.17.87,0,1.04.18.18.08-.36.1-.7.05-.76-.05-.05-.16.2-.23.57m34.18.81c-.21.23-.27.42-.15.42s.34-.19.46-.42c.12-.23.19-.42.14-.42s-.25.19-.46.42m-39.89.38l.62.67h-3.52c-3.27,0-3.51.03-3.38.37.74,1.91,2.48,7.73,2.57,8.58.15,1.46-.08,1.58-4.24,2.27-1.85.31-4.35.78-5.56,1.06s-4.85,1.07-8.08,1.76c-3.23.69-7.76,1.68-10.07,2.2-2.31.52-8.87,1.95-14.58,3.17-12.31,2.64-15.57,3.41-18.32,4.3-2.76.9-5.3.06-10.75-3.57-.81-.54-5.76-3.33-11.01-6.19-5.25-2.87-10.02-5.57-10.6-6.01-.58-.44-2.16-1.37-3.51-2.07-1.35-.7-4.23-2.27-6.4-3.49-2.17-1.22-4.07-2.23-4.21-2.23-.14,0-.26-.08-.26-.16s-.15-.21-.33-.28c-.19-.07-.27-.04-.2.08.08.14-15.5.21-45.53.21-42.96,0-45.66-.02-45.66-.36,0-.2-.23.06-.51.58-.49.9-.64,1.2-1.66,3.35-.53,1.12-4.81,5.46-5.38,5.46-.21,0-.95-.42-1.64-.93-3.11-2.29-3.45-6.42-.54-6.42,1.33,0,2.61-.56,2.94-1.29l.22-.49-12.83.06-12.83.06.68.62c.37.34.94.67,1.26.74,2.14.44,2.58,2.58,1,4.81-.4.57-.74,1.15-.74,1.3,0,.3-2.12,2.79-2.6,3.06-.57.32-1.35-.03-1.42-.64-.06-.55-.09-.56-2.06-.68-2.09-.13-1.99-.1-8.22-2.51-3.15-1.22-2.92-1.23-2.68.12.1.58.24,1.36.31,1.73l.12.68H2.15v12.78l.68.11c.38.06,1.58.22,2.67.35,1.1.13,2.2.32,2.47.42l.47.18v10.24c0,5.63.06,12.71.14,15.74l.14,5.51h4.77l-.06-16.32c-.05-15.2-.08-16.38-.44-17.16-.76-1.68-2.1-2.64-4.55-3.23l-1.36-.33v-3.15l13.59-.05,13.59-.05v3.3l-1.26.13c-2.93.31-4.28,1.55-4.81,4.43-.15.82-.23,6.47-.23,16.84v15.6h4.76l.14-1.61c.07-.88.14-5.01.15-9.18v-7.58s1.44,4.09,1.44,4.09c1.62,4.65,2.82,7.74,3.94,10.18.42.92,1.01,2.22,1.31,2.88l.54,1.2h8.56c5.65.02,8.52.09,8.43.23-.07.11-.08.21-.03.21.17,0,2.43-3.17,3.32-4.65l.83-1.4,1.72.76c.94.42,1.74.78,1.78.8.05.03-.98,2.66-1.55,3.97-.06.14,1.01.19,3.06.15l3.15-.06v-15.57c0-16.97-.05-17.71-1.16-19.17-.67-.88-2.27-1.71-3.96-2.06l-1.28-.26v-3.11l23.4-.04c25.92-.05,23.88.05,25.87-1.24.8-.52,1.5-.9,1.54-.86.1.1,5.51,20.17,5.45,20.23-.02.02-.84.22-1.81.43l-1.77.39-.9-1.54c-3.93-6.72-13.11-10.98-23.63-10.97-5.96,0-7.12.97-7.24,6l-.07,3.17,1.44.14c1.91.18,7.32.15,9.41-.05,2.85-.27,3.97-1.12,4.42-3.37l.23-1.16,1.77-.77c.97-.42,1.79-.75,1.81-.73.08.07,4.69,21.59,4.63,21.63-.2.16-3.57,1.18-3.64,1.1-.05-.05-.33-.68-.61-1.4-2.6-6.63-5.5-8.26-15.27-8.56l-4.14-.13v17.9h16.93c16.25,0,16.92.01,16.63.38-.16.21.06,0,.48-.47.43-.47,1.4-1.8,2.17-2.95l1.4-2.1,1.87.31c2.17.36,2.11.19,1.03,2.85-.46,1.14-.84,2.07-.84,2.08,0,0,1.08-.01,2.39-.05l2.39-.06-.7-1.51c-4.77-10.37-2.22-24.02,5.9-31.6,6.92-6.46,19.17-9.48,32.12-7.92,2.51.3,6.82.63,10.78.83.76.04,5.17,2.14,6.26,2.99.06.04,2.05,8.86,2.85,12.6l.14.65-2.05.27c-1.56.21-2.07.21-2.13.02-.05-.14-.47-.84-.96-1.55-7.45-11.16-27.62-12.21-36.14-1.88-5.23,6.35-5.21,18.36.06,26.31l.53.81h31.84v-6.45c-.01-10.6-.52-11.91-4.99-12.93l-1.21-.27v-3.11l12.65-.05,12.64-.05v3.31l-1,.14c-2.06.28-3.47,1.38-3.84,2.98-.11.46-.17,6.71-.15,14.15.02,7.33.07,10.85.1,7.81l.06-5.51,8.57.06,8.57.06,5.94-13.27c3.67-8.2,6.07-13.31,6.28-13.37.66-.21,9.98-2.19,10.03-2.14.03.03-1.44,3.37-3.27,7.43-3.65,8.08-3.54,7.61-1.62,7.61,2.79,0,7.63,1.27,11.18,2.93.99.47,1.83.82,1.85.79.02-.03-1.74-4.25-3.92-9.37-2.18-5.12-3.91-9.37-3.84-9.44.21-.21,12.99-2.91,13.14-2.77.07.07,3.04,7.18,6.6,15.81l6.47,15.68,6.75.06,6.75.06-.79-1.57c-5.91-11.76-2.5-26.47,7.78-33.51,7.88-5.4,18.79-7.41,32.3-5.94,7.76.84,8.86.55,11.06-2.88.4-.62.76-1.1.8-1.06.16.16,5.93,20.42,5.85,20.55-.18.28-3.53,1.51-3.59,1.31-2.95-8.84-18.98-13.92-30.4-9.63-11.3,4.24-15.46,20.32-8.15,31.53.62.95,1.19,1.73,1.26,1.73s.02-.14-.13-.31c-.23-.28,2.26-.32,22.18-.32,17.4,0,22.5-.06,22.7-.26.26-.26,4.48-1.67,4.61-1.54.04.04-.12.46-.37.93l-.44.86h21.2v-8.88l-9.06-12.08q-11.44-15.25-14.98-15.81l-1.57-.25v-3.26h28.96v3.36h-.83c-3.89,0-4.87,1.64-3.09,5.17.51,1.02,9.29,13.29,10.53,14.72.14.16,10.68-14.27,11.32-15.5,1.68-3.18.95-4.39-2.63-4.39h-.83v-3.36h22.67v3.36h-.58c-1.98.01-4.83,1.43-6.92,3.46-1.46,1.42-2.44,2.71-14.08,18.7l-4.45,6.11.05,8.27c.03,4.55.07,6.5.11,4.33l.06-3.93h4.82v-7.16l.6-.77c.33-.43,2.39-3.23,4.58-6.23,13.84-19.01,12.56-17.73,17.84-17.73h3v-13.43h-12.82c-12.11,0-12.81-.02-12.71-.37.23-.75,1.2-9.12,1.11-9.56-.07-.38-.09-.36-.12.12l-.03.58h-30.97c-24.71,0-30.94-.05-30.82-.26.08-.14-.32.18-.88.71-1.25,1.18-1.29,1.2-4.35,2.26-2.62.9-4.85,1.28-7.6,1.28-.93,0-3.34.15-5.36.32-3.06.27-4.36.29-7.92.09l-4.26-.24-3.69-1.77c-2.36-1.13-4.12-2.13-4.87-2.76-.82-.68-.99-.77-.56-.31m-236,.11c.53.59.65.66.64.4,0-.09-.26-.34-.58-.56l-.57-.4.51.56m179.55,51.6c-.81,1.86-1.49,3.44-1.52,3.51-.03.07,4.98.09,11.12.06l11.17-.06-.89-.78c-3.98-3.49-11.22-6.14-16.72-6.12h-1.7s-1.47,3.39-1.47,3.39m21.83,4.58c.57.58,1.08,1.05,1.14,1.05s-.36-.47-.93-1.05c-.57-.58-1.08-1.05-1.14-1.05s.36.47.93,1.05m-185.53.47l-.62.68.68-.62c.64-.58.78-.75.62-.75-.04,0-.34.31-.68.68m59.51.89c-.51.52-.88.95-.82.95s.52-.43,1.03-.95c.51-.52.88-.94.82-.94s-.52.43-1.03.94m31.79.32c.69.69,1.29,1.26,1.35,1.26s-.46-.57-1.14-1.26c-.68-.69-1.29-1.26-1.35-1.26s.46.57,1.14,1.26m141.13.07s.31.34.68.68l.68.62-.62-.68c-.58-.64-.75-.78-.75-.62m38.4,2.14c-.86.86-1.52,1.57-1.46,1.57s.81-.71,1.67-1.57c.86-.87,1.52-1.57,1.46-1.57s-.81.71-1.67,1.57m-51.22,2.05c.87.93,1.06,1.09,1.06.93,0-.03-.45-.48-1-1l-1-.94.94,1m-183.14,4.09c.55.04,1.4.04,1.89,0s.03-.08-1-.08c-1.04,0-1.44.04-.89.08m-85.6,3.49c-.06.15-.08.93-.05,1.73l.06,1.45h21.83s21.83,0,21.83,0l-21.77-.05-21.77-.06v-1.55c0-1.05.09-1.59.26-1.66.21-.08.2-.11,0-.12-.15,0-.32.11-.38.27m56.04,1.5v1.68s22.26,0,22.26,0h22.25s-22.18-.05-22.18-.05l-22.19-.06-.07-1.62-.07-1.63v1.68m133.02.05l-.04,1.52-16.63.06c-9.15.03-3.74.05,12.01.05s23.29-.02,16.75-.06l-11.9-.05-.07-1.52-.07-1.52-.04,1.52m51.74,1.68c3.61.03,9.51.03,13.12,0,3.61-.03.66-.06-6.56-.06s-10.16.03-6.56.06m109.25,0c3.79.03,9.93.03,13.64,0,3.71-.03.61-.06-6.89-.06s-10.54.03-6.75.06m-36.32.41c.2.05.53.05.73,0,.2-.05.04-.1-.37-.1s-.57.04-.37.1m-12.27.64c.49.04,1.25.04,1.68,0,.43-.05.03-.08-.9-.08-.92,0-1.28.04-.78.08m-215.96,22.03c.37.05,1.03.05,1.47,0,.44-.05.13-.08-.68-.08-.81,0-1.16.04-.79.08m82.27,0c.37.05,1.03.05,1.47,0,.43-.05.13-.08-.68-.08s-1.16.04-.79.08m-84.15,1.67c.26.05.68.05.94,0,.26-.05.05-.09-.47-.09s-.73.04-.47.09m82.27,0c.26.05.68.05.94,0,.26-.05.05-.09-.47-.09s-.73.04-.47.09"/>
  <path id="path0" class="cls-2" d="m320.97,207.75c-2.25,3.28-2.95,3.43-11.95,2.57-20.03-1.93-34.65,4.13-39.73,16.47-6.76,16.42,2.73,34.17,21.53,40.28,8,2.6,15.37,3.32,26.02,2.55,7.2-.52,7.49-.48,8.69,1.33l.57.85,4.99-11.02c2.75-6.06,4.95-11.07,4.89-11.13-.06-.06-1.04.18-2.18.54l-2.08.64-1.04,1.42c-4.35,5.92-9.39,9.29-15.63,10.45-15.79,2.92-31.92-8.25-33.06-22.87-.51-6.64,1.66-13.41,5.56-17.31,8.93-8.93,28.65-6.89,35.43,3.66.54.84,1.08,1.68,1.2,1.86.25.4,3.46-.79,3.46-1.29,0-.28-5.65-20.01-5.77-20.15-.03-.04-.44.48-.9,1.15m-207.81,1.66c-.4.31-1.3.83-1.99,1.16l-1.26.61h-46.69v2.9l1.07.23c2.46.53,3.99,1.58,4.75,3.27.54,1.21.7,41.74.17,43.84-.63,2.51-2.24,3.9-4.75,4.08l-1.24.09v3.31h24.56c18.11-.01,24.68.05,25.03.23.26.13,1.01.71,1.67,1.28l1.21,1.04.19-.51c.11-.28,2.28-5.78,4.83-12.22,2.55-6.44,4.59-11.75,4.53-11.81-.12-.12-2.76-.65-3.29-.66-.21,0-.89.81-1.71,2.04-6.31,9.48-14.86,13.97-26.59,13.99-5.49,0-7.89-.59-9.06-2.23l-.49-.69-.06-13.06-.06-13.06h.48c12.42.08,16.1,1.71,18.79,8.37.4.99.75,1.83.77,1.86.16.19,3.57-1.19,3.54-1.44-.26-1.92-4.6-21.17-4.77-21.16-.53.02-3.38,1.59-3.41,1.88-.25,2.06-.82,2.94-2.37,3.65-.99.46-10.45.8-12.33.45l-.73-.14.07-3.29c.12-5.44,1.11-6.1,8.78-5.84,10.26.34,18.78,4.58,22.24,11.06.77,1.44.48,1.37,3.21.79,1.28-.27,1.91,2.7-4.32-20.38-.02-.09-.37.09-.78.39m41.87.65c-.35.04-1.53.18-2.62.3-14.43,1.64-23.84,9.48-26.39,21.98-.64,3.13-.52,10.43.22,13.15,2.98,11.07,14.41,20.03,28.77,22.56,4.39.77,6.37.84,23.87.84h17.19v-2.9l-1.42-.43c-3.77-1.15-3.65-.53-3.57-17.38.07-15.6-.06-14.4,1.63-15.55.64-.43,1.14-.61,2.78-.98.56-.13.58-.17.58-1.6v-1.46h-25.18v1.46c0,1.43.01,1.47.58,1.59,3.44.76,4.79,2.02,5.3,4.94.36,2.07.18,21.02-.21,22.08-2.04,5.58-15.65,4.96-24.76-1.14-13.31-8.91-15.37-28.42-3.86-36.63,10.11-7.21,27.09-4.36,33.12,5.56.43.71.84,1.28.9,1.28.16,0,2.75-.41,3.33-.53.43-.09.42-.2-.86-5.92-.72-3.21-1.37-6.13-1.46-6.5-.21-.96-5.05-3.66-6.71-3.75-5.66-.3-8.85-.53-11.24-.8-2.51-.29-8.2-.4-9.97-.2m-147.85,2.67v1.55l1,.14c2.42.34,4.25,1.71,5.01,3.79.46,1.24.72,36.59.31,41.17-.38,4.15-1.27,5.27-4.85,6.08l-1.46.33v3.1l22.19.06c24.85.06,22.51-.09,24.56,1.58,1.12.91.34,2.35,5.68-10.56,2.53-6.11,4.74-11.47,4.93-11.91l.33-.8-1.32-.59c-2.24-1-2.16-1.01-2.81.1-4.88,8.28-11.67,13.4-19.87,14.98-7.44,1.43-11.53,1.06-12.52-1.12-.46-1.02-.63-40.18-.18-42.28.52-2.4,2.1-3.75,4.69-4l1.28-.12.06-1.52.06-1.52H7.18v1.55m323.82,0v1.54l1.38.11c3.56.28,3.36.08,15.31,16l9.13,12.17-.08,9.23c-.1,12.49-.38,13.26-4.91,13.71l-1.42.14-.06,1.63-.06,1.63h27.09v-3.3l-1.44-.1c-4.35-.31-4.85-1.81-4.85-14.56v-8.42s8.31-11.4,8.31-11.4c4.57-6.27,8.69-11.85,9.15-12.4,1.93-2.29,5.03-4.12,7.31-4.33l1.26-.11v-3.09h-22.46v3.15h1.21c4.46.02,4.1,2.11-1.74,9.97-1.8,2.42-4.19,5.65-5.3,7.18-1.12,1.53-2.11,2.75-2.2,2.73-.43-.12-9.9-13.22-10.65-14.73-1.78-3.58-.97-5.14,2.68-5.14h1.1v-3.15h-28.75v1.54m-93.6,8.41c-3.29.72-6.09,1.35-6.23,1.4-.16.06,1.18,3.44,3.72,9.43,2.18,5.14,3.97,9.41,3.97,9.5,0,.09-.76-.22-1.7-.69-3.32-1.67-7.67-2.86-11.26-3.08-1.07-.07-1.94-.15-1.94-.2s1.47-3.35,3.26-7.35c1.79-4,3.21-7.31,3.16-7.37-.09-.09-10.02,1.99-10.09,2.11-.01.03-1.57,3.49-3.46,7.71-9.35,20.89-12.07,26.86-12.86,28.21-1.76,3.02-4.14,4.74-6.57,4.74h-.94v3.36h23.52l-.06-1.63-.06-1.63-1.39-.14c-1.48-.15-2.08-.38-2.88-1.1-1.89-1.71-1.52-3.48,2.75-13.25l3.03-6.93,1.87.06c5.17.17,10.18,1.8,14.71,4.8,8.61,5.7,10.98,14.72,4.33,16.5l-.91.24v3.06h25.81v-3.36h-.68c-1.55-.03-3.32-1.07-4.29-2.53-.3-.45-4.48-10.34-9.3-21.97-7.15-17.26-8.83-21.15-9.15-21.18-.22-.02-3.09.56-6.38,1.27m9.19,63.73c-9.17,1.34-14.59,10.19-10.87,17.75,6.05,12.31,29.8,8.19,29.8-5.17,0-8.43-8.54-14.1-18.92-12.58m58.91-.02c-3.02.46-7.03,2.64-7.03,3.84,0,.04-.1.61-.22,1.26-.66,3.56,1.41,5.21,9,7.18,8.26,2.14,9.71,3.07,9.42,6.02-.39,4.07-8.3,6.02-13.64,3.37-1.93-.96-4.44-3.4-5.29-5.14-.71-1.46-1.04-1.57-.64-.21.16.55.68,2.41,1.15,4.14.47,1.73.9,3.3.96,3.49.09.31.18.31,1,.02.86-.31,1.01-.3,3.3.28,10.4,2.62,20.36-3.64,16.93-10.64-1.28-2.61-2.84-3.41-10.12-5.21-7.98-1.97-9.19-2.87-6.93-5.13,3.1-3.1,11.82-.87,14.16,3.62.52,1.01.44.18-.32-3.25-.9-4.08-.77-3.77-1.39-3.35-.62.43-1.2.42-4.27-.09-2.58-.43-4.24-.48-6.09-.21m-202.31.21c-.23.1-4.95.19-10.49.21-9.23.03-10,.06-9.18.35,1.89.67,1.83.32,1.9,11.14.07,11.32-.03,11.96-2.05,12.36-2.13.43.11.53,10.01.47,5.86-.04,10.78.01,10.93.11.43.27.53.08,2.25-4.28.88-2.25,1.65-4.21,1.71-4.36.26-.66-.38-.16-.96.74-2.95,4.6-9.9,7.31-14.98,5.84-2.1-.61-2.05-.43-2.05-7.71v-6.27h.47c5.99.08,7.94.81,9.23,3.48.78,1.61.75.83-.15-3.19-.9-4.03-1.13-4.57-1.48-3.39-.41,1.37-2.91,1.95-6.7,1.54l-1.37-.15v-1.74c0-2.72.69-3.26,4.15-3.26,4.42,0,8.8,1.78,10.4,4.22,1,1.54,1.02,1.29.12-2.07-.46-1.7-.88-3.35-.95-3.67-.13-.62-.17-.64-.81-.37m35.92,2.36c-.42,1.42-.91,3.02-1.07,3.57-.38,1.25-.11,1.28.6.08,1.53-2.61,4.69-4.11,8.68-4.12h1.1s0,10.08,0,10.08c0,11.77-.07,12.17-2.3,12.17-.24,0-.43.1-.43.21,0,.13,1.85.21,5.14.21s5.14-.08,5.14-.21c0-.11-.18-.21-.41-.21-2.19,0-2.21-.08-2.27-11.91l-.06-10.34h1c4.48,0,7.1,1.4,9.45,5.02.3.46.06-.63-.78-3.55-.96-3.33-1.01-3.46-1.49-3.36-.82.17-20.61.12-21.09-.06-.41-.15-.49.02-1.21,2.41m46.35-2.36c-.23.1-4.95.19-10.49.21-9.23.03-10,.06-9.18.35,1.89.67,1.83.32,1.9,11.14.07,11.32-.03,11.96-2.05,12.36-2.13.43.11.53,10.02.47,5.86-.04,10.78.01,10.93.11.43.27.53.08,2.25-4.28.88-2.25,1.66-4.21,1.71-4.36.26-.66-.38-.16-.96.74-2.95,4.6-9.9,7.31-14.98,5.84-2.1-.61-2.05-.43-2.05-7.71v-6.27h.47c6,.08,7.94.81,9.23,3.48.78,1.61.74.83-.15-3.19-.9-4.03-1.13-4.57-1.48-3.39-.41,1.37-2.91,1.95-6.7,1.54l-1.37-.15v-1.74c0-2.72.69-3.26,4.15-3.26,4.41,0,8.8,1.78,10.4,4.22,1,1.54,1.02,1.29.12-2.07-.46-1.7-.88-3.35-.95-3.67-.13-.62-.17-.64-.81-.37m-74.94.54c1.9.7,2.62,1.39,6.26,5.96,1.97,2.48,3.59,4.62,3.6,4.76.08.95-9.91,12.31-11.16,12.68-1.63.49-.9.62,3.53.62,4.09,0,5.37-.17,3.8-.52-1.48-.33-1.62-1.47-.44-3.48.92-1.56,5.67-7.56,5.89-7.43.27.17,5.76,7.25,6.25,8.07.89,1.47.26,2.94-1.26,2.94-.33,0-.6.1-.6.21,0,.14,2.06.21,5.77.21,5.31,0,6.73-.14,5.2-.51-1.31-.32-2.24-1.31-7.29-7.77l-5.18-6.63,3.13-3.72c3.24-3.85,4.11-4.62,5.98-5.29l1.11-.39-4.41-.02c-4.33-.01-4.39,0-3.67.35,1.38.69,1.2,1.32-1.3,4.45-1.19,1.49-2.22,2.72-2.28,2.73-.18.02-3.71-4.5-4.08-5.23-.45-.86-.08-1.65.94-2.02.62-.22-.14-.26-4.93-.27-5.15,0-5.59.03-4.85.3m82.15-.04c2.12.77,2.16.99,2.09,12.4-.07,10.81,0,10.39-1.81,11.03-1.55.55-.96.64,4.27.64,4.75,0,6.17-.16,4.54-.52-1.77-.39-2.13-1.54-2.13-6.81v-4.36l2.54-.76,2.54-.76.48.57c4.18,4.98,5.41,6.54,5.98,7.62,1.2,2.25,1.08,4.6-.23,4.6-.21,0-.39.1-.39.21,0,.13,1.68.21,4.62.21,4.6,0,5.26-.1,3.89-.6-.96-.35-1.87-1.62-3.73-5.21-1.81-3.51-2.58-4.67-4.63-7.01l-1.57-1.8,1.47-.71c5.65-2.71,6.51-7.65,1.52-8.71-1.97-.42-20.59-.45-19.45-.03m28.51.23c1.93.88,1.85.39,1.85,11.8s.09,10.78-1.85,11.4c-1.7.55-1.12.63,4.26.63,3.36,0,5.25-.08,5.25-.21,0-.11-.23-.21-.51-.21-.73,0-1.75-.95-2-1.85-.38-1.36-.29-19.45.1-20.27.32-.68,1.27-1.39,1.85-1.39.18,0,.38-.09.45-.21.09-.14-1.69-.21-5.18-.2h-5.31s1.09.51,1.09.51m48.3-.23c2.12.77,2.16.99,2.09,12.4-.07,10.81,0,10.39-1.81,11.03-1.55.55-.96.64,4.27.64,4.75,0,6.17-.16,4.54-.52-1.77-.39-2.13-1.54-2.13-6.81v-4.36l2.54-.76,2.54-.76.48.57c4.18,4.98,5.41,6.54,5.98,7.62,1.2,2.25,1.08,4.6-.23,4.6-.21,0-.39.1-.39.21,0,.13,1.68.21,4.62.21,4.6,0,5.26-.1,3.89-.6-.96-.35-1.87-1.62-3.73-5.21-1.81-3.51-2.58-4.67-4.63-7.01l-1.57-1.8,1.47-.71c5.65-2.71,6.51-7.65,1.52-8.71-1.97-.42-20.59-.45-19.45-.03m-17.92,1.51c7.93,2.07,11.57,13.06,6.03,18.18-6.86,6.34-17.35,1.12-18.01-8.95-.41-6.25,5.61-10.89,11.99-9.23m-43.02.26c1.38.47,2.08,1.45,1.94,2.7-.22,2.02-2.73,3.74-7.86,5.39-3.32,1.07-2.99,1.41-2.99-3.11,0-5.4-.1-5.3,4.93-5.33,2.26-.02,3.18.06,3.98.34m76.81,0c1.38.47,2.08,1.45,1.94,2.7-.22,2.02-2.73,3.74-7.86,5.39-3.32,1.07-2.99,1.41-2.99-3.11,0-5.4-.1-5.3,4.93-5.33,2.26-.02,3.18.06,3.98.34"/>
</svg>