<?xml version="1.0" encoding="utf-8"?>
<!-- Generator: Adobe Illustrator 27.8.0, SVG Export Plug-In . SVG Version: 6.00 Build 0)  -->
<svg version="1.1" id="_x2014_ÎÓÈ_x5F_1" xmlns="http://www.w3.org/2000/svg" xmlns:xlink="http://www.w3.org/1999/xlink"
	x="0px" y="0px" viewBox="0 0 1000 800" style="enable-background:new 0 0 1000 800;" xml:space="preserve">
<style type="text/css">
	.st0{opacity:0.7;fill:#B1BEE8;}
	.st1{fill:#EDEDF2;}
	.st2{fill:#D7D7E2;}
	.st3{fill:#FFFFFF;}
	.st4{fill:#76A0FF;}
	.st5{fill:#0944AD;}
	.st6{fill:#FF5757;}
	.st7{fill:#061230;}
	.st8{fill:#F4AE92;}
	.st9{fill:#7776FF;}
	.st10{fill:#063E8E;}
	.st11{fill:#E89C82;}
	.st12{fill:#B1BEE8;}
	.st13{fill:#02294F;}
	.st14{fill:#03336D;}
	.st15{fill:#774DFF;}
	.st16{fill:#518DE5;}
	.st17{fill:#99BEFF;}
</style>
<g>
	<ellipse class="st0" cx="499.7" cy="621.4" rx="179.2" ry="53.1"/>
	<g>
		<g>
			<path class="st1" d="M463.6,543.4c0,0,1.4,22.4-3.4,37.8c-7.9,25.3-30,28-30,41.4c0,0.3,139,0.3,139,0c0-12.8-21-16.9-28.2-40.5
				c-5.5-17.7-2.3-38.7-2.3-38.7H463.6z"/>
			<rect x="430.2" y="622.4" class="st2" width="139" height="6.1"/>
		</g>
		<g>
			<g>
				<path class="st3" d="M745,541.1c0,8.2-6.8,15-15,15H270c-8.2,0-15-6.8-15-15V235.9c0-8.2,6.7-15,15-15h460c8.2,0,15,6.8,15,15
					V541.1z"/>
			</g>
			<rect x="275.9" y="243.2" class="st4" width="447.6" height="261.6"/>
		</g>
		<circle class="st0" cx="499.7" cy="530.5" r="11.1"/>
	</g>
	<g>
		<path class="st3" d="M358.4,284.5h-27.3c-1,0-1.8-0.9-1.8-2c0-1.1,0.8-2,1.8-2h27.3c1,0,1.8,0.9,1.8,2
			C360.2,283.6,359.4,284.5,358.4,284.5z"/>
		<path class="st5" d="M429.1,284.5h-60.6c-1,0-1.8-0.9-1.8-2c0-1.1,0.8-2,1.8-2h60.6c1,0,1.8,0.9,1.8,2
			C430.8,283.6,430,284.5,429.1,284.5z"/>
		<path class="st5" d="M589.3,284.5h-40.5c-1,0-1.8-0.9-1.8-2c0-1.1,0.8-2,1.8-2h40.5c1,0,1.8,0.9,1.8,2
			C591,283.6,590.2,284.5,589.3,284.5z"/>
		<path class="st6" d="M537.1,284.5h-94.4c-1,0-1.8-0.9-1.8-2c0-1.1,0.8-2,1.8-2h94.4c1,0,1.8,0.9,1.8,2
			C538.9,283.6,538.1,284.5,537.1,284.5z"/>
		<path class="st3" d="M374.4,298.2h-43.4c-1,0-1.8-0.9-1.8-2s0.8-2,1.8-2h43.4c1,0,1.8,0.9,1.8,2S375.4,298.2,374.4,298.2z"/>
		<path class="st5" d="M450.4,298.2h-65.9c-1,0-1.8-0.9-1.8-2s0.8-2,1.8-2h65.9c1,0,1.8,0.9,1.8,2S451.4,298.2,450.4,298.2z"/>
		<path class="st5" d="M614.4,298.2h-61.2c-1,0-1.8-0.9-1.8-2s0.8-2,1.8-2h61.2c1,0,1.8,0.9,1.8,2S615.3,298.2,614.4,298.2z"/>
		<path class="st5" d="M540.7,298.2h-77.2c-1,0-1.8-0.9-1.8-2s0.8-2,1.8-2h77.2c1,0,1.8,0.9,1.8,2S541.7,298.2,540.7,298.2z"/>
		<path class="st3" d="M377.7,313.9h-32.4c-1,0-1.8-0.9-1.8-2c0-1.1,0.8-2,1.8-2h32.4c1,0,1.8,0.9,1.8,2
			C379.5,313,378.7,313.9,377.7,313.9z"/>
		<path class="st5" d="M463.5,313.9h-76c-1,0-1.8-0.9-1.8-2c0-1.1,0.8-2,1.8-2h76c1,0,1.8,0.9,1.8,2
			C465.3,313,464.5,313.9,463.5,313.9z"/>
		<path class="st3" d="M355.4,327.6h-10.1c-1,0-1.8-0.9-1.8-2c0-1.1,0.8-2,1.8-2h10.1c1,0,1.8,0.9,1.8,2
			C357.2,326.7,356.4,327.6,355.4,327.6z"/>
		<path class="st6" d="M450.9,327.6h-81.7c-1,0-1.8-0.9-1.8-2c0-1.1,0.8-2,1.8-2h81.7c1,0,1.8,0.9,1.8,2
			C452.7,326.7,451.9,327.6,450.9,327.6z"/>
		<path class="st5" d="M552,327.6h-88.4c-1,0-1.8-0.9-1.8-2c0-1.1,0.8-2,1.8-2H552c1,0,1.8,0.9,1.8,2
			C553.8,326.7,553,327.6,552,327.6z"/>
		<path class="st5" d="M606.9,327.6h-41.4c-1,0-1.8-0.9-1.8-2c0-1.1,0.8-2,1.8-2h41.4c1,0,1.8,0.9,1.8,2
			C608.7,326.7,607.9,327.6,606.9,327.6z"/>
		<path class="st5" d="M420,327.6h-50.8c-1,0-1.8-0.9-1.8-2c0-1.1,0.8-2,1.8-2H420c1,0,1.8,0.9,1.8,2
			C421.8,326.7,421,327.6,420,327.6z"/>
		<path class="st3" d="M365.9,343.3h-20.5c-1,0-1.8-0.9-1.8-2c0-1.1,0.8-2,1.8-2h20.5c1,0,1.8,0.9,1.8,2
			C367.6,342.4,366.8,343.3,365.9,343.3z"/>
		<path class="st5" d="M424.5,343.3h-47.7c-1,0-1.8-0.9-1.8-2c0-1.1,0.8-2,1.8-2h47.7c1,0,1.8,0.9,1.8,2
			C426.2,342.4,425.4,343.3,424.5,343.3z"/>
		<path class="st5" d="M519.8,343.3h-84.6c-1,0-1.8-0.9-1.8-2c0-1.1,0.8-2,1.8-2h84.6c1,0,1.8,0.9,1.8,2
			C521.6,342.4,520.8,343.3,519.8,343.3z"/>
		<path class="st3" d="M376.3,358.9h-20.4c-1,0-1.8-0.9-1.8-2s0.8-2,1.8-2h20.4c1,0,1.8,0.9,1.8,2S377.3,358.9,376.3,358.9z"/>
		<path class="st5" d="M445.4,358.9h-61.6c-1,0-1.8-0.9-1.8-2s0.8-2,1.8-2h61.6c1,0,1.8,0.9,1.8,2S446.4,358.9,445.4,358.9z"/>
		<path class="st6" d="M482.8,358.9h-21.4c-1,0-1.8-0.9-1.8-2s0.8-2,1.8-2h21.4c1,0,1.8,0.9,1.8,2S483.8,358.9,482.8,358.9z"/>
		<path class="st3" d="M376.3,374.6h-20.4c-1,0-1.8-0.9-1.8-2c0-1.1,0.8-2,1.8-2h20.4c1,0,1.8,0.9,1.8,2
			C378.1,373.7,377.3,374.6,376.3,374.6z"/>
		<path class="st5" d="M435.1,374.6h-51.3c-1,0-1.8-0.9-1.8-2c0-1.1,0.8-2,1.8-2h51.3c1,0,1.8,0.9,1.8,2
			C436.9,373.7,436.1,374.6,435.1,374.6z"/>
		<path class="st5" d="M481,374.6h-38.3c-1,0-1.8-0.9-1.8-2c0-1.1,0.8-2,1.8-2H481c1,0,1.8,0.9,1.8,2
			C482.8,373.7,482,374.6,481,374.6z"/>
		<path class="st3" d="M376.3,390.3h-20.4c-1,0-1.8-0.9-1.8-2s0.8-2,1.8-2h20.4c1,0,1.8,0.9,1.8,2S377.3,390.3,376.3,390.3z"/>
		<path class="st5" d="M408,390.3h-24.2c-1,0-1.8-0.9-1.8-2s0.8-2,1.8-2H408c1,0,1.8,0.9,1.8,2S409,390.3,408,390.3z"/>
		<path class="st5" d="M576.9,390.3h-99c-1,0-1.8-0.9-1.8-2s0.8-2,1.8-2h99c1,0,1.8,0.9,1.8,2S577.9,390.3,576.9,390.3z"/>
		<path class="st6" d="M463.7,390.3h-45c-1,0-1.8-0.9-1.8-2s0.8-2,1.8-2h45c1,0,1.8,0.9,1.8,2S464.6,390.3,463.7,390.3z"/>
		<path class="st3" d="M401.7,406h-17.8c-1,0-1.8-0.9-1.8-2c0-1.1,0.8-2,1.8-2h17.8c1,0,1.8,0.9,1.8,2
			C403.5,405.1,402.7,406,401.7,406z"/>
		<path class="st5" d="M455.2,406h-44.1c-1,0-1.8-0.9-1.8-2c0-1.1,0.8-2,1.8-2h44.1c1,0,1.8,0.9,1.8,2
			C457,405.1,456.2,406,455.2,406z"/>
		<path class="st5" d="M510.4,406h-45c-1,0-1.8-0.9-1.8-2c0-1.1,0.8-2,1.8-2h45c1,0,1.8,0.9,1.8,2C512.2,405.1,511.4,406,510.4,406z
			"/>
		<path class="st3" d="M396.8,421.7h-12.9c-1,0-1.8-0.9-1.8-2c0-1.1,0.8-2,1.8-2h12.9c1,0,1.8,0.9,1.8,2
			C398.6,420.8,397.8,421.7,396.8,421.7z"/>
		<path class="st5" d="M432,421.7h-29.8c-1,0-1.8-0.9-1.8-2c0-1.1,0.8-2,1.8-2H432c1,0,1.8,0.9,1.8,2
			C433.8,420.8,433,421.7,432,421.7z"/>
		<path class="st6" d="M614.4,421.7h-132c-1,0-1.8-0.9-1.8-2c0-1.1,0.8-2,1.8-2h132c1,0,1.8,0.9,1.8,2
			C616.1,420.8,615.3,421.7,614.4,421.7z"/>
		<path class="st5" d="M473.9,421.7h-31.2c-1,0-1.8-0.9-1.8-2c0-1.1,0.8-2,1.8-2h31.2c1,0,1.8,0.9,1.8,2
			C475.7,420.8,474.9,421.7,473.9,421.7z"/>
		<path class="st3" d="M403.8,437.3h-19.9c-1,0-1.8-0.9-1.8-2c0-1.1,0.8-2,1.8-2h19.9c1,0,1.8,0.9,1.8,2
			C405.6,436.5,404.8,437.3,403.8,437.3z"/>
		<path class="st5" d="M464.7,437.3h-53.6c-1,0-1.8-0.9-1.8-2c0-1.1,0.8-2,1.8-2h53.6c1,0,1.8,0.9,1.8,2
			C466.5,436.5,465.7,437.3,464.7,437.3z"/>
		<path class="st5" d="M604.4,437.3h-66.8c-1,0-1.8-0.9-1.8-2c0-1.1,0.8-2,1.8-2h66.8c1,0,1.8,0.9,1.8,2
			C606.2,436.5,605.4,437.3,604.4,437.3z"/>
		<path class="st5" d="M526.9,437.3h-50.3c-1,0-1.8-0.9-1.8-2c0-1.1,0.8-2,1.8-2h50.3c1,0,1.8,0.9,1.8,2
			C528.7,436.5,527.9,437.3,526.9,437.3z"/>
		<path class="st3" d="M403.8,453h-19.9c-1,0-1.8-0.9-1.8-2s0.8-2,1.8-2h19.9c1,0,1.8,0.9,1.8,2S404.8,453,403.8,453z"/>
		<path class="st5" d="M455.2,453h-44.1c-1,0-1.8-0.9-1.8-2s0.8-2,1.8-2h44.1c1,0,1.8,0.9,1.8,2S456.2,453,455.2,453z"/>
		<path class="st5" d="M586.6,453H518c-1,0-1.8-0.9-1.8-2s0.8-2,1.8-2h68.6c1,0,1.8,0.9,1.8,2S587.6,453,586.6,453z"/>
		<path class="st5" d="M506.9,453h-44.1c-1,0-1.8-0.9-1.8-2s0.8-2,1.8-2h44.1c1,0,1.8,0.9,1.8,2S507.8,453,506.9,453z"/>
		<path class="st3" d="M403.8,468.7h-19.9c-1,0-1.8-0.9-1.8-2c0-1.1,0.8-2,1.8-2h19.9c1,0,1.8,0.9,1.8,2
			C405.6,467.8,404.8,468.7,403.8,468.7z"/>
		<path class="st3" d="M313.4,284.5h-7.1c-1,0-1.8-0.9-1.8-2c0-1.1,0.8-2,1.8-2h7.1c1,0,1.8,0.9,1.8,2
			C315.2,283.6,314.4,284.5,313.4,284.5z"/>
		<path class="st3" d="M313.4,298.2h-7.1c-1,0-1.8-0.9-1.8-2s0.8-2,1.8-2h7.1c1,0,1.8,0.9,1.8,2S314.4,298.2,313.4,298.2z"/>
		<path class="st3" d="M313.4,313.9h-7.1c-1,0-1.8-0.9-1.8-2c0-1.1,0.8-2,1.8-2h7.1c1,0,1.8,0.9,1.8,2
			C315.2,313,314.4,313.9,313.4,313.9z"/>
		<path class="st3" d="M313.4,327.6h-7.1c-1,0-1.8-0.9-1.8-2c0-1.1,0.8-2,1.8-2h7.1c1,0,1.8,0.9,1.8,2
			C315.2,326.7,314.4,327.6,313.4,327.6z"/>
		<path class="st3" d="M313.4,343.3h-7.1c-1,0-1.8-0.9-1.8-2c0-1.1,0.8-2,1.8-2h7.1c1,0,1.8,0.9,1.8,2
			C315.2,342.4,314.4,343.3,313.4,343.3z"/>
		<path class="st3" d="M313.4,358.9h-7.1c-1,0-1.8-0.9-1.8-2s0.8-2,1.8-2h7.1c1,0,1.8,0.9,1.8,2S314.4,358.9,313.4,358.9z"/>
		<path class="st3" d="M313.4,374.6h-7.1c-1,0-1.8-0.9-1.8-2c0-1.1,0.8-2,1.8-2h7.1c1,0,1.8,0.9,1.8,2
			C315.2,373.7,314.4,374.6,313.4,374.6z"/>
		<path class="st3" d="M313.4,390.3h-7.1c-1,0-1.8-0.9-1.8-2s0.8-2,1.8-2h7.1c1,0,1.8,0.9,1.8,2S314.4,390.3,313.4,390.3z"/>
		<path class="st3" d="M313.4,406h-7.1c-1,0-1.8-0.9-1.8-2c0-1.1,0.8-2,1.8-2h7.1c1,0,1.8,0.9,1.8,2
			C315.2,405.1,314.4,406,313.4,406z"/>
		<path class="st3" d="M313.4,421.7h-7.1c-1,0-1.8-0.9-1.8-2c0-1.1,0.8-2,1.8-2h7.1c1,0,1.8,0.9,1.8,2
			C315.2,420.8,314.4,421.7,313.4,421.7z"/>
		<path class="st3" d="M313.4,437.3h-7.1c-1,0-1.8-0.9-1.8-2c0-1.1,0.8-2,1.8-2h7.1c1,0,1.8,0.9,1.8,2
			C315.2,436.5,314.4,437.3,313.4,437.3z"/>
		<path class="st3" d="M313.4,453h-7.1c-1,0-1.8-0.9-1.8-2s0.8-2,1.8-2h7.1c1,0,1.8,0.9,1.8,2S314.4,453,313.4,453z"/>
		<path class="st3" d="M313.4,468.7h-7.1c-1,0-1.8-0.9-1.8-2c0-1.1,0.8-2,1.8-2h7.1c1,0,1.8,0.9,1.8,2
			C315.2,467.8,314.4,468.7,313.4,468.7z"/>
		<path class="st5" d="M437.1,468.7h-26.4c-1,0-1.8-0.9-1.8-2c0-1.1,0.8-2,1.8-2h26.4c1,0,1.8,0.9,1.8,2
			C438.9,467.8,438.1,468.7,437.1,468.7z"/>
		<path class="st6" d="M507.3,468.7h-64.6c-1,0-1.8-0.9-1.8-2c0-1.1,0.8-2,1.8-2h64.6c1,0,1.8,0.9,1.8,2
			C509.1,467.8,508.3,468.7,507.3,468.7z"/>
	</g>
</g>
<path class="st7" d="M563.5,199.5c7.2,1.2,18.1,2.6,31.5,2.4c20.8-0.2,31.7-4,32.9-1c1.3,3.4-10.4,13.9-24.1,16.1
	c-5.9,1-13.4-1.3-28.5-5.7c-4.4-1.3-9.7-3.1-11.4-7.6C563.4,202.1,563.4,200.5,563.5,199.5z"/>
<path class="st8" d="M565.2,239.8c-2.3-1.3-4-1.6-3.2-5.2c1-4.6,5.1-5.9,7.1-6.5c11.2-3.1,21.7-4.4,23.9-4c0.8,3,2.6,4.7,3.3,7.7
	c-5.4,1.2-9.7,2.7-16,4.5C573.8,238.2,568.2,241.4,565.2,239.8z"/>
<path class="st9" d="M572.1,166.4c-1.6-4,0.7-10.7,3-14c2.8-2,5.8-3.3,12.1-5.1c6.7-1.8,13.3-1.6,16.1-1.4c10.2,0.9,17.4,4,21,6.5
	c2.2,2.9,4.7,8.3,3.4,12.2C623.3,177.6,577.3,179.3,572.1,166.4z"/>
<g>
	<path class="st3" d="M565.3,200.4c0.1,1.6,1.5,3,3.2,3l59-0.2c1.7,0,3.1-1.4,3.1-3l1.7-33.3c0-1.6-1.3-3-2.9-3l-63.5,0.2
		c-1.6,0-2.9,1.4-2.9,3L565.3,200.4z"/>
</g>
<rect x="586.6" y="128.2" class="st10" width="25.3" height="19.6"/>
<path class="st11" d="M606.3,140.1c-0.5,3.3-1.7,7.2-0.4,10.7c-2.9,0.2-7-0.5-10-0.3c0.1-3.2-0.1-7.2-1.6-11
	C598.5,139.8,602.2,139.7,606.3,140.1z"/>
<ellipse class="st8" cx="600.3" cy="130.9" rx="10.7" ry="13.6"/>
<path class="st8" d="M626.2,239.6c2.5-1,4.2-1.1,3.9-4.7c-0.3-4.7-4.2-6.6-6.1-7.4c-10.6-4.6-20.8-7.4-23.1-7.2
	c-1.2,2.9-3.2,4.3-4.4,7.2c5.2,1.9,9.2,4,15.2,6.6C617.9,236.9,623,240.9,626.2,239.6z"/>
<path class="st3" d="M622,226.9c0,0,13.6,4.6,9,11.7c-3.8,5.9-16.1-2.8-16.1-2.8s5,0.5,6.7-1.4C624.7,230.5,622,226.9,622,226.9z"/>
<path class="st11" d="M603.3,145.9c-2.5-0.2-8.3-0.4-14.4,1c0.1,3.9,5,7,11.1,7c5.9,0,10.8-2.9,11.1-6.6
	C608.8,146.7,606.2,146.2,603.3,145.9z"/>
<path class="st5" d="M603.2,118c-0.3,1.7-0.9,3.2-2.5,4.9c-4,4-7.4,4.7-9.7,7.6c-2,2.5-1.9,9.9,3.2,20.8c-4.6,2.6-8.7-0.1-9.7-0.9
	c-4.1-2.9-3-17,0-25.6c1.8-5.1,3.8-11.1,9.7-13.7c0.6-0.3,6.2-2.7,11.4-0.2c5.2,2.5,7.2,8.3,9.4,16.4c1.3,5,2.7,17.6,1.2,20.8
	c-1.8,3.7-6,4-9,3.2c4.7-4.5,4.3-18.4,3.7-22.5C610.5,126.1,609,120.6,603.2,118z"/>
<path class="st5" d="M585.2,224c9.3-3.2,19.5-10.6,24-13.7c9.5-6.4,14.7-11.8,23.4-13.3c2.2-0.4,9.2-1,12.8,3.8
	c3.2,4.2,2,10.2-0.9,14.5c-3.9,5.8-10.6,8-25,12.4c-5.9,1.8-19.5,4.2-30.7,8.2C586,232.7,585,230.3,585.2,224z"/>
<path class="st3" d="M571.1,227.7c0,0-14.1,2.7-10.5,10.3c3,6.4,16.3-0.6,16.3-0.6s-5.1-0.2-6.4-2.3
	C568,231,571.1,227.7,571.1,227.7z"/>
<path class="st5" d="M602.7,217c-8.2-3.2-15.2-5.8-20-6.6c-8-1.4-14.6-1.5-17.4-6.1c-1.1-1.9-0.7-3.4-0.7-4.7
	c-4.9-1.8-10.7-1.2-14,2.2c-4,4-4.1,10.1-2.4,13.5c2.7,5.6,15.1,8.5,20.6,9.8c1.9,0.4,13.7,2.3,21.8-1.2
	C596.2,221.5,600.3,219.3,602.7,217z"/>
<path class="st12" d="M603,181.1c0,2.9-2.3,5.2-5.2,5.2s-5.2-2.3-5.2-5.2s2.3-5.2,5.2-5.2S603,178.3,603,181.1z"/>
<path class="st5" d="M664,677.3c4.6,10,3.4,14.7,3.4,14.7s-4.9,3.5-13.8,4.1c-10.2,0.7-13-1.5-13-1.5s-0.9-3.6,2.6-4.6
	c5.2-1.4,11.9-2.5,12.9-3.2c1.4-1,0.3-3.5-1.9-9.6C657.5,677.2,660.8,677.3,664,677.3z"/>
<path class="st8" d="M664,677.3c1.6,3.5,2.5,6.4,3,8.6c-1.8,1-4,1.6-6.4,1.6c-2,0-2.7-0.1-4.4-0.9c0.8-1.5-0.2-4.4-2-9.6
	C657.5,677.2,660.8,677.3,664,677.3z"/>
<path class="st7" d="M667.5,693.3c0.4-0.2,0-2.5,0-2.5s-4.4,3.1-15.2,4c-3.3,0.3-11.6-0.4-11.6-0.4s-0.2,1.4,0.4,1.7
	c0.8,0.4,4.2,1.1,11.6,0.9C660.8,696.7,665.9,694.2,667.5,693.3z"/>
<path class="st13" d="M646.8,585.4c0.3,0.4,0.6,0.8,0.9,1.3c-2.8,10.5-5.6,25.8-4.7,44.3c1,21,7.7,41.7,12.1,52.4
	c3.1,1.8,9.8,0.8,12.6-0.6c0-8.7-6.4-35.8-7.5-43.8c-1-7.6,2-19,3.1-23.2C657.8,605.6,652.3,595.5,646.8,585.4z"/>
<path class="st11" d="M652.6,485.3c-1.9-5.2-4.4-9.8-6.7-15.3c-1.5-3.5-3.6-8.1-5.1-11.4c0.6-2,1.6-5.6,1.1-9.5
	c-0.7-5.7-2.5-8.3-4.3-9.2c-0.8,2.9,2.3,10.3-1.3,10.7c-0.9,0.1-2-5.2-2.6-5.1c-0.4,0.1-0.4,2.3,0,6c1,8.3,3,13.1,4.8,19.3
	c3.7,12.6,2.6,17.8,5.8,18.8C645.6,490,648.1,489.9,652.6,485.3z"/>
<path class="st5" d="M699,690.4c1.5,2,3.1,5.7,1.5,8.8c-2.5,4.9-14.8,4-9.9,12.5c0,0.1,6.9,0.2,11.8-4.3c4.8-4.5,12.5-1.8,12.3-7.6
	c-0.1-3.1-5.6-10.3-6.2-14C706.7,686.4,701,689.7,699,690.4z"/>
<path class="st8" d="M650.4,493.7c-0.5-1.6-2-6.1,0.5-10.4c2.6-4.4,7.6-5.2,9.3-5.4c0.9-0.1,8.1-1.3,10.9,2.7
	c3.1,4.5-1.6,12-4.9,15.5c-1.6,1.7-5.8,6.1-10.1,4.9C652.4,500,650.9,495.5,650.4,493.7z"/>
<path class="st14" d="M662.9,479.4c-2.8-4,2.7-8.5,2.7-8.5s2.5,2.6,5.9,3.9c4.5,1.8,8.4,7.3,8.7,12.1c0.4,5.8-2.3,11.8-7.2,14.5
	c-3.7,2-9.2,1.4-10.7,1.3c-1-0.9-1.5-2.7-1.6-4.8c-0.2-3.8,4-5.4,4.9-9.6C666,486.4,665.9,483.5,662.9,479.4z"/>
<path class="st8" d="M639.9,496.6c-8.6-10.8-11.6-20.3-12.7-26.9c-2-11.1-2.5-20-7.9-34.2c-0.9-2.5-0.6-3.3-1.4-4.3
	c-0.9-0.8-4.7-5.6-3.6-6.8c0.2-0.2,1.5,2.6,2.9,2.3c1.6-0.3,2.3-3.5,1.7-6.1c-0.8-3.8-0.6-6,0.1-6.2c0.9-0.3,2.2,0.9,3.4,4.6
	c1.7,5-0.1,9.9,0.1,10.8c1.7,6.7,6,16.2,14.7,35.6c2.5,5.6,6.1,13,10.7,21.8C645.2,490.3,642.5,493.5,639.9,496.6z"/>
<path class="st8" d="M708.6,685.7c0.3,2.2,2.4,5.7,4.1,8.8c-2.4,2.4-5.9,3.9-9.9,3.9c-0.7,0-1.3-0.1-1.9-0.1c0.8-2.8-0.5-6-1.9-7.8
	C701,689.7,706.7,686.4,708.6,685.7z"/>
<path class="st14" d="M671.3,570.9c1.3,3.8,4,5.6,6.2,13.3c4.4,15.3,3.4,31.1,8.2,43.8c4.5,12,6.8,11.7,14.2,27.2
	c6.4,13.6,11.5,28.1,13.5,35.6c-4,2.9-9.5,5.1-14.8,5.1c-10.4-22.2-22-41.8-29.2-53.6c-7.7-12.5-14.4-22.1-19.8-37.6
	c-4.7-13.5-6.4-25.4-7.1-33.4C651.6,571.1,662.1,571.1,671.3,570.9z"/>
<path class="st9" d="M648,483.9c-5.9,2.6-9.5,9.5-10.7,12.7c1.5,2.8,3.9,4.9,6.5,7.1c-4.5,6.7-6.7,11.4-8.6,20.2
	c-4.7,21,3,45.6,6,54.9c7.9,0.9,14.5,0.4,20.2-0.5c4.7-0.7,11.9-2,13.7-3.8c-3.9-14.8-3.7-27.7-3.6-35.4c0.1-10.6,0.6-19.5,0.7-25.8
	c0.1-2.6-1.6-7.1-4.4-10.4c-2.9-3.3-5-3-8.5-4.7C655.5,496.3,648.8,489,648,483.9z"/>
<g>
	<path class="st8" d="M663,492.1c0.4-0.7,1.5-0.8,2.1-0.3c0.6,0.5,0.8,1.4,0.5,2.2c-0.3,0.8-0.9,1.4-1.6,1.7
		c-0.8,0.4-1.7,0.6-2.5,0.4c-0.8-0.2-1.6-0.8-1.9-1.6"/>
</g>
<path class="st7" d="M714.8,699c0,0,1.1,3.2,0.5,4.2c-0.4,0.7-6.3,4.1-11.3,6.2c-3,1.3-11.6,3.8-12.5,3.5c-0.6-0.2-1.3-2-1.3-2
	s10-3.1,13.1-4.5C711.2,702.8,714.8,699,714.8,699z"/>
<path class="st15" d="M639.8,531c0.2-8.9,2.5-20.4,4.1-27.2c-0.1,0.1-0.2,0.1-0.3,0.2c-4.4,6.5-6.5,11.2-8.4,19.9
	c-4.7,21,3,45.6,6,54.9c3.7,0.4,7.1,0.5,10.3,0.4C646.3,567.2,639.4,551.5,639.8,531z"/>
<path class="st16" d="M434.7,475.2l-27,53.6h-74.4l25.7-50.9l-5.4-2.7L244.4,691.4l5.4,2.7l19.1-37.9h74.4l-17.8,35.2l5.4,2.7
	L440,477.9L434.7,475.2z M404.6,534.7l-15.9,31.6h-74.4l15.9-31.6H404.6z M385.6,572.3l-16.8,33.2h-74.4l16.8-33.2H385.6z
	 M271.9,650.1l19.5-38.6h74.4l-19.5,38.6H271.9z"/>
<path class="st8" d="M371.4,323.8c2.2,0.4,2.1,6.7,2,11c-0.1,4.9-1.7,10.7-5.2,12.6c-1.9,1-3.7,0.6-5.5-1.1
	c-8.6-7.7-3.3-15.4,0-18.7C364.1,326.1,368.9,323.4,371.4,323.8z"/>
<path class="st14" d="M339.9,520.6c-0.2,1.4,1.1,3.4,0.2,5.6c-1.6,4.2-0.6,5.7-0.2,5.9c3.6,2.5,9-0.1,13.5-1.6
	c5.4-1.8,14.2-4.5,14.2-4.5s0.4-1.2-0.3-2.9c-0.7-1.5-5.9-0.6-9.5-0.7c-2.2,0-4-0.1-5.7-1.2c-1.3-0.8-1-2.3-1.5-3
	C347.8,518.8,342.8,519.9,339.9,520.6z"/>
<path class="st14" d="M380.2,522.1c0.8,2.8-2.4,8.1,0.6,10.9c2.6,2.5,7.3,0.1,12.8-0.9c7.2-1.3,9.5-1.1,11.3-3.3
	c1.7-1.9,3.1-3.9,2-5.3c-0.7-0.9-3.1-1.8-7-1.6c-4.2,0.2-5.5,1.4-7.2,0.7c-1.8-0.7-2.5-2.7-3.1-3.9C386.5,520,383.1,521,380.2,522.1
	z"/>
<path class="st8" d="M329.5,383.4c-0.4,3.8,0.4,8.7-0.1,13.8c-0.5,4.3,1.3,8.3,2.3,11.4c3.3,9.4,4,10.8,6.4,15.6
	c1.8,3.5-0.1,5.5,1.2,9.6c1,3.3,2.8,6.2,5.2,6.3c3.1-2,1.1-5.2,1.1-12.8c0-3.4-0.7-5.5-1.9-8.1c-0.8-1.8-3.4-12.2-4-18.9
	c-0.6-6.1,1.5-10.9,2.5-12.6C338,386.2,333.6,384.6,329.5,383.4z"/>
<path class="st8" d="M363.4,352.5c0.4-2.1-1.3-4.9,2.5-6.4c-0.7-1.1-0.6-3.9-5.5-5.7c-5.4-1.9-9.9-0.3-11.1,0.1
	c0.4,0.9,1,2.6,0.7,4.8c-0.3,2.9-2.9,5.7-3.5,6.4C351.8,351.8,358.1,352.5,363.4,352.5z"/>
<path class="st14" d="M373.5,313.4c-3.8-5.2-11.5-5.3-15.4-4c-7.5,2.4-9.9,9.8-9.9,9.8s-3.8,1.4-4.7,4.5c-1.4,4.5,0.1,8,3.3,12
	c1.7,2.1,1.4,8.2,3.5,9.4c1.6,1,5.6-0.2,8.4-1.2c0.1-1.5,0.2-5.2-0.1-6.4c-0.3-1.5,2.6-5.2,3.3-6c1.5-1.7,3.8-2.2,5.4-2.7
	c3.4-1,6.5-3.4,7.9-6.3C375.5,321.4,376.8,317.8,373.5,313.4z"/>
<path class="st8" d="M361.7,331.5c-0.1-0.9-1-1.5-1.8-1.5s-1.7,0.5-2.2,1.2c-0.5,0.7-0.7,1.6-0.8,2.4c-0.1,0.8,0,1.7,0.3,2.5
	c0.3,0.8,0.9,1.4,1.7,1.7c0.8,0.2,1.8,0,2.2-0.7"/>
<path class="st8" d="M391.9,351.4c3.6-0.1,7.4,0.1,11-1.8c3-1.6,3.3-3.1,6.2-7c1.9-2.5,4.9-6.1,9.3-10c-0.3-1-0.9-3.1-0.3-5.7
	c0.4-1.9,0.9-3.7,1.8-4.2c1.4-0.7,5.2,0.2,6.8,2.7c1.7,2.6,0.1,6.3-1.6,9.8c-2.6,5.4-7.2,13.4-15,23.1c-2.9,1.6-7.3,3.7-11.2,5.7
	c-2.4,1.3-4.4,2.4-6.3,2.9C392.4,361.8,392.2,356.6,391.9,351.4z"/>
<path class="st7" d="M339.2,531c0,0,0.5,2.6,1.2,2.9c1.1,0.4,9.4-0.8,15.1-2.5c3-0.9,10.2-3.1,11.7-4.2c0.5-0.3,0.5-2.3,0.5-2.3
	s-6.3,2.6-12.8,4.3C346,531.7,339.2,531,339.2,531z"/>
<path class="st7" d="M379.7,531.5c0,0-0.1,2.8,0.5,3.2c2.2,1.5,11.2-0.1,14.6-1.1c3.2-1,10.8-3.1,11.8-4.8c0.5-0.9,0.5-4,0.5-4
	s-1.2,3.9-13.5,6.5C383.9,533.4,379.7,531.5,379.7,531.5z"/>
<g>
	<path class="st14" d="M361.8,446.8c-1.9-1.4-2.8-3.1-4.2-5c-1.6-2.2-3-4.1-4-6.6c-0.9-2.5-1.6-4.3-2.1-6.9c-0.3-1.5-0.4-3-0.5-4.5
		c-2.5,0-5.8,0.1-8,0.1c-3.5,8.7-3.5,16.1-3.7,21.5c-0.5,9.8,2.2,25.6-1.1,39.1c-3,12.3,1.8,40.7,2.2,41.1c1.5,0.7,7.7,0.5,12.8-4
		c0,0-2-24.8,1.3-36.1C358.4,472.3,361.3,450.8,361.8,446.8z"/>
	<path class="st5" d="M390.4,480.3c0.3-13.3,0.9-20.3-1.9-31.5c-2.9-13-5.3-18.8-7.9-25.6c-9,0-20.2,0.4-30.2,0.6
		c0.2,1.5,0.5,3,0.8,4.5c0.5,2.6,1.3,5.1,2.2,7.6c1,2.4,2.3,4.7,3.8,6.9c0.8,1.1,1.6,2.1,2.4,3.1c0.6,0.7,2.1,1.5,2.1,1.5
		s9,11.2,11.7,28.7c1.5,9.9,0.5,13.6,2.4,28c1,7.2,2.5,16.2,3.8,22.5c3.2,1.1,11.2-1.9,12.8-4.3C391,504.9,390.1,489.8,390.4,480.3z
		"/>
</g>
<g>
	<path class="st9" d="M338.2,384.1c-0.8-3.4-1.3-6.5-1.5-10c-0.2-3.5-0.5-6.7,0.1-10.1c0.4-2.2,1-5.5,1.6-7.7
		c-0.6,0.4-2.2,1.4-2.9,1.9c-2.7,2.1-4.6,5.8-6.1,12.1c-0.9,3.4-1.3,8.8-1,15.3c2.6,1.9,7.7,2.6,11.3,3.2
		C339.2,387.6,338.6,385.6,338.2,384.1z"/>
	<path class="st9" d="M394.1,350.8c-7.9,1-13.1,0.6-17.2,0.7c-2.1,0.1-4.8,0.4-9.3,0.4c-1.6,0-3-0.6-3.7-1.2
		c-1.6,0.7-5.1,1.3-9.1,1.1c-3.7-0.2-5.8-0.8-7.3-1.5c-1.7,1-3.4,2.1-5.8,3.9c-1.7,1.3-2.9,1.9-3.9,2.6c-0.5,2.3-0.9,4.6-1.2,6.9
		c-0.5,3.4-0.6,6.8-0.4,10.2c0.2,3.4,0.6,6.8,1.3,10.2c0.3,1.6,0.7,3.1,1.2,4.7c0,0,0,0,0.1,0c1.4,3.5,2.8,7.8,3.7,12.9
		c1.8,10.3-0.9,20.9-2.1,26.7c1.9,1.6,11.6,3.2,20.5,2.7c7.9-0.5,19-3,22-5.5c-1.2-5.5-3.2-16.7-4-26.9c-0.8-11.3-0.6-19.8,0.6-27.3
		c4.9,0.5,9.8-0.3,14.1-1.4c1-1.6,2.4-5.4,2.5-10.3C396,355.5,394.8,352.4,394.1,350.8z"/>
</g>
<ellipse class="st0" cx="148.1" cy="618.4" rx="57.9" ry="24.6"/>
<path class="st14" d="M200.4,512.1c0,8.8-24,15.9-53.5,15.9c-29.6,0-55.2-6.3-55.2-15.1c0-8.8,25.6-16.7,55.2-16.7
	C176.4,496.2,200.4,503.3,200.4,512.1z"/>
<path class="st16" d="M138.5,543c10-33.5-4-82.2-9.2-97.7c-6.7-20.2-5.7-42-9.2-62.9c-4.1-24.4-14.2-47.4-24.3-70
	c-7.2,37.7,1.7,76.3,9.9,113.7c8.2,37.5,5.9,73.4,17.6,113.6"/>
<path class="st16" d="M161.6,533.5c12.6-13,15.3-32.8,14.5-50.9c-0.8-18.1-4.3-36.4-1.4-54.3c2.2-13.4,7.9-26,11.5-39.2
	c5.6-20.7,5.7-42.4,5.7-63.8c-8.6,14.2-15.9,29.2-22,44.6c-6.1,15.7-10.8,32-15.6,48.2c-3.1,10.8-6.3,21.6-7.1,32.8
	c-1.1,15.2,2.2,30.3,3.3,45.5c1.1,15.2-0.3,31.5-9.4,43.7"/>
<g>
	<path class="st17" d="M148.5,410.8c0-51.9-16.7-112.1-33.7-140.8c-4.2,26.4,13.6,75.6,13,136.2c-0.5,50.2,15.5,102.2,15,142.5
		C158.8,504.5,148.5,457.8,148.5,410.8z"/>
</g>
<path class="st3" d="M192,327.2c-5,16-9.5,32.1-13.8,48.3l-12.7,48.6c-1.1,4.1-2.3,8-3.1,12.1c-0.8,4.1-1.4,8.2-1.9,12.3
	c-0.9,8.3-1,16.7-1,25c0,8.4,0.2,16.8-0.2,25.1c-0.4,8.4-1.4,16.8-4.3,24.7c2.6-8,3.3-16.4,3.5-24.7c0.2-8.4-0.2-16.7-0.3-25.1
	c-0.2-8.4,0-16.8,0.8-25.2c0.4-4.2,1-8.4,1.8-12.5c0.8-4.1,1.9-8.2,3-12.3c4.4-16.1,8.5-32.4,13-48.5
	C181.6,359,186.4,342.9,192,327.2z"/>
<path class="st3" d="M95.8,314.6c1,8.7,2.5,17.4,4.1,26.1c1.6,8.7,3.3,17.3,5.1,25.9c3.6,17.2,7.2,34.5,10.3,51.8
	c1.5,8.7,2.7,17.4,3.9,26.1c1.3,8.7,2.7,17.4,4,26.1c2.7,17.4,6,34.7,7.6,52.3c-1.1-8.7-2.7-17.4-4.2-26.1l-4.6-26
	c-1.5-8.7-2.9-17.4-4.3-26.1c-1.3-8.7-2.5-17.4-4.1-26.1c-2.9-17.3-6.6-34.6-9.9-51.9C100.5,349.5,97.3,332.2,95.8,314.6z"/>
<path class="st5" d="M115.5,271.5c5,20.8,10,41.5,14.6,62.3c2.2,10.5,3.7,21.1,5,31.6c1.3,10.6,2.3,21.2,3,31.9
	c0.6,10.7,0.9,21.4,0.2,32.1c-0.2,5.3,0,10.6,0.3,15.9c0.3,5.3,0.8,10.6,1.2,15.9c1,10.6,2.2,21.2,3.3,31.8c1,10.6,2,21.3,2,31.9
	c-0.3-10.7-1.6-21.3-2.8-31.8c-1.2-10.6-2.6-21.2-3.8-31.8c-0.6-5.3-1.1-10.6-1.4-16c-0.3-5.3-0.6-10.7-0.4-16.1
	c0.6-10.6,0.3-21.3-0.4-31.9c-0.6-10.6-1.6-21.2-2.9-31.8c-1.2-10.6-2.8-21.1-4.7-31.6L115.5,271.5z"/>
<g>
	<path class="st5" d="M194.3,401.1c-6,30.4-17.5,51.4-24.9,77.5c-4,14-7.6,31.8-3.5,45.8l8.3-2.3c1-16.2,10.6-30.4,16.8-45.4
		C200.8,452.9,202,425.7,194.3,401.1z"/>
</g>
<g>
	<path class="st5" d="M112.6,475.1c-8-16.7-16-34.9-12.4-53c-6.5,9-8.5,20.7-7.4,31.8c1.1,11.1,4.9,21.7,9.1,32
		c5.7,13.9,12.2,29,8,43.4l15.9-1.4C128.9,509.7,120.6,491.7,112.6,475.1z"/>
</g>
<path class="st3" d="M194.3,402c1.4,5.5,1.8,11.2,1.5,16.8c-0.4,5.6-1.4,11.2-2.8,16.7c-2.9,10.9-7.5,21.3-12,31.6
	c-2.3,5.1-4.5,10.3-6.4,15.5c-1.9,5.3-3.4,10.7-4.3,16.2c-0.9,5.5-1.3,11.1-1.2,16.7c0.1,5.6,0.8,11.2,2,16.7
	c-3-10.8-3.7-22.4-2.1-33.6c1.6-11.3,6-21.9,10.4-32.2c4.6-10.2,9.1-20.6,12.3-31.3C194.9,424.5,196.5,413.2,194.3,402z"/>
<path class="st3" d="M99.6,422.5c-3.5,8.8-3.5,18.5-1.8,27.7c0.9,4.6,2,9.2,3.5,13.6c1.5,4.4,3.3,8.8,5.1,13.1
	c3.6,8.7,7.5,17.4,9.5,26.7c1,4.7,1.6,9.4,1.8,14.1c0.2,4.7,0.2,9.5-0.1,14.2c-0.1-9.4-0.7-18.9-3-28c-2.1-9.1-6.1-17.7-9.8-26.4
	c-1.8-4.4-3.6-8.8-5-13.3c-1.4-4.5-2.6-9.2-3.3-13.9c-0.7-4.7-1-9.5-0.6-14.2c0.2-2.4,0.6-4.7,1.2-7
	C97.8,426.9,98.6,424.7,99.6,422.5z"/>
<path class="st3" d="M187,618.3c0,0-12.5,12.5-41,12.5c-28.4,0-37.6-12.5-37.6-12.5L91.6,511.2c0,0,16.7,13.4,56.9,13.4
	c31.8,0,51.9-13.4,51.9-13.4L187,618.3z"/>
<g>
	<ellipse class="st0" cx="830.3" cy="619.9" rx="38.7" ry="14.1"/>
	<g>
		<path class="st3" d="M829.1,546.7c-1.3,0-2.7,0-4-0.1c-0.4,0-0.9,0-1.3,0c-0.9,0-1.7-0.1-2.6-0.1c-0.5,0-1-0.1-1.5-0.1
			c-0.8,0-1.5-0.1-2.3-0.2c-0.5,0-1.1-0.1-1.6-0.1c-0.7-0.1-1.4-0.1-2-0.2c-0.5-0.1-1.1-0.1-1.6-0.2c-0.6-0.1-1.2-0.2-1.8-0.2
			c-0.5-0.1-1.1-0.1-1.6-0.2c-0.3,0-0.6-0.1-0.9-0.2c-1.4-0.2-2.8-0.5-4.1-0.8c-0.3-0.1-0.6-0.1-0.9-0.2c-0.7-0.2-1.3-0.3-2-0.5
			c-0.2-0.1-0.5-0.1-0.7-0.2c-0.7-0.2-1.3-0.4-1.9-0.5c-0.2-0.1-0.3-0.1-0.5-0.2c-0.7-0.2-1.3-0.4-1.9-0.6c0,0-0.1,0-0.1,0
			c-3.4-1.3-6-2.7-7.4-4.3c0,39.9,14.2,80.3,14.9,80.7c25.2,12.6,52,1.7,52,1.7s15.1-43,14.3-82.4
			C865.1,542.9,848.7,546.7,829.1,546.7z"/>
		<ellipse class="st14" cx="829.1" cy="535" rx="41.9" ry="11.7"/>
		<path class="st3" d="M859.7,601.1c-3.8,0-6.9-0.7-8.4-1.1l1.7-5.9c2.8,0.8,12.4,2.8,19.3-3.9c7.2-7,8.4-20.5,6.6-30.1
			c-1.1-6-3.1-8.6-3.9-8.9c-0.1,0-3.8-1-15,16.8l-5.2-3.3c10-15.9,16.7-21.7,22.6-19.2c4.7,2,6.8,9.3,7.6,13.4
			c2.2,11.5,0.5,27-8.4,35.6C871.3,599.8,864.9,601.1,859.7,601.1z"/>
	</g>
</g>
<path class="st12" d="M865,456.9c-4.1-3.7-9.1-7.4-9.7-12.8c-0.8-6.7,5.4-13.1,3.6-19.5c-2.1-7.7-13.9-9.6-15.5-17.4
	c-0.8-4.1,1.6-8,2.6-12c2-7.9-2.2-16.9-9.5-20.6c1.1,6.9-3.3,13.3-7.3,19.1c-3.9,5.8-7.8,12.9-5.3,19.4c1.8,4.9,7,8.9,6.2,14
	c-1.2,7.4-12.9,8-16,14.9c-3.9,8.6,9.2,17.2,7.3,26.4c-1.1,5.1-6.3,8.1-9,12.6c-3.5,5.7-2.5,13.4,0.8,19.2
	c3.3,5.9,10.2,9.6,14.6,10.4c5.4,1,11.2-0.3,16.1-2.8c4.9-2.5,8.7-8.1,7.2-13.4c-0.9-3.4-3.7-6.3-3.5-9.7c0.4-4.6,5.7-6.9,10.2-7.7
	c4.5-0.8,9.9-1.6,12.1-5.6C872.7,466.4,869.1,460.6,865,456.9z"/>
<g>
	<circle class="st12" cx="646.8" cy="92.5" r="21.5"/>
	<g>
		<path class="st3" d="M637.4,87.8v1.7h1.5v0.8h-1.5v3.1c0,0.7,0.2,1.1,0.8,1.1c0.3,0,0.5,0,0.6-0.1l0,0.8c-0.2,0.1-0.5,0.1-0.9,0.1
			c-0.5,0-0.9-0.2-1.1-0.4c-0.3-0.3-0.4-0.8-0.4-1.5v-3.2h-0.9v-0.8h0.9v-1.4L637.4,87.8z"/>
		<path class="st3" d="M640.6,89.5l1.3,3.4c0.1,0.4,0.3,0.8,0.4,1.2h0c0.1-0.3,0.2-0.8,0.4-1.2l1.2-3.4h1.1l-1.6,4.1
			c-0.8,2-1.3,3-2,3.6c-0.5,0.5-1,0.6-1.3,0.7l-0.3-0.9c0.3-0.1,0.6-0.3,0.9-0.5c0.3-0.2,0.6-0.6,0.9-1.2c0-0.1,0.1-0.2,0.1-0.3
			c0-0.1,0-0.1-0.1-0.3l-2.1-5.3H640.6z"/>
		<path class="st3" d="M645.9,91.4c0-0.7,0-1.3,0-1.9h0.9l0,1h0c0.4-0.7,1.1-1.1,2.1-1.1c1.4,0,2.5,1.2,2.5,3c0,2.1-1.3,3.1-2.6,3.1
			c-0.8,0-1.4-0.3-1.8-0.9h0v3.2h-1V91.4z M646.9,92.9c0,0.2,0,0.3,0,0.4c0.2,0.7,0.8,1.2,1.6,1.2c1.1,0,1.8-0.9,1.8-2.2
			c0-1.2-0.6-2.2-1.7-2.2c-0.7,0-1.4,0.5-1.6,1.3c0,0.1-0.1,0.3-0.1,0.4V92.9z"/>
		<path class="st3" d="M653.3,92.6c0,1.4,0.9,2,2,2c0.8,0,1.2-0.1,1.6-0.3l0.2,0.8c-0.4,0.2-1,0.4-1.9,0.4c-1.8,0-2.9-1.2-2.9-2.9
			c0-1.8,1-3.1,2.7-3.1c1.9,0,2.4,1.7,2.4,2.7c0,0.2,0,0.4,0,0.5H653.3z M656.4,91.8c0-0.7-0.3-1.7-1.5-1.7c-1.1,0-1.5,1-1.6,1.7
			H656.4z"/>
	</g>
</g>
<g>
	<g>
		<circle class="st12" cx="725" cy="433" r="31"/>
		<g>
			<path class="st3" d="M707.7,432.3l11.1-5.7v1.7l-9.4,4.7v0l9.4,4.7v1.7l-11.1-5.7V432.3z"/>
			<path class="st3" d="M720.4,440.2l6.7-17.4h1.6l-6.7,17.4H720.4z"/>
			<path class="st3" d="M741.3,433.6l-11.1,5.7v-1.7l9.4-4.7v0l-9.4-4.7v-1.7l11.1,5.7V433.6z"/>
		</g>
	</g>
	<polyline class="st12" points="703.3,450 697.3,465 711.3,457.3 	"/>
</g>
<polyline class="st12" points="632,102.7 626,117.7 640,110 "/>
<g>
	<g>
		<circle class="st12" cx="248.5" cy="290.5" r="35.5"/>
		<g>
			<path class="st3" d="M234.9,281.4c0,0.9-0.6,1.6-1.6,1.6c-0.9,0-1.5-0.7-1.5-1.6c0-0.9,0.7-1.6,1.6-1.6
				C234.3,279.8,234.9,280.5,234.9,281.4z M232.1,299.3v-14h2.5v14H232.1z"/>
			<path class="st3" d="M250.9,278.8v16.9c0,1.2,0,2.7,0.1,3.6h-2.3l-0.1-2.4h-0.1c-0.8,1.6-2.5,2.7-4.8,2.7c-3.4,0-6-2.9-6-7.1
				c0-4.6,2.9-7.5,6.3-7.5c2.1,0,3.6,1,4.2,2.1h0.1v-8.3H250.9z M248.3,291c0-0.3,0-0.8-0.1-1.1c-0.4-1.6-1.8-2.9-3.7-2.9
				c-2.6,0-4.2,2.3-4.2,5.4c0,2.8,1.4,5.2,4.1,5.2c1.7,0,3.3-1.1,3.7-3c0.1-0.3,0.1-0.7,0.1-1.1V291z"/>
			<path class="st3" d="M254.2,289.5v-1.7H269v1.7H254.2z M254.2,295.2v-1.7H269v1.7H254.2z"/>
		</g>
	</g>
	<polyline class="st12" points="279,304 289,326 266,316 	"/>
</g>
<g>
	
		<ellipse transform="matrix(0.1613 -0.9869 0.9869 0.1613 205.4438 506.023)" class="st12" cx="400.4" cy="132.1" rx="22.5" ry="22.5"/>
	<g>
		<path class="st3" d="M386.4,131.4l5.6-2.9v0.8l-4.7,2.4v0l4.7,2.4v0.8l-5.6-2.9V131.4z"/>
		<path class="st3" d="M398.7,126.4v7c0,0.5,0,1.1,0,1.5h-1l0-1h0c-0.3,0.7-1,1.1-2,1.1c-1.4,0-2.5-1.2-2.5-3c0-1.9,1.2-3.1,2.6-3.1
			c0.9,0,1.5,0.4,1.8,0.9h0v-3.5H398.7z M397.6,131.5c0-0.1,0-0.3,0-0.4c-0.2-0.7-0.7-1.2-1.5-1.2c-1.1,0-1.7,1-1.7,2.3
			c0,1.2,0.6,2.2,1.7,2.2c0.7,0,1.4-0.5,1.6-1.3c0-0.1,0-0.3,0-0.5V131.5z"/>
		<path class="st3" d="M401.6,127.5c0,0.4-0.3,0.7-0.7,0.7c-0.4,0-0.6-0.3-0.6-0.7c0-0.4,0.3-0.7,0.7-0.7
			C401.4,126.8,401.6,127.1,401.6,127.5z M400.5,135v-5.8h1.1v5.8H400.5z"/>
		<path class="st3" d="M403.7,129.1l1.1,3.3c0.2,0.5,0.3,1,0.5,1.5h0c0.1-0.5,0.3-1,0.5-1.5l1.1-3.3h1.1l-2.3,5.8h-1l-2.2-5.8H403.7
			z"/>
		<path class="st3" d="M414.6,132.1L409,135v-0.8l4.7-2.4v0l-4.7-2.4v-0.8l5.6,2.9V132.1z"/>
	</g>
</g>
<g>
	<circle class="st12" cx="708" cy="166" r="17"/>
	<g>
		<path class="st3" d="M701.9,165.4c1.2,0,1.3-0.6,1.3-1.2c0-0.5-0.1-0.9-0.1-1.4c-0.1-0.5-0.1-0.9-0.1-1.4c0-1.5,1-2.1,2.4-2.1h0.3
			v0.9h-0.3c-1,0-1.3,0.5-1.3,1.4c0,0.4,0,0.8,0.1,1.2c0.1,0.4,0.1,0.8,0.1,1.2c0,1-0.4,1.6-1.2,1.8v0c0.7,0.2,1.2,0.7,1.2,1.8
			c0,0.4,0,0.8-0.1,1.2c-0.1,0.4-0.1,0.8-0.1,1.2c0,0.9,0.4,1.4,1.3,1.4h0.3v0.9h-0.3c-1.4,0-2.4-0.6-2.4-2.2c0-0.4,0.1-0.9,0.1-1.3
			c0.1-0.4,0.1-0.9,0.1-1.3c0-0.5-0.2-1.2-1.3-1.2V165.4z"/>
		<path class="st3" d="M713.7,166.2c-1.2,0-1.3,0.7-1.3,1.2c0,0.4,0.1,0.9,0.1,1.3c0.1,0.4,0.1,0.9,0.1,1.3c0,1.6-1,2.2-2.4,2.2
			h-0.3v-0.9h0.3c0.9,0,1.3-0.5,1.3-1.4c0-0.4-0.1-0.8-0.1-1.2c-0.1-0.4-0.1-0.8-0.1-1.2c0-1,0.5-1.6,1.2-1.8v0
			c-0.7-0.2-1.2-0.7-1.2-1.8c0-0.4,0.1-0.8,0.1-1.2c0-0.4,0.1-0.8,0.1-1.2c0-0.9-0.3-1.4-1.3-1.4h-0.3v-0.9h0.3
			c1.4,0,2.4,0.6,2.4,2.1c0,0.5-0.1,0.9-0.1,1.4c-0.1,0.5-0.1,0.9-0.1,1.4c0,0.6,0.2,1.2,1.3,1.2V166.2z"/>
	</g>
</g>
<g>
	<circle class="st12" cx="355.8" cy="203.2" r="30.2"/>
	<g>
		<path class="st3" d="M338.7,201.3l11.1-5.7v1.7l-9.4,4.7v0l9.4,4.7v1.7l-11.1-5.7V201.3z"/>
		<path class="st3" d="M351.4,209.2l6.7-17.4h1.6l-6.7,17.4H351.4z"/>
		<path class="st3" d="M372.3,202.6l-11.1,5.7v-1.7l9.4-4.7v0l-9.4-4.7v-1.7l11.1,5.7V202.6z"/>
	</g>
</g>
<g>
	<circle class="st12" cx="778.5" cy="342.5" r="17.5"/>
	<g>
		<path class="st3" d="M769.6,342.1l5.7-3v0.9l-4.8,2.4v0l4.8,2.4v0.9l-5.7-3V342.1z"/>
		<path class="st3" d="M776.8,345.1c0-0.4,0.3-0.8,0.7-0.8c0.4,0,0.7,0.3,0.7,0.8c0,0.4-0.3,0.8-0.7,0.8
			C777.1,345.9,776.8,345.5,776.8,345.1z M777.1,343.3l-0.2-5.9h1.2l-0.2,5.9H777.1z"/>
		<path class="st3" d="M782.4,342v0.8h-3.1V342H782.4z"/>
		<path class="st3" d="M786.2,342v0.8h-3V342H786.2z"/>
	</g>
</g>
<g>
	<circle class="st12" cx="367.3" cy="86.7" r="13"/>
	<g>
		<path class="st3" d="M365.4,91.5l3.2-8.4h0.8l-3.2,8.4H365.4z"/>
	</g>
</g>
</svg>
