<?xml version="1.0" encoding="UTF-8"?>
<svg id="Layer_1" data-name="Layer 1" xmlns="http://www.w3.org/2000/svg" viewBox="0 0 1576.24 1227.18">
  <defs>
    <style>
      .cls-1, .cls-2 {
        fill-rule: evenodd;
      }

      .cls-1, .cls-2, .cls-3, .cls-4, .cls-5, .cls-6, .cls-7, .cls-8, .cls-9, .cls-10, .cls-11, .cls-12, .cls-13 {
        stroke-width: 0px;
      }

      .cls-1, .cls-6 {
        fill: #1b2938;
      }

      .cls-2, .cls-5 {
        fill: #273649;
      }

      .cls-3 {
        fill: #f7be8f;
      }

      .cls-4 {
        fill: #619ed7;
      }

      .cls-7 {
        fill: #d9d9d9;
      }

      .cls-8 {
        fill: #8fd2ff;
      }

      .cls-9 {
        fill: #85aaf1;
      }

      .cls-10 {
        fill: #f37453;
      }

      .cls-11 {
        fill: #fff;
      }

      .cls-12 {
        fill: #ffc778;
      }

      .cls-13 {
        fill: #001a3d;
      }
    </style>
  </defs>
  <polygon class="cls-1" points="618.85 1010.98 940.61 1010.98 940.61 1196.98 618.85 1196.98 618.85 1010.98 618.85 1010.98"/>
  <path class="cls-5" d="m1022.86,1227.18h-486.28c0-16.68,13.52-30.2,30.2-30.2h425.88c16.68,0,30.2,13.52,30.2,30.2h0Z"/>
  <path class="cls-5" d="m940.61,1085.41c-105.86-24.48-215.9-24.48-321.76,0v-74.42h321.76v74.42h0Z"/>
  <path class="cls-9" d="m1510.96,1010.98H65.28c-36.06,0-65.28-29.23-65.28-65.29V65.28C0,29.23,29.23,0,65.28,0h1445.67c36.06,0,65.28,29.23,65.28,65.28v880.41c0,36.06-29.23,65.29-65.28,65.29"/>
  <path class="cls-6" d="m0,848.7v96.99c0,36.06,29.22,65.28,65.28,65.28h1445.68c36.06,0,65.28-29.23,65.28-65.28v-96.99H0Z"/>
  <polygon class="cls-2" points="0 848.7 1576.24 848.7 1576.24 869.21 0 869.21 0 848.7 0 848.7"/>
  <path class="cls-13" d="m1497.43,810.93H78.81c-16.22,0-29.38-13.15-29.38-29.38V91.86c0-16.22,13.15-29.38,29.38-29.38h1418.63c16.23,0,29.38,13.15,29.38,29.38v689.68c0,16.23-13.15,29.38-29.38,29.38"/>
  <path class="cls-7" d="m823.09,929.84c0-19.32-15.66-34.98-34.98-34.98s-34.97,15.66-34.97,34.98,15.66,34.98,34.97,34.98,34.98-15.66,34.98-34.98"/>
  <polygon class="cls-11" points="153.95 660.61 133.44 660.61 133.44 638.47 153.95 638.47 153.95 660.61 153.95 660.61"/>
  <polygon class="cls-11" points="153.95 708.13 133.44 708.13 133.44 686 153.95 686 153.95 708.13 153.95 708.13"/>
  <polygon class="cls-11" points="153.95 755.66 133.44 755.66 133.44 733.52 153.95 733.52 153.95 755.66 153.95 755.66"/>
  <polygon class="cls-11" points="621.68 638.47 403.69 638.47 403.69 660.61 621.68 660.61 621.68 638.47 621.68 638.47"/>
  <polygon class="cls-12" points="772.36 680.9 403.69 680.9 403.69 703.04 772.36 703.04 772.36 680.9 772.36 680.9"/>
  <polygon class="cls-10" points="658.37 733.52 610.52 733.52 610.52 755.66 658.37 755.66 658.37 733.52 658.37 733.52"/>
  <polygon class="cls-10" points="1228.11 443.57 1156.34 443.57 1156.34 465.7 1228.11 465.7 1228.11 443.57 1228.11 443.57"/>
  <polygon class="cls-4" points="1280.51 443.57 1239.5 443.57 1239.5 465.7 1280.51 465.7 1280.51 443.57 1280.51 443.57"/>
  <polygon class="cls-3" points="946.11 680.9 915.92 680.9 915.92 703.04 946.11 703.04 946.11 680.9 946.11 680.9"/>
  <polygon class="cls-4" points="900.54 680.9 786.61 680.9 786.61 703.04 900.54 703.04 900.54 680.9 900.54 680.9"/>
  <polygon class="cls-11" points="797.37 638.47 726.72 638.47 726.72 660.61 797.37 660.61 797.37 638.47 797.37 638.47"/>
  <polygon class="cls-11" points="153.95 133.57 133.44 133.57 133.44 111.43 153.95 111.43 153.95 133.57 153.95 133.57"/>
  <polygon class="cls-11" points="153.95 181.09 133.44 181.09 133.44 158.95 153.95 158.95 153.95 181.09 153.95 181.09"/>
  <polygon class="cls-11" points="153.95 228.62 133.44 228.62 133.44 206.48 153.95 206.48 153.95 228.62 153.95 228.62"/>
  <polygon class="cls-11" points="153.95 276.14 133.44 276.14 133.44 254 153.95 254 153.95 276.14 153.95 276.14"/>
  <polygon class="cls-11" points="153.95 323.66 133.44 323.66 133.44 301.53 153.95 301.53 153.95 323.66 153.95 323.66"/>
  <polygon class="cls-11" points="153.95 371.19 133.44 371.19 133.44 349.05 153.95 349.05 153.95 371.19 153.95 371.19"/>
  <polygon class="cls-11" points="153.95 418.71 133.44 418.71 133.44 396.57 153.95 396.57 153.95 418.71 153.95 418.71"/>
  <polygon class="cls-11" points="153.95 466.24 133.44 466.24 133.44 444.1 153.95 444.1 153.95 466.24 153.95 466.24"/>
  <polygon class="cls-11" points="153.95 513.76 133.44 513.76 133.44 491.62 153.95 491.62 153.95 513.76 153.95 513.76"/>
  <polygon class="cls-11" points="153.95 561.28 133.44 561.28 133.44 539.15 153.95 539.15 153.95 561.28 153.95 561.28"/>
  <polygon class="cls-11" points="371.25 111.43 269 111.43 269 133.57 371.25 133.57 371.25 111.43 371.25 111.43"/>
  <polygon class="cls-12" points="441.91 153.86 269 153.86 269 176 441.91 176 441.91 153.86 441.91 153.86"/>
  <polygon class="cls-10" points="320.12 206.48 269 206.48 269 228.62 320.12 228.62 320.12 206.48 320.12 206.48"/>
  <polygon class="cls-10" points="382.2 254 305.52 254 305.52 276.14 382.2 276.14 382.2 254 382.2 254"/>
  <polygon class="cls-10" points="382.2 301.53 305.52 301.53 305.52 323.66 382.2 323.66 382.2 301.53 382.2 301.53"/>
  <polygon class="cls-10" points="340.21 349.05 263.53 349.05 263.53 371.19 340.21 371.19 340.21 349.05 340.21 349.05"/>
  <polygon class="cls-10" points="335.34 396.57 305.52 396.57 305.52 418.71 335.34 418.71 335.34 396.57 335.34 396.57"/>
  <polygon class="cls-10" points="1097.54 301.53 944.56 301.53 944.56 323.66 1097.54 323.66 1097.54 301.53 1097.54 301.53"/>
  <polygon class="cls-11" points="474.7 301.53 398.02 301.53 398.02 323.66 474.7 323.66 474.7 301.53 474.7 301.53"/>
  <polygon class="cls-11" points="917.04 301.53 524.42 301.53 524.42 323.66 917.04 323.66 917.04 301.53 917.04 301.53"/>
  <polygon class="cls-4" points="438.19 254 394.37 254 394.37 276.14 438.19 276.14 438.19 254 438.19 254"/>
  <polygon class="cls-3" points="832.86 254 745.45 254 745.45 276.14 832.86 276.14 832.86 254 832.86 254"/>
  <polygon class="cls-8" points="1233.88 254 849.25 254 849.25 276.14 1233.88 276.14 1233.88 254 1233.88 254"/>
  <polygon class="cls-12" points="1441.33 254 1252 254 1252 276.14 1441.33 276.14 1441.33 254 1441.33 254"/>
  <polygon class="cls-11" points="719.95 254 449.15 254 449.15 276.14 719.95 276.14 719.95 254 719.95 254"/>
  <polygon class="cls-11" points="1115.47 152.12 844.67 152.12 844.67 174.26 1115.47 174.26 1115.47 152.12 1115.47 152.12"/>
  <polygon class="cls-4" points="443.09 396.57 350.55 396.57 350.55 418.71 443.09 418.71 443.09 396.57 443.09 396.57"/>
  <polygon class="cls-3" points="670.74 396.57 602.57 396.57 602.57 418.71 670.74 418.71 670.74 396.57 670.74 396.57"/>
  <polygon class="cls-11" points="840.75 444.1 584.55 444.1 584.55 466.24 840.75 466.24 840.75 444.1 840.75 444.1"/>
  <polygon class="cls-8" points="1142.73 444.1 852.35 444.1 852.35 466.24 1142.73 466.24 1142.73 444.1 1142.73 444.1"/>
  <polygon class="cls-11" points="589.78 396.57 454.04 396.57 454.04 418.71 589.78 418.71 589.78 396.57 589.78 396.57"/>
  <polygon class="cls-3" points="805.06 153.86 740.71 153.86 740.71 176 805.06 176 805.06 153.86 805.06 153.86"/>
  <polygon class="cls-4" points="707.93 153.86 465.07 153.86 465.07 176 707.93 176 707.93 153.86 707.93 153.86"/>
  <polygon class="cls-10" points="356.64 444.1 305.52 444.1 305.52 466.24 356.64 466.24 356.64 444.1 356.64 444.1"/>
  <polygon class="cls-3" points="566.63 444.1 485.66 444.1 485.66 466.24 566.63 466.24 566.63 444.1 566.63 444.1"/>
  <polygon class="cls-4" points="469.23 444.1 371.85 444.1 371.85 466.24 469.23 466.24 469.23 444.1 469.23 444.1"/>
  <polygon class="cls-11" points="468.63 111.43 393.16 111.43 393.16 133.57 468.63 133.57 468.63 111.43 468.63 111.43"/>
  <polygon class="cls-11" points="407.76 496.72 305.52 496.72 305.52 518.85 407.76 518.85 407.76 496.72 407.76 496.72"/>
  <polygon class="cls-10" points="454.07 539.15 305.52 539.15 305.52 561.28 454.07 561.28 454.07 539.15 454.07 539.15"/>
  <polygon class="cls-3" points="737.14 539.15 583.09 539.15 583.09 561.28 737.14 561.28 737.14 539.15 737.14 539.15"/>
  <polygon class="cls-4" points="566.66 539.15 469.29 539.15 469.29 561.28 566.66 561.28 566.66 539.15 566.66 539.15"/>
  <polygon class="cls-11" points="480.8 496.72 429.67 496.72 429.67 518.85 480.8 518.85 480.8 496.72 480.8 496.72"/>
</svg>