<?xml version="1.0" encoding="UTF-8"?>
<svg id="Layer_1" data-name="Layer 1" xmlns="http://www.w3.org/2000/svg" xmlns:xlink="http://www.w3.org/1999/xlink" viewBox="0 0 303.6 743.84">
  <defs>
    <style>
      .cls-1 {
        fill: url(#linear-gradient);
      }

      .cls-1, .cls-2, .cls-3, .cls-4, .cls-5, .cls-6, .cls-7, .cls-8, .cls-9, .cls-10, .cls-11, .cls-12, .cls-13, .cls-14, .cls-15 {
        stroke-width: 0px;
      }

      .cls-2 {
        fill: url(#linear-gradient-11);
      }

      .cls-3 {
        fill: url(#linear-gradient-12);
      }

      .cls-4 {
        fill: url(#linear-gradient-13);
      }

      .cls-5 {
        fill: url(#linear-gradient-10);
      }

      .cls-6 {
        fill: url(#linear-gradient-15);
      }

      .cls-7 {
        fill: url(#linear-gradient-14);
      }

      .cls-8 {
        fill: url(#linear-gradient-4);
      }

      .cls-9 {
        fill: url(#linear-gradient-2);
      }

      .cls-10 {
        fill: url(#linear-gradient-3);
      }

      .cls-11 {
        fill: url(#linear-gradient-8);
      }

      .cls-12 {
        fill: url(#linear-gradient-9);
      }

      .cls-13 {
        fill: url(#linear-gradient-7);
      }

      .cls-14 {
        fill: url(#linear-gradient-5);
      }

      .cls-15 {
        fill: url(#linear-gradient-6);
      }
    </style>
    <linearGradient id="linear-gradient" x1="-199.36" y1="239.87" x2="488.02" y2="239.87" gradientTransform="translate(522.9 219.9) rotate(90)" gradientUnits="userSpaceOnUse">
      <stop offset="0" stop-color="#ed147c"/>
      <stop offset=".44" stop-color="#ab03df"/>
      <stop offset=".74" stop-color="#fbca3f"/>
      <stop offset="1" stop-color="#2aefa0"/>
    </linearGradient>
    <linearGradient id="linear-gradient-2" y1="328.2" y2="328.2" gradientTransform="translate(522.9 220.19) rotate(90)" xlink:href="#linear-gradient"/>
    <linearGradient id="linear-gradient-3" x1="-199.36" y1="319.28" x2="488.02" y2="319.28" gradientTransform="translate(523.26 219.14) rotate(89.82)" xlink:href="#linear-gradient"/>
    <linearGradient id="linear-gradient-4" x1="-199.36" y1="416.54" x2="488.02" y2="416.54" gradientTransform="translate(523.47 220.47) rotate(90)" xlink:href="#linear-gradient"/>
    <linearGradient id="linear-gradient-5" x1="-199.36" y1="504.87" x2="488.02" y2="504.87" gradientTransform="translate(523.47 220.75) rotate(90)" xlink:href="#linear-gradient"/>
    <linearGradient id="linear-gradient-6" x1="-199.36" y1="284.04" x2="488.02" y2="284.04" gradientTransform="translate(523.26 219.14) rotate(89.82)" xlink:href="#linear-gradient"/>
    <linearGradient id="linear-gradient-7" x1="-199.36" y1="275.12" x2="488.02" y2="275.12" gradientTransform="translate(523.26 219.14) rotate(89.82)" xlink:href="#linear-gradient"/>
    <linearGradient id="linear-gradient-8" x1="-199.36" y1="460.7" x2="488.02" y2="460.7" gradientTransform="translate(523.26 219.14) rotate(89.82)" xlink:href="#linear-gradient"/>
    <linearGradient id="linear-gradient-9" x1="-199.36" y1="284.04" x2="488.02" y2="284.04" gradientTransform="translate(523.26 219.14) rotate(89.82)" xlink:href="#linear-gradient"/>
    <linearGradient id="linear-gradient-10" x1="-199.36" y1="239.87" x2="488.02" y2="239.87" gradientTransform="translate(523.26 219.14) rotate(89.82)" xlink:href="#linear-gradient"/>
    <linearGradient id="linear-gradient-11" x1="-199.36" y1="328.2" x2="488.02" y2="328.2" gradientTransform="translate(523.26 219.14) rotate(89.82)" xlink:href="#linear-gradient"/>
    <linearGradient id="linear-gradient-12" x1="-199.36" y1="416.53" x2="488.02" y2="416.53" gradientTransform="translate(523.26 219.14) rotate(89.82)" xlink:href="#linear-gradient"/>
    <linearGradient id="linear-gradient-13" x1="-199.36" y1="451.78" x2="488.02" y2="451.78" gradientTransform="translate(523.26 219.14) rotate(89.82)" xlink:href="#linear-gradient"/>
    <linearGradient id="linear-gradient-14" x1="-199.36" y1="239.87" x2="488.01" y2="239.87" gradientTransform="translate(427.32 296.38) rotate(112.5)" xlink:href="#linear-gradient"/>
    <linearGradient id="linear-gradient-15" x1="-199.37" y1="239.87" x2="488.02" y2="239.87" gradientTransform="translate(523.26 219.14) rotate(89.82)" xlink:href="#linear-gradient"/>
  </defs>
  <circle class="cls-1" cx="283.03" cy="106.93" r="18.6" transform="translate(-.34 .91) rotate(-.18)"/>
  <circle class="cls-9" cx="194.7" cy="107.21" r="18.6" transform="translate(-.34 .62) rotate(-.18)"/>
  <path class="cls-10" d="m302.19,283.53c-.03-10.27-8.39-18.57-18.66-18.54h.75s-.45-139.46-.45-139.46h-.76s-.76,0-.76,0l.42,130.74c-3.64-10.22-13.4-17.56-24.86-17.52l-37.21.12c-13.68.04-24.84-11.05-24.88-24.72h0s-.69,0-.69,0c10.24-.07,18.51-8.41,18.47-18.66-.03-10.27-8.38-18.57-18.65-18.54h.75s-.16-51.13-.16-51.13h0s-.76,0-.76,0h-.76s0,0,0,0c.04,13.68-11.05,24.84-24.72,24.88l-37.21.12c-14.51.05-26.28,11.89-26.23,26.4h1.51c-.04-13.68,11.05-24.84,24.72-24.89l37.21-.12c11.45-.04,21.17-7.44,24.75-17.68l.14,42.41h.75c-10.27.03-18.57,8.39-18.54,18.66.03,10.25,8.36,18.54,18.6,18.54h-.7c.05,14.52,11.89,26.28,26.4,26.24l37.21-.12c13.68-.04,24.84,11.05,24.88,24.72h0s.76.01.76.01c-10.27.03-18.57,8.39-18.54,18.66s8.39,18.57,18.66,18.54c10.27-.03,18.57-8.39,18.54-18.66Z"/>
  <circle class="cls-8" cx="106.93" cy="284.16" r="18.6" transform="translate(-.91 .34) rotate(-.18)"/>
  <circle class="cls-14" cx="18.6" cy="284.44" r="18.6" transform="translate(-.91 .06) rotate(-.18)"/>
  <path class="cls-15" d="m265.27,371.98c.03,10.27,8.38,18.57,18.65,18.54h-.75s.14,43.04.14,43.04c-3.46-10.55-13.4-18.18-25.09-18.14l-37.21.12c-12.6.04-23.04-9.37-24.64-21.55v-3.19s-.76,0-.76,0c10.27-.04,18.56-8.39,18.53-18.66s-8.39-18.57-18.66-18.54c-10.27.03-18.57,8.39-18.54,18.66s8.38,18.57,18.65,18.54h-.75s0,.01,0,.01h-.23c0,1.11.1,2.2.24,3.28l.44,136.17h.75c-10.27.03-18.57,8.39-18.53,18.66.03,10.27,8.39,18.57,18.66,18.54,10.27-.03,18.57-8.39,18.54-18.66-.03-10.27-8.38-18.57-18.65-18.54h.75s-.42-130.12-.42-130.12c3.81,9.9,13.41,16.94,24.63,16.91l37.21-.12c13.68-.04,24.84,11.05,24.88,24.72h.23s.75,0,.75,0c-10.27.04-18.56,8.39-18.53,18.66.03,10.27,8.38,18.56,18.64,18.54h-.74s.16,51.13.16,51.13h.75c-10.27.03-18.57,8.39-18.53,18.66.03,10.27,8.39,18.57,18.66,18.54,10.27-.03,18.57-8.39,18.54-18.66-.03-10.27-8.38-18.57-18.65-18.54h.75s-.16-51.13-.16-51.13h-.74c10.27-.04,18.56-8.39,18.53-18.66s-8.38-18.57-18.65-18.54h.52s.23,0,.23,0l-.16-51.13h-.75c10.27-.04,18.56-8.39,18.53-18.66s-8.39-18.57-18.66-18.54c-10.27.03-18.57,8.39-18.54,18.66Z"/>
  <path class="cls-13" d="m303.32,636.85c-.03-10.27-8.38-18.57-18.66-18.54h.75s-.16-51.13-.16-51.13h-1.51s.14,42.42.14,42.42c-3.64-10.22-13.4-17.56-24.86-17.53l-37.21.12c-13.68.04-24.84-11.05-24.88-24.72h0s-1.51,0-1.51,0c.05,14.51,11.89,26.28,26.4,26.23l37.21-.12c13.68-.04,24.84,11.05,24.88,24.72h0s.75,0,.75,0c-10.27.03-18.57,8.39-18.54,18.66s8.39,18.57,18.66,18.54,18.57-8.39,18.54-18.66Z"/>
  <path class="cls-11" d="m126.66,637.42c-.03-10.27-8.38-18.57-18.66-18.54h.76s-.45-139.46-.45-139.46h-.75c10.27-.04,18.56-8.39,18.53-18.66s-8.38-18.57-18.65-18.54h.75s-.16-51.13-.16-51.13h-.75c10.27-.04,18.56-8.39,18.53-18.66-.03-10.27-8.39-18.57-18.66-18.54-10.27.03-18.57,8.39-18.54,18.66.03,10.27,8.38,18.57,18.65,18.54h-.74s.01,3.2.01,3.2h-.71c.04,13.68-11.05,24.84-24.72,24.88l-37.21.12c-14.29.05-25.9,11.54-26.2,25.75-9.6.76-17.14,8.79-17.11,18.58s8.38,18.57,18.65,18.54h-.74s.16,48.67.16,48.67h.75c-10.27.03-18.57,8.39-18.53,18.66.03,10.27,8.39,18.57,18.66,18.54,10.27-.03,18.57-8.39,18.54-18.66s-8.38-18.57-18.65-18.54h.75s-.16-48.67-.16-48.67h-.74c10.27-.04,18.56-8.39,18.53-18.66-.03-10.24-8.34-18.52-18.57-18.54.34-13.34,11.25-24.12,24.69-24.17l37.21-.12c12.32-.04,22.64-8.6,25.45-20.07l.13,41.6h.74c-10.27.04-18.56,8.39-18.53,18.66s8.38,18.56,18.64,18.54h-.74s.42,130.76.42,130.76c-3.64-10.23-13.4-17.58-24.86-17.54l-37.21.12c-13.68.04-24.84-11.05-24.88-24.72h0s-1.51,0-1.51,0c.05,14.51,11.89,26.28,26.4,26.23l37.21-.12c13.68-.04,24.84,11.05,24.88,24.72h0s0,0,0,0h.75c-10.27.03-18.57,8.39-18.54,18.66.03,10.27,8.39,18.57,18.66,18.54,10.27-.03,18.57-8.39,18.54-18.66Z"/>
  <path class="cls-12" d="m283.56,37.2h-1.51s0,.01,0,.01c.04,13.68-11.05,24.84-24.72,24.88l-37.21.12c-14.51.05-26.28,11.89-26.23,26.4h0s1.51,0,1.51,0c-.04-13.68,11.05-24.84,24.72-24.88l37.21-.12c11.45-.04,21.17-7.44,24.75-17.68l.14,42.41h1.51s-.16-51.13-.16-51.13Z"/>
  <polygon class="cls-5" points="283.81 353.32 284.57 353.32 284.41 302.19 282.89 302.19 283.06 353.32 283.81 353.32"/>
  <path class="cls-2" d="m285.54,655.51h-1.51s.14,42.42.14,42.42c-3.64-10.22-13.4-17.56-24.86-17.53l-37.21.12-88.33.28c-13.68.04-24.84-11.05-24.88-24.72h0s-1.51,0-1.51,0c.05,14.51,11.89,26.28,26.4,26.23l88.33-.28,37.21-.12c13.68-.04,24.84,11.05,24.88,24.72h0s.76,0,.76,0h.76s-.16-51.13-.16-51.13Z"/>
  <path class="cls-3" d="m107.78,311.49c3.64,10.22,13.4,17.54,24.85,17.51l37.21-.12c13.68-.04,24.84,11.05,24.88,24.72h1.51c-.05-14.52-11.89-26.28-26.4-26.24l-37.21.12c-13.64.04-24.77-10.98-24.87-24.61v-.13s-1.51,0-1.51,0h0s0,0,0,0c0,.04,0,.08,0,.12l.14,42.3c-3.64-10.23-13.4-17.57-24.86-17.53l-37.21.12c-13.68.04-24.84-11.05-24.88-24.72h0s-1.51,0-1.51,0c.05,14.51,11.89,26.28,26.4,26.23l37.21-.12c13.68-.04,24.84,11.05,24.88,24.72h0s0,0,0,0h.75s.76,0,.76,0l-.14-42.39Z"/>
  <path class="cls-4" d="m106.83,214.42c10.22-.1,18.45-8.42,18.42-18.65-.03-10.27-8.39-18.57-18.66-18.54-10.27.03-18.57,8.39-18.54,18.66s8.32,18.5,18.54,18.53h-.63s0,.01,0,.01h0c.04,13.68-11.05,24.84-24.72,24.88l-37.21.12c-14.51.05-26.28,11.89-26.23,26.4h1.51c-.04-13.68,11.05-24.84,24.72-24.89l37.21-.12c11.46-.04,21.18-7.44,24.75-17.69l.14,42.42h1.51s-.16-51.13-.16-51.13h-.64Z"/>
  <circle class="cls-7" cx="282.74" cy="18.6" r="18.6" transform="translate(14.7 110.48) rotate(-22.68)"/>
  <path class="cls-6" d="m303.6,725.18c-.03-10.27-8.39-18.57-18.66-18.54-10.27.03-18.57,8.39-18.54,18.66.03,10.27,8.39,18.57,18.66,18.54,10.27-.03,18.57-8.39,18.54-18.66Zm-26.63.09c-.01-4.44,3.57-8.04,8.01-8.06s8.04,3.57,8.06,8.01-3.57,8.04-8.01,8.06-8.04-3.57-8.06-8.01Z"/>
</svg>