<?xml version="1.0" encoding="UTF-8"?>
<svg id="Layer_1" data-name="Layer 1" xmlns="http://www.w3.org/2000/svg" xmlns:xlink="http://www.w3.org/1999/xlink" viewBox="0 0 512 512">
  <defs>
    <style>
      .cls-1 {
        fill: url(#linear-gradient);
      }

      .cls-1, .cls-2 {
        stroke-width: 0px;
      }

      .cls-2 {
        fill: #f1f2f2;
      }
    </style>
    <linearGradient id="linear-gradient" x1=".83" y1=".83" x2="512.83" y2="512.83" gradientUnits="userSpaceOnUse">
      <stop offset="0" stop-color="#b476ff"/>
      <stop offset="1" stop-color="#7776ff"/>
    </linearGradient>
  </defs>
  <rect class="cls-1" width="512" height="512" transform="translate(512 512) rotate(180)"/>
  <path class="cls-2" d="m292.77,89.14l-33.19,18.44c-1.11.62-2.35.93-3.58.93s-2.47-.31-3.58-.93l-33.19-18.44c-2.34-1.3-3.79-3.77-3.79-6.45v-36.87c0-2.68,1.45-5.15,3.79-6.45l33.19-18.44c2.23-1.24,4.94-1.24,7.16,0l33.19,18.44c2.34,1.3,3.79,3.77,3.79,6.45v36.87c0,2.68-1.45,5.15-3.79,6.45Zm-10.96-38.98l-25.81-14.34-25.81,14.34v28.19s25.81,14.34,25.81,14.34l25.81-14.34v-28.19Zm-66.37,379.14v36.87c0,2.68,1.45,5.15,3.79,6.45l33.19,18.44c1.11.62,2.35.93,3.58.93,1.23,0,2.47-.31,3.58-.93l33.19-18.44c2.34-1.3,3.79-3.77,3.79-6.45v-36.87c0-2.68-1.45-5.15-3.79-6.45l-33.19-18.44c-2.23-1.24-4.94-1.24-7.16,0l-33.19,18.44c-2.34,1.3-3.79,3.77-3.79,6.45Zm169.72-102.31l33.19-18.44c2.23-1.24,4.94-1.24,7.16,0l33.19,18.44c2.34,1.3,3.79,3.77,3.79,6.45v36.87c0,2.68-1.45,5.15-3.79,6.45l-33.19,18.44c-1.11.62-2.35.93-3.58.93-1.23,0-2.47-.31-3.58-.93l-33.19-18.44c-2.34-1.3-3.79-3.77-3.79-6.45v-36.87c0-2.68,1.45-5.15,3.79-6.45Zm10.96,38.98l25.81,14.34,25.81-14.34v-28.19s-25.81-14.34-25.81-14.34l-25.81,14.34v28.19Zm-342.81-38.98l33.19-18.44c2.23-1.24,4.94-1.24,7.16,0l33.19,18.44c2.34,1.3,3.79,3.77,3.79,6.45v36.87c0,2.68-1.45,5.15-3.79,6.45l-33.19,18.44c-1.11.62-2.35.93-3.58.93-1.23,0-2.47-.31-3.58-.93l-33.19-18.44c-2.34-1.3-3.79-3.77-3.79-6.45v-36.87c0-2.68,1.45-5.15,3.79-6.45Zm10.96,38.98l25.81,14.34,25.81-14.34v-28.19s-25.81-14.34-25.81-14.34l-25.81,14.34v28.19Zm302.67-231.5c.82-5.01,3.34-9.57,7.11-12.93l-62.86-37.02c-.42,5.13-2.6,9.89-6.1,13.52l61.85,36.42Zm14.43,3.55v36.87c0,2.68,1.45,5.15,3.79,6.45l33.19,18.44c1.11.62,2.35.93,3.58.93,1.23,0,2.47-.31,3.58-.93l33.19-18.44c2.34-1.3,3.79-3.77,3.79-6.45v-36.87c0-2.68-1.45-5.15-3.79-6.45l-33.19-18.44c-2.23-1.24-4.94-1.24-7.16,0l-33.19,18.44c-2.34,1.3-3.79,3.77-3.79,6.45Zm-331.85,0v36.87c0,2.68,1.45,5.15,3.79,6.45l33.19,18.44c1.11.62,2.35.93,3.58.93s2.47-.31,3.58-.93l33.19-18.44c2.34-1.3,3.79-3.77,3.79-6.45v-36.87c0-2.68-1.45-5.15-3.79-6.45l-33.19-18.44c-2.23-1.24-4.94-1.24-7.16,0l-33.19,18.44c-2.34,1.3-3.79,3.77-3.79,6.45Zm143.88,157.61l59,33.19c1.12.63,2.37.95,3.62.95,1.25,0,2.49-.32,3.62-.95l59-33.19c2.32-1.31,3.76-3.76,3.76-6.43v-66.37c0-2.66-1.44-5.12-3.76-6.43l-59-33.19c-2.24-1.26-4.99-1.26-7.23,0l-59,33.19c-2.32,1.31-3.76,3.76-3.76,6.43v66.37c0,2.66,1.44,5.12,3.76,6.43Zm-48.32-161.15l61.85-36.42c-3.51-3.64-5.68-8.4-6.1-13.52l-62.86,37.02c3.77,3.37,6.29,7.92,7.11,12.93Zm-47.62,159.72v-80.04c-2.39.85-4.88,1.3-7.37,1.3s-4.99-.46-7.37-1.3v80.04c4.77-1.69,9.97-1.69,14.75,0Zm37.77,94.68l65.59,38.63c.42-5.13,2.6-9.89,6.1-13.52l-62.64-36.89c-1.55,4.81-4.72,8.99-9.06,11.78Zm232.5-11.78l-62.64,36.89c3.51,3.64,5.68,8.4,6.1,13.52l65.59-38.63c-4.34-2.8-7.51-6.97-9.06-11.78Zm61.58-82.9v-80.04c-2.39.85-4.88,1.3-7.37,1.3-2.5,0-4.99-.46-7.37-1.3v80.04c4.77-1.69,9.97-1.69,14.75,0Zm-165.93-125.36v-46.86c-2.39.85-4.88,1.3-7.37,1.3s-4.99-.46-7.37-1.3v46.86c4.77-1.69,9.97-1.69,14.75,0Zm-7.37,175.68c-2.5,0-4.99-.46-7.37-1.31v46.86c4.77-1.69,9.97-1.69,14.75,0v-46.86c-2.39.85-4.88,1.31-7.37,1.31Zm71.2-36.91l39.55,23.87c.46-5.12,2.66-9.87,6.2-13.48l-36.86-22.24c-1.5,4.82-4.61,9.01-8.9,11.85Zm-190.62-115.04l39.33,23.74c1.49-4.82,4.61-9.01,8.89-11.85l-40.1-24.2c-1.22,4.89-4.06,9.26-8.12,12.32Zm199.25,22.98l38.87-23.59c-3.91-3.23-6.59-7.68-7.6-12.64l-40.64,24.67c4.43,2.69,7.69,6.81,9.36,11.57Zm-160.04,79.88l-36.9,22.4c3.57,3.58,5.82,8.3,6.34,13.41l39.26-23.83c-4.22-2.9-7.28-7.14-8.7-11.98Z"/>
</svg>